<?xml version="1.0" standalone="no"?>
<!DOCTYPE svg PUBLIC "-//W3C//DTD SVG 1.1//EN" "http://www.w3.org/Graphics/SVG/1.1/DTD/svg11.dtd" >
<svg xmlns="http://www.w3.org/2000/svg">
<metadata>
Created by FontPrep 20130207 at Wed Jul  2 11:46:50 2014
 By Steaw
Copyright (c) 2010-2011 BNP Paribas
</metadata>
<defs>
<font id="c986a1cf19ab950b225229f6b46c988c" horiz-adv-x='1024' >
  <font-face 
    font-family="BNPPSquare"
    font-weight="400"
    font-stretch="normal"
    units-per-em="2048"
    panose-1="2 0 5 3 0 0 0 2 0 4"
    ascent="1536"
    descent="-512"
    x-height="1087"
    cap-height="1434"
    bbox="-125 -512 2241 2277"
    underline-thickness="102"
    underline-position="-102"
    unicode-range="U+0020-FB02"
  />
<missing-glyph horiz-adv-x="1126" 
d="M332 1210v-1056h461v1056h-461zM162 1362h801v-1362h-801v1362z" />
    <glyph glyph-name="fi" unicode="fi" horiz-adv-x="1290" 
d="M883 1468h225v-233h-225v233zM883 1087h225v-1087h-225v1087zM211 1317q1 235 311 235q156 0 293 -51l-16 -166q-129 45 -223 45t-116 -18q-24 -18 -24 -64v-211h269v-167h-269v-920h-225v920h-170v167h170v230z" />
    <glyph glyph-name="fl" unicode="fl" horiz-adv-x="1380" 
d="M881 1495h225v-1257q0 -50 16 -66t73 -16t142 45l19 -166q-123 -61 -244 -61t-176 56t-55 181v1284zM211 1317q1 235 311 235q156 0 293 -51l-16 -166q-129 45 -223 45t-116 -18q-24 -18 -24 -64v-211h269v-167h-269v-920h-225v920h-170v167h170v230z" />
    <glyph glyph-name=".notdef" horiz-adv-x="1126" 
d="M332 1210v-1056h461v1056h-461zM162 1362h801v-1362h-801v1362z" />
    <glyph glyph-name=".null" horiz-adv-x="0" 
 />
    <glyph glyph-name="nonmarkingreturn" horiz-adv-x="681" 
 />
    <glyph glyph-name="space" unicode=" " horiz-adv-x="608" 
 />
    <glyph glyph-name="exclam" unicode="!" horiz-adv-x="643" 
d="M203 1434h237l-12 -1061h-213zM201 223h239v-223h-239v223z" />
    <glyph glyph-name="quotedbl" unicode="&#x22;" horiz-adv-x="845" 
d="M164 1434h203v-486h-203v486zM479 1434h203v-486h-203v486z" />
    <glyph glyph-name="numbersign" unicode="#" horiz-adv-x="1388" 
d="M573 897l-69 -365h309l72 365h-312zM102 897l33 166h275l69 371h199l-72 -371h312l71 371h197l-70 -371h273l-33 -166h-273l-71 -365h272l-33 -163h-272l-70 -369h-198l71 369h-311l-72 -369h-196l69 369h-272l31 163h274l72 365h-275z" />
    <glyph glyph-name="dollar" unicode="$" 
d="M596 1151q-114 0 -179 -46t-65 -129t74 -133t178 -81t210 -67q106 -37 179 -109q74 -72 74 -180q0 -166 -105 -256t-284 -111v-219h-180v217q-127 12 -240 66t-192 141l127 143q74 -80 175 -128t206 -48t175 42q69 42 68 130q0 57 -52 99t-130 65t-168 55t-168 70
q-78 36 -130 110t-52 174q0 166 106 257t275 112v211h180v-215q186 -23 271 -131t93 -254l-213 -31q-16 113 -67 179q-52 66 -166 67z" />
    <glyph glyph-name="percent" unicode="%" horiz-adv-x="1587" 
d="M1219 545q-70 0 -104 -49t-34 -164t34 -164t104 -49q71 0 103 48t32 164t-32 165t-103 49zM1219 688q161 0 235 -85t74 -273q0 -356 -309 -357q-311 -1 -311 357t311 358zM370 891q68 0 102 48t34 163t-34 165t-102 50q-69 0 -104 -49t-35 -164t35 -164t104 -49z
M371 1460q157 0 233 -86t76 -272q0 -356 -309 -357q-311 -1 -311 357t311 358zM1198 1434h193l-1004 -1434h-188z" />
    <glyph glyph-name="ampersand" unicode="&#x26;" horiz-adv-x="1492" 
d="M827 1118q0 84 -57 128q-58 44 -144 44t-152 -41t-64 -139q0 -53 26 -105t46 -74q18 -22 79 -85q145 57 206 122q60 66 60 150zM295 370q0 -98 88 -158t223 -60q180 0 283 131l-387 346q-102 -47 -154 -103q-52 -58 -53 -156zM1231 680q0 -235 -76 -379l342 -301h-283
l-176 152q-158 -178 -433 -178t-408 113q-133 114 -134 296q0 246 299 377q-178 178 -178 339t115 261t323 100t317 -96q110 -96 110 -242q0 -252 -349 -403l301 -273q33 82 33 175v59h197z" />
    <glyph glyph-name="quotesingle" unicode="'" horiz-adv-x="528" 
d="M162 1434h203v-486h-203v486z" />
    <glyph glyph-name="parenleft" unicode="(" horiz-adv-x="768" 
d="M119 522q0 469 277 844q69 92 149 170h235q-182 -170 -318 -435t-136 -579t136 -578q136 -265 318 -436h-235q-176 170 -301 425t-125 589z" />
    <glyph glyph-name="parenright" unicode=")" horiz-adv-x="768" 
d="M442 522q0 312 -136 578t-318 436h235q167 -163 283 -388q143 -272 143 -616t-125 -599t-301 -425h-235q182 170 318 436t136 578z" />
    <glyph glyph-name="asterisk" unicode="*" horiz-adv-x="1120" 
d="M711 1055l290 -142l-81 -127l-289 168l6 -274h-158l10 274l-288 -166l-82 125l287 144l-287 143l82 125l288 -164l-10 273h158l-6 -273l289 164l79 -125z" />
    <glyph glyph-name="plus" unicode="+" 
d="M498 1098h196v-326h359v-182h-359v-324h-196v324h-357v182h357v326z" />
    <glyph glyph-name="comma" unicode="," horiz-adv-x="528" 
d="M170 223h250l-227 -493h-193z" />
    <glyph glyph-name="hyphen" unicode="-" horiz-adv-x="944" 
d="M764 772v-182h-584v182h584z" />
    <glyph glyph-name="hyphen" unicode="&#xad;" horiz-adv-x="944" 
d="M764 772v-182h-584v182h584z" />
    <glyph glyph-name="period" unicode="." horiz-adv-x="528" 
d="M143 223h242v-223h-242v223z" />
    <glyph glyph-name="slash" unicode="/" horiz-adv-x="823" 
d="M594 1434h207l-576 -1434h-202z" />
    <glyph glyph-name="zero" unicode="0" 
d="M598 162q150 0 222 122t71 436q1 314 -71 433t-222 119t-222 -126q-73 -126 -73 -433t72 -429q73 -122 223 -122zM603 1460q257 0 388 -167t131 -577t-136 -576q-136 -167 -388 -167t-391 163t-138 569q1 407 139 581t395 174z" />
    <glyph glyph-name="one" unicode="1" 
d="M164 0v190h371v1014l-369 -170v205l409 195h183v-1244h338v-190h-932z" />
    <glyph glyph-name="two" unicode="2" 
d="M566 1460q232 0 356 -108q125 -108 125 -324q0 -215 -226 -440l-383 -391h643v-197h-960v164l541 563q150 154 149 295q0 250 -248 250q-235 0 -260 -252l-223 39q10 161 132 281t354 120z" />
    <glyph glyph-name="three" unicode="3" 
d="M864 389q0 238 -311 238h-166v182h166q119 0 191 69t73 164q0 229 -256 230q-238 0 -266 -244l-219 49q16 158 142 271q126 112 351 112t355 -105t131 -292q0 -227 -228 -322q270 -68 271 -350q0 -201 -137 -309t-371 -109q-299 0 -488 185l111 157q148 -153 369 -153
q126 2 204 59t78 168z" />
    <glyph glyph-name="four" unicode="4" 
d="M727 526v674l-451 -674h451zM37 340v156l627 938h284v-908h189v-186h-189v-340h-221v340h-690z" />
    <glyph glyph-name="five" unicode="5" 
d="M184 1434h840v-203h-625v-373q63 12 156 12q274 0 401 -120t127 -322q0 -203 -135 -329t-366 -126q-295 0 -484 185l113 157q143 -154 352 -153q129 0 208 72t79 194q0 121 -78 193q-78 71 -218 71t-251 -28l-119 71v699z" />
    <glyph glyph-name="six" unicode="6" 
d="M693 858q187 0 311 -105t122 -321q0 -216 -137 -337q-137 -122 -358 -122q-520 0 -520 740q0 387 141 567t393 180q209 0 325 -106t134 -275l-217 -41q-36 172 -134 213q-48 20 -116 21q-289 0 -291 -498q160 84 347 84zM899 430q0 246 -240 248q-172 0 -313 -86
q16 -430 283 -430q131 0 201 72t69 196z" />
    <glyph glyph-name="seven" unicode="7" 
d="M104 1434h998v-146l-656 -1288h-258l643 1237h-727v197z" />
    <glyph glyph-name="eight" unicode="8" 
d="M338 1042q0 -98 70 -168t189 -69q119 -1 189 69t70 168q0 234 -259 234t-259 -234zM597 -27q-241 0 -386 116t-145 306q0 262 253 344q-100 49 -155 132t-55 188q0 193 127 297q128 104 362 104t360 -104t127 -297q0 -103 -55 -187t-153 -133q252 -82 251 -344
q0 -190 -145 -306t-386 -116zM897 399q0 242 -300 242t-300 -242q0 -115 84 -179t215 -64t216 63t85 180z" />
    <glyph glyph-name="nine" unicode="9" 
d="M489 565q-184 0 -309 111q-125 110 -125 322q-1 212 139 337t363 125q258 0 386 -177t128 -559t-145 -566t-394 -185q-295 0 -479 185l113 157q143 -154 356 -153q147 0 227 120t82 357q-158 -74 -342 -74zM834 829q-10 236 -78 339q-68 104 -196 104t-202 -76t-74 -195
t68 -187t180 -66q175 -1 302 81z" />
    <glyph glyph-name="colon" unicode=":" horiz-adv-x="528" 
d="M143 223h242v-223h-242v223zM143 1087h242v-223h-242v223z" />
    <glyph glyph-name="semicolon" unicode=";" horiz-adv-x="524" 
d="M166 223h250l-228 -493h-192zM141 1087h242v-223h-242v223z" />
    <glyph glyph-name="less" unicode="&#x3c;" 
d="M1053 1090v-187l-709 -221l709 -223v-187l-912 297v224z" />
    <glyph glyph-name="equal" unicode="=" 
d="M1053 543v-183h-912v183h912zM1053 979v-182h-912v182h912z" />
    <glyph glyph-name="greater" unicode="&#x3e;" 
d="M141 903v187l912 -297v-224l-912 -297v187l709 223z" />
    <glyph glyph-name="question" unicode="?" horiz-adv-x="1021" 
d="M352 223h240v-223h-240v223zM582 373h-220q0 237 85 340q38 45 111 105q72 60 96 86q63 65 64 156q0 91 -60 144t-161 53t-158 -68q-56 -69 -63 -151l-217 41q8 162 123 272q115 109 332 109t331 -108t113 -252q0 -111 -48 -192t-142 -167q-62 -51 -95 -87
q-34 -36 -39 -45q-4 -9 -18 -31t-17 -38t-10 -48t-7 -119z" />
    <glyph glyph-name="at" unicode="@" horiz-adv-x="1773" 
d="M920 -199q-365 0 -593 201q-229 201 -229 543q0 343 216 543t572 200t575 -198q218 -198 218 -506q0 -217 -99 -335t-267 -118t-228 119q-127 -106 -257 -106t-235 89q-106 90 -106 326q0 117 38 203q39 86 99 130q114 83 248 85q172 0 365 -100v-463q0 -117 113 -117
q80 0 124 82t44 205q0 252 -172 410t-459 157q-287 0 -460 -161q-173 -162 -173 -444t182 -444t468 -162t493 99l51 -129q-238 -109 -528 -109zM882 815q-80 0 -138 -57q-58 -58 -58 -194t47 -196t115 -61q112 1 192 101v368q-78 39 -158 39z" />
    <glyph glyph-name="A" unicode="A" horiz-adv-x="1216" 
d="M594 1212l-221 -675h442zM987 0l-119 360h-551l-116 -360h-213l489 1434h262l488 -1434h-240z" />
    <glyph glyph-name="B" unicode="B" horiz-adv-x="1282" 
d="M203 1434h424q247 0 375 -83t128 -282q0 -236 -239 -334q285 -51 285 -340q0 -209 -138 -302t-401 -93h-434v1434zM428 1257v-452h207q121 -1 191 67t71 178q0 110 -66 158q-66 49 -206 49h-197zM428 639v-463h209q151 0 225 53t74 174t-69 179t-230 57h-209z" />
    <glyph glyph-name="C" unicode="C" horiz-adv-x="1234" 
d="M658 1272q-134 0 -197 -41t-93 -157t-30 -326t20 -321q20 -112 72 -170q52 -59 118 -77q65 -18 173 -18q203 0 385 104l24 -180q-193 -113 -436 -113q-121 -1 -207 17q-201 41 -284 195q-99 183 -99 534q0 451 140 602q74 80 170 110t243 29q227 0 342 -116t119 -306
l-203 -24q-12 122 -67 190q-56 68 -190 68z" />
    <glyph glyph-name="D" unicode="D" horiz-adv-x="1413" 
d="M428 1245v-1057h205q92 0 147 8t112 40q56 31 86 89q66 128 66 410q0 171 -24 275t-81 155q-58 51 -125 65t-181 15h-205zM203 1434h452q164 0 274 -30q109 -30 193 -105q162 -145 162 -562q0 -511 -244 -652q-82 -49 -174 -67t-217 -18h-446v1434z" />
    <glyph glyph-name="E" unicode="E" 
d="M203 1434h844v-189h-619v-424h592v-178h-592v-455h649v-188h-874v1434z" />
    <glyph glyph-name="F" unicode="F" horiz-adv-x="1144" 
d="M203 1434h856v-189h-631v-450h541v-185h-541v-610h-225v1434z" />
    <glyph glyph-name="G" unicode="G" horiz-adv-x="1458" 
d="M1083 92q-159 -119 -395 -119q-128 0 -228 28t-186 105q-170 154 -170 627q0 320 78 468q41 79 93 131q128 128 481 128q502 0 518 -422l-215 -24q-13 122 -77 190t-234 68q-113 0 -180 -16t-122 -71q-54 -54 -78 -163t-24 -291q0 -364 102 -474q55 -59 121 -77t174 -18
q174 0 324 110v314h-332v178h559v-764h-209v92z" />
    <glyph glyph-name="H" unicode="H" horiz-adv-x="1523" 
d="M203 1434h225v-607h666v607h227v-1434h-227v631h-666v-631h-225v1434z" />
    <glyph glyph-name="I" unicode="I" horiz-adv-x="630" 
d="M203 1434h225v-1434h-225v1434z" />
    <glyph glyph-name="J" unicode="J" horiz-adv-x="681" 
d="M262 1434h225v-1184q-1 -129 -79 -203t-202 -74t-222 56l41 174q74 -41 139 -41q98 0 98 114v1158z" />
    <glyph glyph-name="K" unicode="K" horiz-adv-x="1277" 
d="M203 1434h225v-717l571 717h242l-477 -594l510 -840h-258l-400 657l-188 -233v-424h-225v1434z" />
    <glyph glyph-name="L" unicode="L" horiz-adv-x="1034" 
d="M203 1434h225v-1252h576v-182h-801v1434z" />
    <glyph glyph-name="M" unicode="M" horiz-adv-x="1923" 
d="M295 1434h248l418 -1049l411 1049h250l145 -1434h-225l-98 1075l-377 -960h-217l-377 960l-98 -1075h-223z" />
    <glyph glyph-name="N" unicode="N" horiz-adv-x="1558" 
d="M203 1434h215l719 -1053v1053h219v-1434h-213l-721 1053v-1053h-219v1434z" />
    <glyph glyph-name="O" unicode="O" horiz-adv-x="1400" 
d="M698 1270q-136 0 -206 -44t-102 -161t-32 -393t75 -392t265 -116t264 114q73 114 72 435q0 237 -30 353t-100 160q-69 44 -206 44zM672 1460q198 0 300 -30t174 -113q72 -84 98 -226t26 -378q0 -416 -124 -578t-444 -162t-445 163q-126 163 -126 577q0 307 54 467
t172 220q117 60 315 60z" />
    <glyph glyph-name="P" unicode="P" horiz-adv-x="1267" 
d="M203 1434h415q295 0 420 -102t125 -356q1 -253 -151 -371t-400 -118q-98 0 -184 17v-504h-225v1434zM428 1251v-565q94 -16 168 -16q342 0 342 286q0 162 -75 229t-245 66h-190z" />
    <glyph glyph-name="Q" unicode="Q" horiz-adv-x="1400" 
d="M698 1270q-136 0 -206 -44t-102 -161t-32 -393t75 -392t265 -116t264 114q73 114 72 435q0 237 -30 353t-100 160q-69 44 -206 44zM672 1460q198 0 300 -30t174 -113q72 -84 98 -226t26 -378q0 -350 -84 -516t-293 -207l213 -338h-256l-180 323q-301 10 -420 171
t-119 567q0 307 54 467t172 220q117 60 315 60z" />
    <glyph glyph-name="R" unicode="R" horiz-adv-x="1265" 
d="M428 1251v-508q102 -10 178 -10q160 -1 237 59t77 204t-72 200q-72 55 -238 55h-182zM428 0h-225v1434h407q276 0 410 -96t133 -343q0 -311 -252 -401l293 -594h-252l-262 553q-141 -9 -252 4v-557z" />
    <glyph glyph-name="S" unicode="S" horiz-adv-x="1206" 
d="M575 1278q-83 0 -148 -49t-65 -137t75 -154t181 -115t212 -104t180 -143q76 -88 75 -203q0 -195 -134 -297t-357 -103q-150 1 -283 57t-219 150l115 152q74 -80 178 -126t213 -46q110 0 180 48t70 132t-75 145t-180 111t-211 107t-180 151q-75 94 -75 215q0 191 137 291
t342 100t321 -112t122 -293l-213 -27q-20 178 -130 228q-48 22 -131 22z" />
    <glyph glyph-name="T" unicode="T" horiz-adv-x="1220" 
d="M55 1434h1110v-195h-442v-1239h-225v1239h-443v195z" />
    <glyph glyph-name="U" unicode="U" horiz-adv-x="1429" 
d="M184 1434h226v-953q0 -167 63 -243t245 -76t243 75t61 244v953h223v-957q0 -260 -118 -382q-117 -122 -411 -122t-413 126t-119 378v957z" />
    <glyph glyph-name="V" unicode="V" horiz-adv-x="1310" 
d="M39 1434h244l383 -1170l385 1170h221l-486 -1434h-251z" />
    <glyph glyph-name="W" unicode="W" horiz-adv-x="1988" 
d="M870 1434h250l322 -1162l272 1162h240l-365 -1434h-274l-322 1139l-321 -1139h-273l-364 1434h241l271 -1162z" />
    <glyph glyph-name="X" unicode="X" horiz-adv-x="1288" 
d="M53 1434h262l338 -537l353 537h241l-467 -701l482 -733h-263l-364 555l-365 -555h-241l479 723z" />
    <glyph glyph-name="Y" unicode="Y" horiz-adv-x="1222" 
d="M725 0h-225v565l-475 869h249l340 -641l344 641h242l-475 -869v-565z" />
    <glyph glyph-name="Z" unicode="Z" horiz-adv-x="1243" 
d="M115 1434h1046v-134l-782 -1112h764v-188h-1067v129l784 1116h-745v189z" />
    <glyph glyph-name="bracketleft" unicode="[" horiz-adv-x="704" 
d="M203 1536h434v-168h-229v-1669h229v-170h-434v2007z" />
    <glyph glyph-name="backslash" unicode="\" horiz-adv-x="823" 
d="M0 1434h207l571 -1434h-203z" />
    <glyph glyph-name="bracketright" unicode="]" horiz-adv-x="704" 
d="M68 1536h434v-2007h-434v170h229v1669h-229v168z" />
    <glyph glyph-name="asciicircum" unicode="^" horiz-adv-x="1196" 
d="M1110 719h-215l-297 498l-297 -498h-215l416 715h190z" />
    <glyph glyph-name="underscore" unicode="_" horiz-adv-x="1220" 
d="M1167 -27v-180h-1116v180h1116z" />
    <glyph glyph-name="grave" unicode="`" horiz-adv-x="1126" 
d="M225 1536h232l223 -324h-195z" />
    <glyph glyph-name="a" unicode="a" horiz-adv-x="1155" 
d="M733 774q0 86 -41 122t-169 36t-341 -64v183q207 65 407 65q201 0 285 -68t84 -221v-632l158 30l25 -151l-301 -76l-64 37l-12 45q-188 -106 -334 -106t-237 74q-92 75 -93 212q0 200 194 290q163 76 439 112v112zM733 238v284q-213 -25 -313 -79t-101 -158
q0 -66 43 -102t115 -36q111 1 256 91z" />
    <glyph glyph-name="b" unicode="b" horiz-adv-x="1228" 
d="M893 551q1 223 -61 306t-189 83q-47 0 -235 -31v-727q131 -33 215 -32q129 0 199 89t71 312zM182 1495h226v-428q238 41 324 41q173 0 286 -114q112 -114 110 -441q0 -580 -505 -580q-180 0 -441 78v1444z" />
    <glyph glyph-name="c" unicode="c" horiz-adv-x="1069" 
d="M971 729h-203q-16 211 -203 211q-92 0 -136 -25q-93 -53 -91 -372q0 -254 84 -330q41 -37 82 -49t98 -12q176 0 332 86l24 -168q-180 -96 -383 -96t-329 105q-146 121 -146 466q0 436 204 526q96 43 284 43t286 -104t97 -281z" />
    <glyph glyph-name="d" unicode="d" horiz-adv-x="1257" 
d="M503 -27q-169 0 -286 132q-117 133 -117 437t125 439t324 135q127 0 270 -51v430h225v-1315l166 25l19 -164l-322 -59l-43 34l-18 66q-174 -109 -343 -109zM586 936q-117 0 -183 -83t-65 -304q0 -373 235 -373q111 0 246 82v637q-152 41 -233 41z" />
    <glyph glyph-name="e" unicode="e" horiz-adv-x="1110" 
d="M786 657q0 163 -49 223t-166 60t-174 -56t-69 -227h458zM1006 518h-680q4 -228 99 -302t244 -66t310 86l27 -166q-188 -98 -405 -98t-351 115q-150 125 -150 453t118 452t352 124t334 -112q101 -112 102 -342v-144z" />
    <glyph glyph-name="f" unicode="f" horiz-adv-x="700" 
d="M211 1317q1 235 311 235q156 0 293 -51l-16 -166q-129 45 -223 45t-116 -18q-24 -18 -24 -64v-211h269v-167h-269v-920h-225v920h-170v167h170v230z" />
    <glyph glyph-name="g" unicode="g" horiz-adv-x="1218" 
d="M1044 -100q0 -184 -133 -272t-337 -87q-204 0 -406 62l27 188q189 -63 335 -63q291 0 289 170v139q-156 -63 -293 -64q-188 0 -307 130t-119 436q0 578 502 577q194 0 442 -76v-1140zM598 934q-260 0 -260 -395t258 -396q100 0 223 62v682q-121 47 -221 47z" />
    <glyph glyph-name="h" unicode="h" horiz-adv-x="1269" 
d="M182 1495h226v-442q258 63 360 63q156 0 249 -73t93 -232v-811h-225v739q0 188 -205 189q-74 0 -166 -26t-106 -30v-872h-226v1495z" />
    <glyph glyph-name="i" unicode="i" horiz-adv-x="591" 
d="M182 1468h226v-233h-226v233zM182 1087h226v-1087h-226v1087z" />
    <glyph glyph-name="j" unicode="j" horiz-adv-x="591" 
d="M184 1468h226v-233h-226v233zM410 1087v-1341q0 -104 -65 -154t-150 -51q-85 1 -173 17t-143 43l29 151q100 -39 172 -39q72 -1 88 15t16 61v1298h226z" />
    <glyph glyph-name="k" unicode="k" horiz-adv-x="1105" 
d="M410 0h-226v1495h226v-881l434 473h246l-385 -434l430 -653h-256l-340 512l-129 -133v-379z" />
    <glyph glyph-name="l" unicode="l" horiz-adv-x="679" 
d="M180 1495h226v-1257q0 -50 16 -66t72 -16t143 45l18 -166q-123 -61 -243 -61t-176 56q-55 56 -56 181v1284z" />
    <glyph glyph-name="m" unicode="m" horiz-adv-x="1906" 
d="M182 0v1036q250 80 484 80t340 -106q195 106 369 106t273 -75t99 -226v-815h-225v750q0 170 -195 170q-69 0 -141 -23t-109 -49v-848h-225v774q0 145 -213 146q-117 0 -231 -41v-879h-226z" />
    <glyph glyph-name="n" unicode="n" horiz-adv-x="1271" 
d="M182 0v1055q258 61 471 61q457 0 457 -338v-778h-223v725q0 190 -260 190q-68 0 -219 -22v-893h-226z" />
    <glyph glyph-name="o" unicode="o" horiz-adv-x="1171" 
d="M586 946q-72 0 -113 -11t-78 -51t-51 -123t-14 -237t30 -242q30 -89 81 -114t145 -25t144 25q110 55 110 348t-64 366q-34 40 -76 52t-114 12zM591 1116q130 0 213 -22q84 -22 148 -84q120 -113 119 -460q0 -347 -124 -466q-65 -61 -149 -86t-211 -25q-126 0 -209 22
q-194 51 -247 255q-31 115 -31 291t30 290q54 209 246 261q85 24 215 24z" />
    <glyph glyph-name="p" unicode="p" horiz-adv-x="1239" 
d="M899 552q0 216 -72 294t-206 78q-57 -1 -213 -19v-723q127 -27 213 -26q133 0 205 90t73 306zM1137 553q0 -580 -484 -580q-92 0 -245 29v-432h-226v1497q296 49 428 49t216 -24t159 -82q152 -121 152 -457z" />
    <glyph glyph-name="q" unicode="q" horiz-adv-x="1218" 
d="M595 930q-122 0 -191 -88t-68 -305q0 -391 258 -392q102 1 225 64v678q-102 43 -224 43zM819 -430v471q-150 -68 -293 -68q-190 0 -308 130t-118 436q0 578 504 577q188 0 440 -76v-1470h-225z" />
    <glyph glyph-name="r" unicode="r" horiz-adv-x="888" 
d="M184 0v1044q180 72 360 72t281 -49l-24 -186q-91 33 -197 33t-194 -25v-889h-226z" />
    <glyph glyph-name="s" unicode="s" horiz-adv-x="1009" 
d="M506 948q-80 0 -127 -33t-47 -92t58 -104t142 -83t168 -80t142 -111t59 -154q0 -147 -110 -233q-111 -85 -293 -85q-268 0 -424 156l88 141q139 -127 332 -127q82 0 132 33q50 34 50 98t-88 119t-192 97t-193 124q-88 82 -88 189q0 143 107 228q108 85 283 85t275 -94
t105 -234l-189 -20q-6 84 -58 132t-132 48z" />
    <glyph glyph-name="t" unicode="t" horiz-adv-x="813" 
d="M215 1370h219v-283h301l-28 -167h-273v-641q0 -117 107 -117q94 0 211 67l51 -153q-169 -102 -307 -102q-284 -1 -285 247v699h-164v167h168v283z" />
    <glyph glyph-name="u" unicode="u" horiz-adv-x="1177" 
d="M1020 334q0 -178 -125 -270t-308 -91q-183 -1 -308 91t-125 270v753h225v-743q0 -205 208 -205t208 205v743h225v-753z" />
    <glyph glyph-name="v" unicode="v" horiz-adv-x="1112" 
d="M14 1087h236q156 -422 317 -866l301 866h226l-414 -1087h-248z" />
    <glyph glyph-name="w" unicode="w" horiz-adv-x="1697" 
d="M735 1087h248l254 -821l221 821h225l-331 -1087h-238l-262 836l-268 -836h-232l-340 1087h238l227 -821z" />
    <glyph glyph-name="x" unicode="x" horiz-adv-x="1081" 
d="M33 1087h246l266 -397l270 397h238l-379 -532l381 -555h-252l-277 406l-280 -406h-230l383 545z" />
    <glyph glyph-name="y" unicode="y" horiz-adv-x="1189" 
d="M1022 1087v-1181q0 -188 -125 -276t-323 -89q-198 0 -416 62l26 184q203 -68 357 -68q256 0 256 183v145q-168 -67 -316 -67q-149 0 -237 82t-88 255v770h223v-753q0 -164 176 -164q119 0 242 59v858h225z" />
    <glyph glyph-name="z" unicode="z" horiz-adv-x="1052" 
d="M96 1087h871v-129l-600 -788h608v-170h-893v125l604 793h-590v169z" />
    <glyph glyph-name="braceleft" unicode="{" horiz-adv-x="770" 
d="M246 -211v520q0 137 -201 137v172q92 0 146 38t55 112v510q0 137 82 209t211 72t206 -31l-36 -158q-68 20 -129 21q-127 0 -127 -125v-512q0 -80 -47 -140t-132 -82q82 -12 130 -70t49 -138v-525q0 -125 127 -125q66 0 129 23l36 -158q-75 -33 -205 -33t-212 72t-82 211z
" />
    <glyph glyph-name="bar" unicode="|" horiz-adv-x="614" 
d="M203 1536h209v-2048h-209v2048z" />
    <glyph glyph-name="braceright" unicode="}" horiz-adv-x="770" 
d="M524 309v-520q0 -139 -82 -211t-212 -72t-205 33l36 158q63 -23 129 -23q127 0 127 125v525q1 80 49 138t130 70q-84 20 -131 80t-48 142v512q0 125 -127 125q-61 0 -129 -21l-36 158q75 31 205 31t212 -72t82 -209v-510q0 -74 54 -112t147 -38v-172q-201 0 -201 -137z
" />
    <glyph glyph-name="asciitilde" unicode="~" 
d="M393 811q74 0 220 -40q147 -40 189 -40t68 23t50 75l170 -61q-78 -211 -295 -211q-63 0 -205 40t-194 40q-50 1 -76 -23t-48 -77l-170 59q78 215 291 215z" />
    <glyph glyph-name="exclamdown" unicode="&#xa1;" horiz-adv-x="643" 
d="M438 -346h-237l12 1061h213zM438 864h-239v223h239v-223z" />
    <glyph glyph-name="cent" unicode="&#xa2;" 
d="M608 1083q-116 0 -181 -86t-65 -306t82 -307t242 -87t315 100l50 -157q-174 -111 -355 -121v-299h-180v307q-387 71 -387 567t387 553v289h180v-283q174 -13 262 -113t91 -247l-205 -21q-6 90 -62 150q-58 60 -174 61z" />
    <glyph glyph-name="sterling" unicode="&#xa3;" 
d="M680 1460q186 0 318 -116t141 -281l-209 -35q-8 75 -64 160q-56 84 -190 84q-233 0 -234 -248q0 -76 19 -242h495v-159h-483q16 -184 16 -209q0 -141 -100 -232h717v-182h-1036v143q92 35 145 108t53 139t-18 233h-219v159h207l-17 226q0 183 97 317q97 135 362 135z" />
    <glyph glyph-name="yen" unicode="&#xa5;" 
d="M1104 780v-155h-391v-625h-226v625h-395v155h314l-379 654h243l336 -603l332 603h238l-385 -654h313z" />
    <glyph glyph-name="brokenbar" unicode="&#xa6;" horiz-adv-x="614" 
d="M203 332h209v-844h-209v844zM203 1536h209v-803h-209v803z" />
    <glyph glyph-name="section" unicode="&#xa7;" horiz-adv-x="1257" 
d="M954 470q0 60 -70 117q-71 56 -163 93q-277 111 -387 223q-31 -37 -31 -105t70 -125q70 -58 161 -95q278 -113 390 -213q30 45 30 105zM1149 485q0 -156 -107 -243q14 -31 15 -74q0 -178 -131 -268t-338 -90q-281 0 -455 186l107 145q66 -73 158 -117t190 -44t167 43
t69 117t-73 128q-73 56 -177 100t-209 95q-104 51 -178 135q-73 84 -72 193q0 150 104 237q-12 37 -12 80q0 172 124 262t306 90q233 0 332 -113q98 -113 104 -251l-207 -29q-22 159 -118 205q-45 20 -119 20t-134 -44q-61 -44 -61 -121t74 -135t178 -104t210 -95t179 -129
q74 -80 74 -179z" />
    <glyph glyph-name="dieresis" unicode="&#xa8;" horiz-adv-x="1126" 
d="M653 1477h189v-201h-189v201zM285 1477h188v-201h-188v201z" />
    <glyph glyph-name="copyright" unicode="&#xa9;" horiz-adv-x="1757" 
d="M227 716q-1 -260 189 -442t460 -182t462 182t192 442t-192 442q-192 183 -460 183q-269 0 -460 -183t-191 -442zM102 717q0 309 228 526t549 217q323 0 549 -217t226 -526t-226 -527q-228 -218 -550 -217q-322 -1 -548 217q-228 218 -228 527zM887 1026q-105 0 -155 -71
t-50 -239t59 -238t173 -70t223 67l57 -121q-133 -88 -305 -88t-278 110q-105 110 -105 344t98 342t287 107q143 -1 222 -79t83 -193l-156 -23q-8 64 -44 108t-109 44z" />
    <glyph glyph-name="ordfeminine" unicode="&#xaa;" horiz-adv-x="847" 
d="M510 1233q0 96 -111 96q-57 0 -91 -32t-36 -89l-161 17q2 113 88 174t216 61t205 -57t74 -158v-375q0 -41 39 -41q33 0 82 35l12 -123q-55 -51 -149 -51q-49 0 -92 26t-47 72q-86 -98 -220 -98q-99 0 -167 51t-68 147t64 153q114 102 362 106v86zM510 1040q-60 0 -110 -8
t-95 -40t-45 -83q0 -82 91 -82t159 72v141z" />
    <glyph glyph-name="guillemotleft" unicode="&#xab;" horiz-adv-x="1245" 
d="M748 137h-238l-428 475l428 475h238l-414 -475zM1163 137h-237l-428 475l428 475h237l-413 -475z" />
    <glyph glyph-name="logicalnot" unicode="&#xac;" 
d="M141 772h912v-506h-199v324h-713v182z" />
    <glyph glyph-name="registered" unicode="&#xae;" horiz-adv-x="753" 
d="M123 1130q0 -110 73 -188t178 -78t179 78t74 188t-74 189q-74 78 -179 78t-178 -78t-73 -189zM51 1130q0 138 94 234q95 96 229 96t229 -96t95 -234t-95 -233q-95 -96 -229 -96t-229 96q-94 96 -94 233zM440 1208q0 35 -16 45t-64 11h-36v-111l36 -2q43 0 62 11
q18 11 18 46zM324 952h-62v365h98q76 0 108 -25q32 -26 32 -94t-62 -90l68 -156h-64l-63 144q-10 -2 -23 -2l-32 4v-146z" />
    <glyph glyph-name="macron" unicode="&#xaf;" horiz-adv-x="1126" 
d="M852 1296h-588v156h588v-156z" />
    <glyph glyph-name="macron" unicode="&#x2c9;" horiz-adv-x="1126" 
d="M852 1296h-588v156h588v-156z" />
    <glyph glyph-name="degree" unicode="&#xb0;" horiz-adv-x="720" 
d="M221 1204q0 -53 40 -90t97 -37t99 37q41 37 41 90t-41 90t-99 37t-97 -37q-40 -37 -40 -90zM357 948q-119 0 -199 74t-80 180q0 108 81 183t199 75t200 -75q83 -75 83 -181t-83 -181t-201 -75z" />
    <glyph glyph-name="plusminus" unicode="&#xb1;" 
d="M498 1098h196v-299h359v-181h-359v-301h-196v301h-357v181h357v299zM1053 180v-180h-912v180h912z" />
    <glyph glyph-name="twosuperior" unicode="&#xb2;" horiz-adv-x="720" 
d="M82 664v108l289 299q74 78 73 139q0 111 -106 111t-123 -121l-154 31q12 94 82 162q70 67 199 67t201 -60q71 -60 71 -178t-112 -233l-180 -182h313v-143h-553z" />
    <glyph glyph-name="threesuperior" unicode="&#xb3;" horiz-adv-x="720" 
d="M240 1120h98q57 0 88 30t31 75q0 100 -113 100t-131 -123l-147 33q10 94 80 160q71 65 201 65t203 -57t73 -170t-111 -160q135 -43 135 -186q0 -109 -79 -166t-210 -57q-193 0 -290 114l84 105q82 -88 202 -88t121 96q0 109 -139 108h-96v121z" />
    <glyph glyph-name="acute" unicode="&#xb4;" horiz-adv-x="1126" 
d="M655 1536h232l-260 -324h-197z" />
    <glyph glyph-name="mu" unicode="&#xb5;" horiz-adv-x="1202" 
d="M659 -27q-172 0 -266 88v-485l-225 -47v1558h225v-735q0 -202 215 -202t215 202v735h226v-751q0 -174 -109 -268t-281 -95z" />
    <glyph glyph-name="mu" unicode="&#x3bc;" horiz-adv-x="1202" 
d="M659 -27q-172 0 -266 88v-485l-225 -47v1558h225v-735q0 -202 215 -202t215 202v735h226v-751q0 -174 -109 -268t-281 -95z" />
    <glyph glyph-name="paragraph" unicode="&#xb6;" horiz-adv-x="1593" 
d="M784 1251h-129q-173 -1 -245 -67t-72 -228q0 -287 338 -286q65 0 108 6v575zM1389 1434v-1643h-185v1460h-233v-1460h-187v705q-43 -8 -125 -9q-247 0 -399 118t-152 359q0 242 133 356q132 114 414 114h734z" />
    <glyph glyph-name="periodcentered" unicode="&#xb7;" horiz-adv-x="528" 
d="M143 795h242v-224h-242v224z" />
    <glyph glyph-name="periodcentered" unicode="&#x2219;" horiz-adv-x="528" 
d="M143 795h242v-224h-242v224z" />
    <glyph glyph-name="cedilla" unicode="&#xb8;" horiz-adv-x="1126" 
d="M733 -176q0 -94 -67 -153q-68 -58 -174 -58q-170 0 -246 108l98 99q49 -55 113 -56q90 0 90 93q0 59 -53 143h184q55 -82 55 -176z" />
    <glyph glyph-name="onesuperior" unicode="&#xb9;" horiz-adv-x="720" 
d="M106 664v143h187v448l-184 -84v152l231 111h135v-627h168v-143h-537z" />
    <glyph glyph-name="ordmasculine" unicode="&#xba;" horiz-adv-x="847" 
d="M586 1068q0 144 -39 202t-124 57q-85 0 -125 -57q-40 -58 -40 -200t40 -200t125 -57q85 0 124 56q39 55 39 199zM427 1460q177 0 260 -93t83 -302q0 -387 -346 -387q-172 0 -260 93t-88 297t87 298t264 94z" />
    <glyph glyph-name="guillemotright" unicode="&#xbb;" horiz-adv-x="1247" 
d="M319 137h-237l414 475l-414 475h237l429 -475zM737 137h-237l413 475l-413 475h237l428 -475z" />
    <glyph glyph-name="onequarter" unicode="&#xbc;" horiz-adv-x="1675" 
d="M1260 1434h192l-1003 -1434h-189zM84 664v143h188v448l-184 -84v152l231 111h134v-627h170v-143h-539zM1335 305v277l-188 -277h188zM963 170v104l333 496h213v-465h99v-135h-99v-170h-174v170h-372z" />
    <glyph glyph-name="onehalf" unicode="&#xbd;" horiz-adv-x="1675" 
d="M1260 1434h192l-1003 -1434h-189zM1044 0v109l291 299q74 80 74 139q0 111 -109 110q-104 0 -120 -120l-154 30q12 94 82 162t199 68q129 -1 201 -61t73 -176q0 -116 -115 -234l-180 -183h313v-143h-555zM84 664v143h188v448l-184 -84v152l231 111h134v-627h170v-143
h-539z" />
    <glyph glyph-name="threequarters" unicode="&#xbe;" horiz-adv-x="1675" 
d="M225 1120h99q57 0 87 30t29 75q0 100 -114 100t-127 -123l-148 33q10 94 81 160q71 65 201 65t203 -57q72 -57 72 -170t-112 -160q135 -43 135 -186q0 -109 -79 -166t-208 -57q-190 0 -293 114l84 105q86 -88 206 -88t120 96q0 109 -139 108h-97v121zM1260 1434h192
l-1003 -1434h-189zM1335 305v277l-188 -277h188zM963 170v104l333 496h213v-465h99v-135h-99v-170h-174v170h-372z" />
    <glyph glyph-name="questiondown" unicode="&#xbf;" horiz-adv-x="974" 
d="M659 864h-239v223h239v-223zM430 715h219q0 -239 -85 -340q-38 -45 -110 -105t-97 -86q-64 -67 -64 -157q0 -91 60 -144q59 -53 161 -53t159 69q56 69 62 150l217 -41q-8 -162 -123 -272t-332 -109q-217 0 -331 108t-113 253q0 112 48 192t143 166q57 48 93 85
q35 38 41 47q5 9 18 31t17 39q3 16 10 48t7 119z" />
    <glyph glyph-name="Agrave" unicode="&#xc0;" horiz-adv-x="1216" 
d="M256 1882h231l224 -323h-195zM594 1212l-221 -675h442zM987 0l-119 360h-551l-116 -360h-213l489 1434h262l488 -1434h-240z" />
    <glyph glyph-name="Aacute" unicode="&#xc1;" horiz-adv-x="1216" 
d="M719 1882h231l-260 -323h-196zM594 1212l-221 -675h442zM987 0l-119 360h-551l-116 -360h-213l489 1434h262l488 -1434h-240z" />
    <glyph glyph-name="Acircumflex" unicode="&#xc2;" horiz-adv-x="1216" 
d="M608 1751l-129 -192h-184l211 323h205l211 -323h-191zM594 1212l-221 -675h442zM987 0l-119 360h-551l-116 -360h-213l489 1434h262l488 -1434h-240z" />
    <glyph glyph-name="Atilde" unicode="&#xc3;" horiz-adv-x="1216" 
d="M471 1831q51 0 134 -34t114 -34q68 0 90 76l135 -45q-57 -184 -217 -184q-41 0 -122 36t-111 35q-57 1 -84 -79l-136 45q51 184 197 184zM594 1212l-221 -675h442zM987 0l-119 360h-551l-116 -360h-213l489 1434h262l488 -1434h-240z" />
    <glyph glyph-name="Adieresis" unicode="&#xc4;" horiz-adv-x="1216" 
d="M698 1823h189v-201h-189v201zM330 1823h188v-201h-188v201zM594 1212l-221 -675h442zM987 0l-119 360h-551l-116 -360h-213l489 1434h262l488 -1434h-240z" />
    <glyph glyph-name="Aring" unicode="&#xc5;" horiz-adv-x="1216" 
d="M607 1796q-83 0 -83 -75t83 -75t83 76q0 74 -83 74zM389 1720q-1 78 61 129t156 51t158 -50q64 -52 63 -129q0 -77 -62 -128q-61 -51 -157 -51t-158 50t-61 128zM594 1212l-221 -675h442zM987 0l-119 360h-551l-116 -360h-213l489 1434h262l488 -1434h-240z" />
    <glyph glyph-name="AE" unicode="&#xc6;" horiz-adv-x="1918" 
d="M928 537v661l-408 -661h408zM1772 1434v-189h-619v-424h592v-178h-592v-455h649v-188h-874v360h-502l-227 -360h-232l885 1434h920z" />
    <glyph glyph-name="Ccedilla" unicode="&#xc7;" horiz-adv-x="1253" 
d="M676 1272q-188 0 -263 -123t-75 -429t100 -432t302 -126t374 98l37 -174q-158 -90 -346 -106q43 -72 43 -161t-67 -147t-160 -59q-188 0 -259 108l99 99q47 -55 112 -56q88 0 89 93q0 47 -39 120q-518 49 -519 742q0 393 140 567t438 174q227 0 347 -116t124 -306
l-217 -24q-12 118 -68 188t-192 70z" />
    <glyph glyph-name="Egrave" unicode="&#xc8;" 
d="M254 1882h231l224 -323h-195zM203 1434h844v-189h-619v-424h592v-178h-592v-455h649v-188h-874v1434z" />
    <glyph glyph-name="Eacute" unicode="&#xc9;" 
d="M700 1882h232l-260 -323h-197zM203 1434h844v-189h-619v-424h592v-178h-592v-455h649v-188h-874v1434z" />
    <glyph glyph-name="Ecircumflex" unicode="&#xca;" 
d="M596 1751l-129 -192h-184l211 323h204l211 -323h-190zM203 1434h844v-189h-619v-424h592v-178h-592v-455h649v-188h-874v1434z" />
    <glyph glyph-name="Edieresis" unicode="&#xcb;" 
d="M707 1823h188v-201h-188v201zM338 1823h188v-201h-188v201zM203 1434h844v-189h-619v-424h592v-178h-592v-455h649v-188h-874v1434z" />
    <glyph glyph-name="Igrave" unicode="&#xcc;" horiz-adv-x="630" 
d="M-37 1882h232l223 -323h-195zM203 1434h225v-1434h-225v1434z" />
    <glyph glyph-name="Iacute" unicode="&#xcd;" horiz-adv-x="630" 
d="M446 1882h232l-260 -323h-197zM203 1434h225v-1434h-225v1434z" />
    <glyph glyph-name="Icircumflex" unicode="&#xce;" horiz-adv-x="630" 
d="M315 1751l-129 -192h-184l211 323h205l211 -323h-191zM203 1434h225v-1434h-225v1434z" />
    <glyph glyph-name="Idieresis" unicode="&#xcf;" horiz-adv-x="630" 
d="M406 1823h188v-201h-188v201zM37 1823h188v-201h-188v201zM203 1434h225v-1434h-225v1434z" />
    <glyph glyph-name="Eth" unicode="&#xd0;" horiz-adv-x="1429" 
d="M434 1245v-434h344v-170h-344v-453h246q203 0 307 123q105 123 105 413t-102 406t-310 115h-246zM211 1434h485q313 0 471 -168t158 -529q0 -737 -635 -737h-479v641h-182v170h182v623z" />
    <glyph glyph-name="Ntilde" unicode="&#xd1;" horiz-adv-x="1558" 
d="M641 1831q51 0 134 -34t114 -34q68 0 90 76l135 -45q-57 -184 -217 -184q-41 0 -122 36t-111 35q-57 1 -84 -79l-136 45q51 184 197 184zM203 1434h215l719 -1053v1053h219v-1434h-213l-721 1053v-1053h-219v1434z" />
    <glyph glyph-name="Ograve" unicode="&#xd2;" horiz-adv-x="1400" 
d="M350 1882h232l223 -323h-195zM698 1270q-136 0 -206 -44t-102 -161t-32 -393t75 -392t265 -116t264 114q73 114 72 435q0 237 -30 353t-100 160q-69 44 -206 44zM672 1460q198 0 300 -30t174 -113q72 -84 98 -226t26 -378q0 -416 -124 -578t-444 -162t-445 163
q-126 163 -126 577q0 307 54 467t172 220q117 60 315 60z" />
    <glyph glyph-name="Oacute" unicode="&#xd3;" horiz-adv-x="1400" 
d="M838 1882h231l-260 -323h-197zM698 1270q-136 0 -206 -44t-102 -161t-32 -393t75 -392t265 -116t264 114q73 114 72 435q0 237 -30 353t-100 160q-69 44 -206 44zM672 1460q198 0 300 -30t174 -113q72 -84 98 -226t26 -378q0 -416 -124 -578t-444 -162t-445 163
q-126 163 -126 577q0 307 54 467t172 220q117 60 315 60z" />
    <glyph glyph-name="Ocircumflex" unicode="&#xd4;" horiz-adv-x="1400" 
d="M698 1751l-129 -192h-184l211 323h205l211 -323h-191zM698 1270q-136 0 -206 -44t-102 -161t-32 -393t75 -392t265 -116t264 114q73 114 72 435q0 237 -30 353t-100 160q-69 44 -206 44zM672 1460q198 0 300 -30t174 -113q72 -84 98 -226t26 -378q0 -416 -124 -578
t-444 -162t-445 163q-126 163 -126 577q0 307 54 467t172 220q117 60 315 60z" />
    <glyph glyph-name="Otilde" unicode="&#xd5;" horiz-adv-x="1400" 
d="M561 1831q51 0 134 -34t114 -34q68 0 90 76l135 -45q-57 -184 -217 -184q-41 0 -122 36t-111 35q-57 1 -84 -79l-135 45q51 184 196 184zM698 1270q-136 0 -206 -44t-102 -161t-32 -393t75 -392t265 -116t264 114q73 114 72 435q0 237 -30 353t-100 160q-69 44 -206 44z
M672 1460q198 0 300 -30t174 -113q72 -84 98 -226t26 -378q0 -416 -124 -578t-444 -162t-445 163q-126 163 -126 577q0 307 54 467t172 220q117 60 315 60z" />
    <glyph glyph-name="Odieresis" unicode="&#xd6;" horiz-adv-x="1400" 
d="M788 1823h189v-201h-189v201zM420 1823h188v-201h-188v201zM698 1270q-136 0 -206 -44t-102 -161t-32 -393t75 -392t265 -116t264 114q73 114 72 435q0 237 -30 353t-100 160q-69 44 -206 44zM672 1460q198 0 300 -30t174 -113q72 -84 98 -226t26 -378q0 -416 -124 -578
t-444 -162t-445 163q-126 163 -126 577q0 307 54 467t172 220q117 60 315 60z" />
    <glyph glyph-name="multiply" unicode="&#xd7;" 
d="M123 981l141 129l332 -301l332 301l141 -129l-332 -301l332 -301l-141 -129l-332 303l-330 -303l-141 129l332 301z" />
    <glyph glyph-name="Oslash" unicode="&#xd8;" horiz-adv-x="1400" 
d="M708 164q180 0 253 114t73 395q0 282 -37 390l-544 -813q75 -86 255 -86zM720 1270q-158 0 -230 -44t-102 -161t-30 -350t41 -344l549 819q-70 80 -228 80zM718 1460q242 0 357 -82l78 115l100 -55l-92 -138q109 -158 109 -580t-124 -585q-124 -162 -446 -162
q-246 0 -370 97l-88 -133l-92 63l98 150q-117 164 -117 563q0 307 54 467t172 220q119 60 361 60z" />
    <glyph glyph-name="Ugrave" unicode="&#xd9;" horiz-adv-x="1429" 
d="M373 1882h231l223 -323h-194zM184 1434h226v-953q0 -167 63 -243t245 -76t243 75t61 244v953h223v-957q0 -260 -118 -382q-117 -122 -411 -122t-413 126t-119 378v957z" />
    <glyph glyph-name="Uacute" unicode="&#xda;" horiz-adv-x="1429" 
d="M811 1882h231l-260 -323h-196zM184 1434h226v-953q0 -167 63 -243t245 -76t243 75t61 244v953h223v-957q0 -260 -118 -382q-117 -122 -411 -122t-413 126t-119 378v957z" />
    <glyph glyph-name="Ucircumflex" unicode="&#xdb;" horiz-adv-x="1429" 
d="M709 1751l-129 -192h-185l211 323h205l211 -323h-191zM184 1434h226v-953q0 -167 63 -243t245 -76t243 75t61 244v953h223v-957q0 -260 -118 -382q-117 -122 -411 -122t-413 126t-119 378v957z" />
    <glyph glyph-name="Udieresis" unicode="&#xdc;" horiz-adv-x="1429" 
d="M807 1823h188v-201h-188v201zM438 1823h189v-201h-189v201zM184 1434h226v-953q0 -167 63 -243t245 -76t243 75t61 244v953h223v-957q0 -260 -118 -382q-117 -122 -411 -122t-413 126t-119 378v957z" />
    <glyph glyph-name="Yacute" unicode="&#xdd;" horiz-adv-x="1222" 
d="M707 1882h231l-260 -323h-197zM725 0h-225v565l-475 869h249l340 -641l344 641h242l-475 -869v-565z" />
    <glyph glyph-name="Thorn" unicode="&#xde;" horiz-adv-x="1267" 
d="M428 1030v-565q94 -16 168 -16q342 0 342 286q0 162 -75 229t-245 66h-190zM203 1434h225v-222h190q289 0 417 -110t128 -355q1 -245 -151 -363t-400 -118q-98 0 -184 17v-283h-225v1434z" />
    <glyph glyph-name="germandbls" unicode="&#xdf;" horiz-adv-x="1255" 
d="M406 0h-226v1159q0 189 127 293t330 104t328 -89t125 -250q0 -67 -28 -131t-62 -105q-89 -107 -89 -189t115 -168q47 -36 94 -77t81 -107t34 -149q0 -137 -98 -227t-263 -91q-231 0 -366 146l96 141q102 -109 240 -108q78 0 122 36t44 96t-33 103t-79 77t-93 72
q-113 91 -113 232q0 86 87 212t87 207t-57 131t-167 50t-173 -56t-63 -165v-1147z" />
    <glyph glyph-name="agrave" unicode="&#xe0;" horiz-adv-x="1155" 
d="M274 1536h232l223 -324h-194zM733 774q0 86 -41 122t-169 36t-341 -64v183q207 65 407 65q201 0 285 -68t84 -221v-632l158 30l25 -151l-301 -76l-64 37l-12 45q-188 -106 -334 -106t-237 74q-92 75 -93 212q0 200 194 290q163 76 439 112v112zM733 238v284
q-213 -25 -313 -79t-101 -158q0 -66 43 -102t115 -36q111 1 256 91z" />
    <glyph glyph-name="aacute" unicode="&#xe1;" horiz-adv-x="1155" 
d="M688 1536h232l-261 -324h-196zM733 774q0 86 -41 122t-169 36t-341 -64v183q207 65 407 65q201 0 285 -68t84 -221v-632l158 30l25 -151l-301 -76l-64 37l-12 45q-188 -106 -334 -106t-237 74q-92 75 -93 212q0 200 194 290q163 76 439 112v112zM733 238v284
q-213 -25 -313 -79t-101 -158q0 -66 43 -102t115 -36q111 1 256 91z" />
    <glyph glyph-name="acircumflex" unicode="&#xe2;" horiz-adv-x="1155" 
d="M578 1405l-129 -193h-185l211 324h205l211 -324h-191zM733 774q0 86 -41 122t-169 36t-341 -64v183q207 65 407 65q201 0 285 -68t84 -221v-632l158 30l25 -151l-301 -76l-64 37l-12 45q-188 -106 -334 -106t-237 74q-92 75 -93 212q0 200 194 290q163 76 439 112v112z
M733 238v284q-213 -25 -313 -79t-101 -158q0 -66 43 -102t115 -36q111 1 256 91z" />
    <glyph glyph-name="atilde" unicode="&#xe3;" horiz-adv-x="1155" 
d="M688 1417q68 0 90 76l135 -45q-57 -184 -217 -184q-41 0 -122 36t-111 35q-57 0 -84 -80l-135 45q51 184 196 185q51 0 134 -34t114 -34zM733 774q0 86 -41 122t-169 36t-341 -64v183q207 65 407 65q201 0 285 -68t84 -221v-632l158 30l25 -151l-301 -76l-64 37l-12 45
q-188 -106 -334 -106t-237 74q-92 75 -93 212q0 200 194 290q163 76 439 112v112zM733 238v284q-213 -25 -313 -79t-101 -158q0 -66 43 -102t115 -36q111 1 256 91z" />
    <glyph glyph-name="adieresis" unicode="&#xe4;" horiz-adv-x="1155" 
d="M668 1477h188v-201h-188v201zM299 1477h188v-201h-188v201zM733 774q0 86 -41 122t-169 36t-341 -64v183q207 65 407 65q201 0 285 -68t84 -221v-632l158 30l25 -151l-301 -76l-64 37l-12 45q-188 -106 -334 -106t-237 74q-92 75 -93 212q0 200 194 290q163 76 439 112
v112zM733 238v284q-213 -25 -313 -79t-101 -158q0 -66 43 -102t115 -36q111 1 256 91z" />
    <glyph glyph-name="aring" unicode="&#xe5;" horiz-adv-x="1155" 
d="M576 1300q82 0 83 75q0 75 -83 75t-82 -76q0 -74 82 -74zM358 1374q0 78 62 129t155 51t157 -51t64 -128t-62 -128t-158 -51t-156 50q-62 50 -62 128zM733 774q0 86 -41 122t-169 36t-341 -64v183q207 65 407 65q201 0 285 -68t84 -221v-632l158 30l25 -151l-301 -76
l-64 37l-12 45q-188 -106 -334 -106t-237 74q-92 75 -93 212q0 200 194 290q163 76 439 112v112zM733 238v284q-213 -25 -313 -79t-101 -158q0 -66 43 -102t115 -36q111 1 256 91z" />
    <glyph glyph-name="ae" unicode="&#xe6;" horiz-adv-x="1714" 
d="M1393 657q0 283 -215 283q-114 0 -170 -66t-64 -217h449zM475 147q158 0 279 152q-20 82 -25 201h-24q-170 0 -278 -58t-108 -157q0 -66 43 -102t113 -36zM1610 520h-668q2 -205 80 -291t222 -86t312 113l37 -162q-201 -121 -391 -121q-272 0 -387 185
q-164 -184 -391 -185q-139 0 -231 73t-93 214q0 100 54 176t148 118q179 81 431 83v151q0 78 -51 118t-135 40q-83 0 -143 -49t-62 -133l-199 18q4 156 125 245t295 89q213 0 301 -125q106 125 322 125t320 -121q103 -121 104 -333v-142z" />
    <glyph glyph-name="ccedilla" unicode="&#xe7;" horiz-adv-x="1069" 
d="M971 729h-203q-6 93 -55 153t-145 60t-139 -26q-93 -55 -91 -373q0 -254 84 -330q41 -37 82 -49t98 -12q176 0 332 86l24 -168q-139 -72 -292 -90q41 -74 41 -162t-68 -146t-174 -59q-170 0 -246 108l98 99q49 -55 113 -56q90 0 90 93q0 51 -39 123q-176 18 -278 146
q-103 128 -103 389t54 387q53 126 150 170q96 44 284 44t286 -106t97 -281z" />
    <glyph glyph-name="egrave" unicode="&#xe8;" horiz-adv-x="1110" 
d="M227 1536h232l223 -324h-195zM786 657q0 163 -49 223t-166 60t-174 -56t-69 -227h458zM1006 518h-680q4 -228 99 -302t244 -66t310 86l27 -166q-188 -98 -405 -98t-351 115q-150 125 -150 453t118 452t352 124t334 -112q101 -112 102 -342v-144z" />
    <glyph glyph-name="eacute" unicode="&#xe9;" horiz-adv-x="1110" 
d="M676 1536h231l-260 -324h-196zM786 657q0 163 -49 223t-166 60t-174 -56t-69 -227h458zM1006 518h-680q4 -228 99 -302t244 -66t310 86l27 -166q-188 -98 -405 -98t-351 115q-150 125 -150 453t118 452t352 124t334 -112q101 -112 102 -342v-144z" />
    <glyph glyph-name="ecircumflex" unicode="&#xea;" horiz-adv-x="1110" 
d="M575 1405l-129 -193h-184l211 324h205l211 -324h-191zM786 657q0 163 -49 223t-166 60t-174 -56t-69 -227h458zM1006 518h-680q4 -228 99 -302t244 -66t310 86l27 -166q-188 -98 -405 -98t-351 115q-150 125 -150 453t118 452t352 124t334 -112q101 -112 102 -342v-144z
" />
    <glyph glyph-name="edieresis" unicode="&#xeb;" horiz-adv-x="1110" 
d="M645 1477h189v-201h-189v201zM276 1477h189v-201h-189v201zM786 657q0 163 -49 223t-166 60t-174 -56t-69 -227h458zM1006 518h-680q4 -228 99 -302t244 -66t310 86l27 -166q-188 -98 -405 -98t-351 115q-150 125 -150 453t118 452t352 124t334 -112q101 -112 102 -342
v-144z" />
    <glyph glyph-name="igrave" unicode="&#xec;" horiz-adv-x="591" 
d="M-61 1536h231l223 -324h-194zM182 1087h226v-1087h-226v1087z" />
    <glyph glyph-name="iacute" unicode="&#xed;" horiz-adv-x="591" 
d="M422 1536h231l-260 -324h-196zM182 1087h226v-1087h-226v1087z" />
    <glyph glyph-name="icircumflex" unicode="&#xee;" horiz-adv-x="591" 
d="M295 1405l-129 -193h-184l211 324h204l211 -324h-190zM182 1087h226v-1087h-226v1087z" />
    <glyph glyph-name="idieresis" unicode="&#xef;" horiz-adv-x="591" 
d="M385 1477h188v-201h-188v201zM16 1477h189v-201h-189v201zM182 1087h226v-1087h-226v1087z" />
    <glyph glyph-name="eth" unicode="&#xf0;" horiz-adv-x="1171" 
d="M586 944q-132 0 -194 -89t-62 -311t61 -312t195 -89q134 0 193 88q61 87 61 311t-60 313t-194 89zM100 542q0 296 122 435t366 139q90 0 160 -43q-43 92 -115 191l-348 -47v112l274 39q-51 63 -129 141l213 27q86 -86 127 -141l258 39v-115l-184 -27q225 -337 227 -743
q0 -285 -123 -430q-122 -145 -362 -145t-363 136t-123 432z" />
    <glyph glyph-name="ntilde" unicode="&#xf1;" horiz-adv-x="1271" 
d="M745 1417q68 0 91 76l135 -45q-57 -184 -217 -184q-41 0 -122 36t-112 35q-57 0 -84 -80l-135 45q51 184 197 185q51 0 134 -34t113 -34zM182 0v1055q258 61 471 61q457 0 457 -338v-778h-223v725q0 190 -260 190q-68 0 -219 -22v-893h-226z" />
    <glyph glyph-name="ograve" unicode="&#xf2;" horiz-adv-x="1171" 
d="M252 1536h231l224 -324h-195zM586 946q-72 0 -113 -11t-78 -51t-51 -123t-14 -237t30 -242q30 -89 81 -114t145 -25t144 25q110 55 110 348t-64 366q-34 40 -76 52t-114 12zM591 1116q130 0 213 -22q84 -22 148 -84q120 -113 119 -460q0 -347 -124 -466q-65 -61 -149 -86
t-211 -25q-126 0 -209 22q-194 51 -247 255q-31 115 -31 291t30 290q54 209 246 261q85 24 215 24z" />
    <glyph glyph-name="oacute" unicode="&#xf3;" horiz-adv-x="1171" 
d="M684 1536h231l-260 -324h-196zM586 946q-72 0 -113 -11t-78 -51t-51 -123t-14 -237t30 -242q30 -89 81 -114t145 -25t144 25q110 55 110 348t-64 366q-34 40 -76 52t-114 12zM591 1116q130 0 213 -22q84 -22 148 -84q120 -113 119 -460q0 -347 -124 -466
q-65 -61 -149 -86t-211 -25q-126 0 -209 22q-194 51 -247 255q-31 115 -31 291t30 290q54 209 246 261q85 24 215 24z" />
    <glyph glyph-name="ocircumflex" unicode="&#xf4;" horiz-adv-x="1171" 
d="M586 1405l-129 -193h-185l211 324h205l211 -324h-190zM586 946q-72 0 -113 -11t-78 -51t-51 -123t-14 -237t30 -242q30 -89 81 -114t145 -25t144 25q110 55 110 348t-64 366q-34 40 -76 52t-114 12zM591 1116q130 0 213 -22q84 -22 148 -84q120 -113 119 -460
q0 -347 -124 -466q-65 -61 -149 -86t-211 -25q-126 0 -209 22q-194 51 -247 255q-31 115 -31 291t30 290q54 209 246 261q85 24 215 24z" />
    <glyph glyph-name="otilde" unicode="&#xf5;" horiz-adv-x="1171" 
d="M696 1417q68 0 90 76l136 -45q-57 -184 -217 -184q-41 0 -122 36t-112 35q-57 0 -84 -80l-135 45q51 184 197 185q51 0 134 -34t113 -34zM586 946q-72 0 -113 -11t-78 -51t-51 -123t-14 -237t30 -242q30 -89 81 -114t145 -25t144 25q110 55 110 348t-64 366
q-34 40 -76 52t-114 12zM591 1116q130 0 213 -22q84 -22 148 -84q120 -113 119 -460q0 -347 -124 -466q-65 -61 -149 -86t-211 -25q-126 0 -209 22q-194 51 -247 255q-31 115 -31 291t30 290q54 209 246 261q85 24 215 24z" />
    <glyph glyph-name="odieresis" unicode="&#xf6;" horiz-adv-x="1171" 
d="M676 1477h188v-201h-188v201zM307 1477h189v-201h-189v201zM586 946q-72 0 -113 -11t-78 -51t-51 -123t-14 -237t30 -242q30 -89 81 -114t145 -25t144 25q110 55 110 348t-64 366q-34 40 -76 52t-114 12zM591 1116q130 0 213 -22q84 -22 148 -84q120 -113 119 -460
q0 -347 -124 -466q-65 -61 -149 -86t-211 -25q-126 0 -209 22q-194 51 -247 255q-31 115 -31 291t30 290q54 209 246 261q85 24 215 24z" />
    <glyph glyph-name="divide" unicode="&#xf7;" 
d="M485 1124h228v-202h-228v202zM485 438h228v-202h-228v202zM1053 772v-182h-912v182h912z" />
    <glyph glyph-name="oslash" unicode="&#xf8;" horiz-adv-x="1171" 
d="M586 946q-72 0 -113 -11t-78 -51t-51 -123t-14 -229t22 -206l430 544q-49 76 -196 76zM840 522q0 154 -21 228l-428 -539q51 -68 195 -68q94 0 144 25t80 113q30 87 30 241zM588 1116q227 0 332 -80l88 107l90 -56l-107 -131q80 -127 80 -440t-124 -432q-65 -61 -149 -86
t-212 -25q-225 0 -330 78l-90 -112l-84 57l104 131q-86 127 -86 416q0 346 125 465q66 60 151 84t212 24z" />
    <glyph glyph-name="ugrave" unicode="&#xf9;" horiz-adv-x="1177" 
d="M242 1536h231l223 -324h-194zM1020 334q0 -178 -125 -270t-308 -91q-183 -1 -308 91t-125 270v753h225v-743q0 -205 208 -205t208 205v743h225v-753z" />
    <glyph glyph-name="uacute" unicode="&#xfa;" horiz-adv-x="1177" 
d="M702 1536h232l-260 -324h-197zM1020 334q0 -178 -125 -270t-308 -91q-183 -1 -308 91t-125 270v753h225v-743q0 -205 208 -205t208 205v743h225v-753z" />
    <glyph glyph-name="ucircumflex" unicode="&#xfb;" horiz-adv-x="1177" 
d="M590 1405l-129 -193h-185l211 324h205l211 -324h-190zM1020 334q0 -178 -125 -270t-308 -91q-183 -1 -308 91t-125 270v753h225v-743q0 -205 208 -205t208 205v743h225v-753z" />
    <glyph glyph-name="udieresis" unicode="&#xfc;" horiz-adv-x="1177" 
d="M684 1477h188v-201h-188v201zM315 1477h189v-201h-189v201zM1020 334q0 -178 -125 -270t-308 -91q-183 -1 -308 91t-125 270v753h225v-743q0 -205 208 -205t208 205v743h225v-753z" />
    <glyph glyph-name="yacute" unicode="&#xfd;" horiz-adv-x="1189" 
d="M684 1536h231l-260 -324h-196zM1022 1087v-1181q0 -188 -125 -276t-323 -89q-198 0 -416 62l26 184q203 -68 357 -68q256 0 256 183v145q-168 -67 -316 -67q-149 0 -237 82t-88 255v770h223v-753q0 -164 176 -164q119 0 242 59v858h225z" />
    <glyph glyph-name="thorn" unicode="&#xfe;" horiz-adv-x="1239" 
d="M899 553q0 377 -233 377q-108 0 -258 -84v-631q114 -65 230 -65t188 96t73 307zM653 -27q-117 0 -245 58v-455l-226 -47v1966l226 41v-535q162 115 328 115t284 -119q117 -119 117 -431q-1 -312 -133 -452t-351 -141z" />
    <glyph glyph-name="ydieresis" unicode="&#xff;" horiz-adv-x="1189" 
d="M684 1477h188v-201h-188v201zM315 1477h189v-201h-189v201zM1022 1087v-1181q0 -188 -125 -276t-323 -89q-198 0 -416 62l26 184q203 -68 357 -68q256 0 256 183v145q-168 -67 -316 -67q-149 0 -237 82t-88 255v770h223v-753q0 -164 176 -164q119 0 242 59v858h225z" />
    <glyph glyph-name="Amacron" unicode="&#x100;" horiz-adv-x="1214" 
d="M899 1642h-588v156h588v-156zM594 1212l-221 -675h442zM987 0l-119 360h-551l-116 -360h-213l489 1434h262l488 -1434h-240z" />
    <glyph glyph-name="amacron" unicode="&#x101;" horiz-adv-x="1155" 
d="M868 1296h-587v156h587v-156zM733 774q0 86 -41 122t-169 36t-341 -64v183q207 65 407 65q201 0 285 -68t84 -221v-632l158 30l25 -151l-301 -76l-64 37l-12 45q-188 -106 -334 -106t-237 74q-92 75 -93 212q0 200 194 290q163 76 439 112v112zM733 238v284
q-213 -25 -313 -79t-101 -158q0 -66 43 -102t115 -36q111 1 256 91z" />
    <glyph glyph-name="Abreve" unicode="&#x102;" horiz-adv-x="1214" 
d="M606 1589q-135 0 -214 69t-91 195h158q20 -121 147 -121t148 121h157q-12 -127 -91 -195t-214 -69zM594 1212l-221 -675h442zM987 0l-119 360h-551l-116 -360h-213l489 1434h262l488 -1434h-240z" />
    <glyph glyph-name="abreve" unicode="&#x103;" horiz-adv-x="1155" 
d="M575 1243q-135 0 -214 69t-91 195h158q20 -121 147 -121t148 121h158q-11 -127 -91 -195t-215 -69zM733 774q0 86 -41 122t-169 36t-341 -64v183q207 65 407 65q201 0 285 -68t84 -221v-632l158 30l25 -151l-301 -76l-64 37l-12 45q-188 -106 -334 -106t-237 74
q-92 75 -93 212q0 200 194 290q163 76 439 112v112zM733 238v284q-213 -25 -313 -79t-101 -158q0 -66 43 -102t115 -36q111 1 256 91z" />
    <glyph glyph-name="Aogonek" unicode="&#x104;" horiz-adv-x="1214" 
d="M594 1214l-221 -677h442zM1100 -258q47 0 82 33l63 -111q-72 -72 -175 -72q-102 0 -160 46t-58 124q0 76 42 140t93 98l-119 362h-551l-116 -362h-213l489 1434h262l488 -1434q-82 -31 -136 -84t-55 -106q0 -68 64 -68z" />
    <glyph glyph-name="aogonek" unicode="&#x105;" horiz-adv-x="1155" 
d="M733 238v284q-213 -25 -313 -79t-101 -158q0 -66 43 -102t115 -36q111 1 256 91zM819 -190q0 -68 64 -68q47 0 80 33l63 -111q-72 -72 -174 -72t-160 46t-59 129q0 82 40 145t105 96l-14 72q-188 -106 -334 -106t-237 74q-92 75 -93 212q0 200 194 290q163 76 439 112
v112q0 86 -41 124t-167 38t-343 -68v183q207 65 407 65q199 0 283 -68t84 -223v-667l158 35l27 -150l-197 -59q-59 -18 -92 -68t-33 -106z" />
    <glyph glyph-name="Cacute" unicode="&#x106;" horiz-adv-x="1234" 
d="M762 1882h231l-260 -323h-196zM658 1272q-134 0 -197 -41t-93 -157t-30 -326t20 -321q20 -112 72 -170q52 -59 118 -77q65 -18 173 -18q203 0 385 104l24 -180q-193 -113 -436 -113q-121 -1 -207 17q-201 41 -284 195q-99 183 -99 534q0 451 140 602q74 80 170 110
t243 29q227 0 342 -116t119 -306l-203 -24q-12 122 -67 190q-56 68 -190 68z" />
    <glyph glyph-name="cacute" unicode="&#x107;" horiz-adv-x="1069" 
d="M651 1536h232l-260 -324h-197zM971 729h-203q-16 211 -203 211q-92 0 -136 -25q-93 -53 -91 -372q0 -254 84 -330q41 -37 82 -49t98 -12q176 0 332 86l24 -168q-180 -96 -383 -96t-329 105q-146 121 -146 466q0 436 204 526q96 43 284 43t286 -104t97 -281z" />
    <glyph glyph-name="Ccircumflex" unicode="&#x108;" horiz-adv-x="1234" 
d="M637 1751l-129 -192h-184l211 323h204l211 -323h-190zM658 1272q-134 0 -197 -41t-93 -157t-30 -326t20 -321q20 -112 72 -170q52 -59 118 -77q65 -18 173 -18q203 0 385 104l24 -180q-193 -113 -436 -113q-121 -1 -207 17q-201 41 -284 195q-99 183 -99 534
q0 451 140 602q74 80 170 110t243 29q227 0 342 -116t119 -306l-203 -24q-12 122 -67 190q-56 68 -190 68z" />
    <glyph glyph-name="ccircumflex" unicode="&#x109;" horiz-adv-x="1069" 
d="M537 1405l-129 -193h-185l211 324h205l211 -324h-191zM971 729h-203q-16 211 -203 211q-92 0 -136 -25q-93 -53 -91 -372q0 -254 84 -330q41 -37 82 -49t98 -12q176 0 332 86l24 -168q-180 -96 -383 -96t-329 105q-146 121 -146 466q0 436 204 526q96 43 284 43t286 -104
t97 -281z" />
    <glyph glyph-name="Cdotaccent" unicode="&#x10a;" horiz-adv-x="1234" 
d="M518 1823h195v-203h-195v203zM658 1272q-134 0 -197 -41t-93 -157t-30 -326t20 -321q20 -112 72 -170q52 -59 118 -77q65 -18 173 -18q203 0 385 104l24 -180q-193 -113 -436 -113q-121 -1 -207 17q-201 41 -284 195q-99 183 -99 534q0 451 140 602q74 80 170 110t243 29
q227 0 342 -116t119 -306l-203 -24q-12 122 -67 190q-56 68 -190 68z" />
    <glyph glyph-name="cdotaccent" unicode="&#x10b;" horiz-adv-x="1069" 
d="M444 1477h195v-203h-195v203zM971 729h-203q-16 211 -203 211q-92 0 -136 -25q-93 -53 -91 -372q0 -254 84 -330q41 -37 82 -49t98 -12q176 0 332 86l24 -168q-180 -96 -383 -96t-329 105q-146 121 -146 466q0 436 204 526q96 43 284 43t286 -104t97 -281z" />
    <glyph glyph-name="Ccaron" unicode="&#x10c;" horiz-adv-x="1234" 
d="M487 1882l129 -192l123 192h191l-211 -323h-205l-211 323h184zM658 1272q-134 0 -197 -41t-93 -157t-30 -326t20 -321q20 -112 72 -170q52 -59 118 -77q65 -18 173 -18q203 0 385 104l24 -180q-193 -113 -436 -113q-121 -1 -207 17q-201 41 -284 195q-99 183 -99 534
q0 451 140 602q74 80 170 110t243 29q227 0 342 -116t119 -306l-203 -24q-12 122 -67 190q-56 68 -190 68z" />
    <glyph glyph-name="ccaron" unicode="&#x10d;" horiz-adv-x="1069" 
d="M408 1536l129 -193l122 193h191l-211 -324h-205l-211 324h185zM971 729h-203q-16 211 -203 211q-92 0 -136 -25q-93 -53 -91 -372q0 -254 84 -330q41 -37 82 -49t98 -12q176 0 332 86l24 -168q-180 -96 -383 -96t-329 105q-146 121 -146 466q0 436 204 526q96 43 284 43
t286 -104t97 -281z" />
    <glyph glyph-name="Dcaron" unicode="&#x10e;" horiz-adv-x="1413" 
d="M522 1882l129 -192l123 192h191l-211 -323h-205l-211 323h184zM428 1245v-1057h205q92 0 147 8t112 40q56 31 86 89q66 128 66 410q0 171 -24 275t-81 155q-58 51 -125 65t-181 15h-205zM203 1434h452q164 0 274 -30q109 -30 193 -105q162 -145 162 -562
q0 -511 -244 -652q-82 -49 -174 -67t-217 -18h-446v1434z" />
    <glyph glyph-name="dcaron" unicode="&#x10f;" horiz-adv-x="1327" 
d="M503 -27q-169 0 -286 132q-117 133 -117 437t125 439t324 135q127 0 270 -51v430h225v-1315l166 25l19 -164l-322 -59l-43 34l-18 66q-174 -109 -343 -109zM586 936q-117 0 -183 -83t-65 -304q0 -373 235 -373q111 0 246 82v637q-152 41 -233 41zM1143 1434h190l-63 -486
h-150z" />
    <glyph glyph-name="Dcroat" unicode="&#x110;" horiz-adv-x="1419" 
d="M711 637h-285v-451h219q86 0 140 8q144 23 200 129q70 131 71 402t-67 390q-31 54 -87 84t-112 38t-145 8h-219v-442h285v-166zM203 1434h407q142 0 240 -16q228 -36 327 -180q111 -164 111 -512q0 -347 -118 -524q-99 -149 -331 -187q-97 -15 -235 -15h-401v637h-111
v166h111v631z" />
    <glyph glyph-name="dcroat" unicode="&#x111;" horiz-adv-x="1257" 
d="M584 936q-119 0 -184 -84q-64 -84 -64 -288t61 -300t168 -96t254 90v635q-172 43 -235 43zM505 -27q-175 0 -290 133q-115 132 -115 430t116 439t306 141q129 0 297 -53v174h-268v119h268v139h225v-139h107v-119h-107v-1077l166 26l17 -161l-312 -52l-47 33l-18 76
q-170 -109 -345 -109z" />
    <glyph glyph-name="Emacron" unicode="&#x112;" 
d="M889 1642h-588v156h588v-156zM203 1434h844v-189h-619v-424h592v-178h-592v-455h649v-188h-874v1434z" />
    <glyph glyph-name="emacron" unicode="&#x113;" horiz-adv-x="1110" 
d="M850 1296h-588v156h588v-156zM786 657q0 163 -49 223t-166 60t-174 -56t-69 -227h458zM1006 518h-680q4 -228 99 -302t244 -66t310 86l27 -166q-188 -98 -405 -98t-351 115q-150 125 -150 453t118 452t352 124t334 -112q101 -112 102 -342v-144z" />
    <glyph glyph-name="Ebreve" unicode="&#x114;" 
d="M596 1589q-135 0 -214 69t-91 195h158q20 -121 147 -121t147 121h158q-12 -127 -91 -195t-214 -69zM203 1434h844v-189h-619v-424h592v-178h-592v-455h649v-188h-874v1434z" />
    <glyph glyph-name="ebreve" unicode="&#x115;" horiz-adv-x="1110" 
d="M557 1243q-135 0 -214 69t-91 195h158q20 -121 147 -121t148 121h157q-12 -127 -91 -195t-214 -69zM786 657q0 163 -49 223t-166 60t-174 -56t-69 -227h458zM1006 518h-680q4 -228 99 -302t244 -66t310 86l27 -166q-188 -98 -405 -98t-351 115q-150 125 -150 453t118 452
t352 124t334 -112q101 -112 102 -342v-144z" />
    <glyph glyph-name="Edotaccent" unicode="&#x116;" 
d="M498 1823h194v-203h-194v203zM203 1434h844v-189h-619v-424h592v-178h-592v-455h649v-188h-874v1434z" />
    <glyph glyph-name="edotaccent" unicode="&#x117;" horiz-adv-x="1110" 
d="M459 1477h194v-203h-194v203zM786 657q0 163 -49 223t-166 60t-174 -56t-69 -227h458zM1006 518h-680q4 -228 99 -302t244 -66t310 86l27 -166q-188 -98 -405 -98t-351 115q-150 125 -150 453t118 452t352 124t334 -112q101 -112 102 -342v-144z" />
    <glyph glyph-name="Eogonek" unicode="&#x118;" 
d="M1044 1434v-189h-618v-426h592v-176h-592v-457h649v-186q-59 -33 -105 -85t-46 -103q0 -70 63 -70q35 0 68 22l6 -69q4 -47 8 -70q-53 -31 -132 -31t-136 41t-57 115t38 148q39 74 92 102h-671v1434h841z" />
    <glyph glyph-name="eogonek" unicode="&#x119;" horiz-adv-x="1110" 
d="M100 543q0 325 118 449t350 124t334 -114q101 -114 102 -343v-141h-680q4 -213 85 -293t235 -80t333 88q18 -119 27 -163q-211 -143 -211 -258q0 -70 63 -70q43 0 80 33l18 -144q-66 -43 -154 -43t-143 42q-53 42 -53 116t47 145q48 70 105 103q-190 -46 -356 5
q-195 61 -262 263q-38 115 -38 281zM786 657q0 163 -50 225t-165 62t-174 -58t-71 -229h460z" />
    <glyph glyph-name="Ecaron" unicode="&#x11a;" 
d="M467 1882l129 -192l123 192h190l-211 -323h-204l-211 323h184zM203 1434h844v-189h-619v-424h592v-178h-592v-455h649v-188h-874v1434z" />
    <glyph glyph-name="ecaron" unicode="&#x11b;" horiz-adv-x="1110" 
d="M428 1536l129 -193l123 193h190l-211 -324h-204l-211 324h184zM786 657q0 163 -49 223t-166 60t-174 -56t-69 -227h458zM1006 518h-680q4 -228 99 -302t244 -66t310 86l27 -166q-188 -98 -405 -98t-351 115q-150 125 -150 453t118 452t352 124t334 -112
q101 -112 102 -342v-144z" />
    <glyph glyph-name="Gcircumflex" unicode="&#x11c;" horiz-adv-x="1458" 
d="M727 1751l-129 -192h-184l211 323h204l211 -323h-190zM1083 92q-159 -119 -395 -119q-128 0 -228 28t-186 105q-170 154 -170 627q0 320 78 468q41 79 93 131q128 128 481 128q502 0 518 -422l-215 -24q-13 122 -77 190t-234 68q-113 0 -180 -16t-122 -71
q-54 -54 -78 -163t-24 -291q0 -364 102 -474q55 -59 121 -77t174 -18q174 0 324 110v314h-332v178h559v-764h-209v92z" />
    <glyph glyph-name="gcircumflex" unicode="&#x11d;" horiz-adv-x="1218" 
d="M608 1405l-129 -193h-184l211 324h205l211 -324h-191zM1044 -100q0 -184 -133 -272t-337 -87q-204 0 -406 62l27 188q189 -63 335 -63q291 0 289 170v139q-156 -63 -293 -64q-188 0 -307 130t-119 436q0 578 502 577q194 0 442 -76v-1140zM598 934q-260 0 -260 -395
t258 -396q100 0 223 62v682q-121 47 -221 47z" />
    <glyph glyph-name="Gbreve" unicode="&#x11e;" horiz-adv-x="1458" 
d="M727 1589q-135 0 -214 69t-91 195h158q20 -121 147 -121t147 121h158q-12 -127 -91 -195t-214 -69zM1083 92q-159 -119 -395 -119q-128 0 -228 28t-186 105q-170 154 -170 627q0 320 78 468q41 79 93 131q128 128 481 128q502 0 518 -422l-215 -24q-13 122 -77 190
t-234 68q-113 0 -180 -16t-122 -71q-54 -54 -78 -163t-24 -291q0 -364 102 -474q55 -59 121 -77t174 -18q174 0 324 110v314h-332v178h559v-764h-209v92z" />
    <glyph glyph-name="gbreve" unicode="&#x11f;" horiz-adv-x="1218" 
d="M608 1243q-135 0 -214 69t-91 195h158q20 -121 147 -121t148 121h157q-12 -127 -91 -195t-214 -69zM1044 -100q0 -184 -133 -272t-337 -87q-204 0 -406 62l27 188q189 -63 335 -63q291 0 289 170v139q-156 -63 -293 -64q-188 0 -307 130t-119 436q0 578 502 577
q194 0 442 -76v-1140zM598 934q-260 0 -260 -395t258 -396q100 0 223 62v682q-121 47 -221 47z" />
    <glyph glyph-name="Gdotaccent" unicode="&#x120;" horiz-adv-x="1458" 
d="M631 1823h194v-203h-194v203zM1083 92q-159 -119 -395 -119q-128 0 -228 28t-186 105q-170 154 -170 627q0 320 78 468q41 79 93 131q128 128 481 128q502 0 518 -422l-215 -24q-13 122 -77 190t-234 68q-113 0 -180 -16t-122 -71q-54 -54 -78 -163t-24 -291
q0 -364 102 -474q55 -59 121 -77t174 -18q174 0 324 110v314h-332v178h559v-764h-209v92z" />
    <glyph glyph-name="gdotaccent" unicode="&#x121;" horiz-adv-x="1218" 
d="M510 1477h195v-203h-195v203zM1044 -100q0 -184 -133 -272t-337 -87q-204 0 -406 62l27 188q189 -63 335 -63q291 0 289 170v139q-156 -63 -293 -64q-188 0 -307 130t-119 436q0 578 502 577q194 0 442 -76v-1140zM598 934q-260 0 -260 -395t258 -396q100 0 223 62v682
q-121 47 -221 47z" />
    <glyph glyph-name="Gcommaaccent" unicode="&#x122;" horiz-adv-x="1458" 
d="M1083 92q-159 -119 -395 -119q-128 0 -228 28t-186 105q-170 154 -170 627q0 320 78 468q41 79 93 131q128 128 481 128q502 0 518 -422l-215 -24q-13 122 -77 190t-234 68q-113 0 -180 -16t-122 -71q-54 -54 -78 -163t-24 -291q0 -364 102 -474q55 -59 121 -77t174 -18
q174 0 324 110v314h-332v178h559v-764h-209v92zM563 -84h238l-150 -346h-190z" />
    <glyph glyph-name="gcommaaccent" unicode="&#x123;" horiz-adv-x="1218" 
d="M1044 -100q0 -184 -133 -272t-337 -87q-204 0 -406 62l27 188q189 -63 335 -63q291 0 289 170v139q-156 -63 -293 -64q-188 0 -307 130t-119 436q0 578 502 577q194 0 442 -76v-1140zM598 934q-260 0 -260 -395t258 -396q100 0 223 62v682q-121 47 -221 47zM737 1204
h-237l149 346h191z" />
    <glyph glyph-name="Hcircumflex" unicode="&#x124;" horiz-adv-x="1523" 
d="M760 1751l-129 -192h-185l211 323h205l211 -323h-190zM203 1434h225v-607h666v607h227v-1434h-227v631h-666v-631h-225v1434z" />
    <glyph glyph-name="hcircumflex" unicode="&#x125;" horiz-adv-x="1269" 
d="M297 1743l-129 -193h-184l211 324h204l211 -324h-190zM182 1495h226v-442q258 63 360 63q156 0 249 -73t93 -232v-811h-225v739q0 188 -205 189q-74 0 -166 -26t-106 -30v-872h-226v1495z" />
    <glyph glyph-name="Hbar" unicode="&#x126;" horiz-adv-x="1523" 
d="M426 825h668v248h-668v-248zM203 1434h223v-242h668v242h225v-242h108v-119h-108v-1073h-225v629h-668v-629h-223v1073h-109v119h109v242z" />
    <glyph glyph-name="hbar" unicode="&#x127;" horiz-adv-x="1269" 
d="M741 1237h-333v-184q236 63 372 63t232 -74t96 -233v-809h-223v739q1 97 -57 143t-134 46t-286 -51v-877h-226v1237h-133v111h133v147h226v-147h333v-111z" />
    <glyph glyph-name="Itilde" unicode="&#x128;" horiz-adv-x="630" 
d="M180 1831q51 0 134 -34t114 -34q68 0 90 76l135 -45q-57 -184 -217 -184q-41 0 -122 36t-111 35q-57 1 -84 -79l-135 45q51 184 196 184zM203 1434h225v-1434h-225v1434z" />
    <glyph glyph-name="itilde" unicode="&#x129;" horiz-adv-x="589" 
d="M182 1087h226v-1087h-226v1087zM408 1417q68 0 90 76l135 -45q-57 -184 -217 -184q-41 0 -122 36t-112 35q-57 0 -84 -80l-135 45q51 184 197 185q51 0 134 -34t114 -34z" />
    <glyph glyph-name="Imacron" unicode="&#x12a;" horiz-adv-x="630" 
d="M610 1642h-587v156h587v-156zM203 1434h225v-1434h-225v1434z" />
    <glyph glyph-name="imacron" unicode="&#x12b;" horiz-adv-x="589" 
d="M182 1087h226v-1087h-226v1087zM590 1296h-588v156h588v-156z" />
    <glyph glyph-name="Ibreve" unicode="&#x12c;" horiz-adv-x="630" 
d="M317 1589q-135 0 -214 69t-91 195h158q20 -121 147 -121t148 121h158q-11 -127 -91 -195t-215 -69zM203 1434h225v-1434h-225v1434z" />
    <glyph glyph-name="ibreve" unicode="&#x12d;" horiz-adv-x="589" 
d="M182 1087h226v-1087h-226v1087zM297 1243q-135 0 -214 69t-91 195h158q20 -121 147 -121t147 121h158q-12 -127 -91 -195t-214 -69z" />
    <glyph glyph-name="Iogonek" unicode="&#x12e;" horiz-adv-x="630" 
d="M203 1434h223v-1434q-143 -76 -143 -190q0 -68 63 -68q47 0 80 33l66 -111q-72 -72 -176 -72t-161 46q-59 46 -59 124q0 76 32 138t75 100v1434z" />
    <glyph glyph-name="iogonek" unicode="&#x12f;" horiz-adv-x="589" 
d="M182 1454h226v-219h-226v219zM182 1087h226v-1087q-64 -31 -100 -82t-36 -108q0 -68 64 -68q47 0 82 33l22 -142q-63 -41 -150 -41q-88 0 -146 46t-58 122t30 140t66 100v1087z" />
    <glyph glyph-name="Idotaccent" unicode="&#x130;" horiz-adv-x="630" 
d="M219 1823h195v-203h-195v203zM203 1434h225v-1434h-225v1434z" />
    <glyph glyph-name="dotlessi" unicode="&#x131;" horiz-adv-x="591" 
d="M182 1087h226v-1087h-226v1087z" />
    <glyph glyph-name="Jcircumflex" unicode="&#x134;" horiz-adv-x="681" 
d="M371 1751l-129 -192h-185l211 323h205l211 -323h-190zM262 1434h225v-1184q-1 -129 -79 -203t-202 -74t-222 56l41 174q74 -41 139 -41q98 0 98 114v1158z" />
    <glyph glyph-name="jcircumflex" unicode="&#x135;" horiz-adv-x="591" 
d="M297 1405l-129 -193h-184l211 324h204l211 -324h-190zM410 1087v-1323q0 -110 -73 -166t-191 -56t-236 48l14 154q104 -39 156 -39q52 -1 79 19q26 20 25 75v1288h226z" />
    <glyph glyph-name="Kcommaaccent" unicode="&#x136;" horiz-adv-x="1275" 
d="M203 1434h225v-717l571 717h242l-477 -594l510 -840h-258l-400 657l-188 -233v-424h-225v1434zM567 -84h238l-150 -346h-190z" />
    <glyph glyph-name="kcommaaccent" unicode="&#x137;" horiz-adv-x="1105" 
d="M410 0h-226v1495h226v-881l434 473h246l-385 -434l430 -653h-256l-340 512l-129 -133v-379zM514 -84h240l-150 -346h-192z" />
    <glyph glyph-name="Lacute" unicode="&#x139;" horiz-adv-x="1034" 
d="M446 1882h232l-260 -323h-197zM203 1434h225v-1252h576v-182h-801v1434z" />
    <glyph glyph-name="lacute" unicode="&#x13a;" horiz-adv-x="679" 
d="M422 1882h231l-260 -323h-196zM180 1495h226v-1257q0 -50 16 -66t72 -16t143 45l18 -166q-123 -61 -243 -61t-176 56q-55 56 -56 181v1284z" />
    <glyph glyph-name="Lcommaaccent" unicode="&#x13b;" horiz-adv-x="1034" 
d="M203 1434h225v-1252h576v-182h-801v1434zM498 -84h239l-149 -346h-193z" />
    <glyph glyph-name="lcommaaccent" unicode="&#x13c;" horiz-adv-x="679" 
d="M180 1495h226v-1257q0 -50 16 -66t72 -16t143 45l18 -166q-123 -61 -243 -61t-176 56q-55 56 -56 181v1284zM311 -84h238l-150 -346h-192z" />
    <glyph glyph-name="Lcaron" unicode="&#x13d;" horiz-adv-x="1034" 
d="M203 1434h225v-1252h576v-182h-801v1434zM651 1434h195l-135 -486h-156z" />
    <glyph glyph-name="lcaron" unicode="&#x13e;" horiz-adv-x="714" 
d="M180 1495h226v-1257q0 -50 16 -66t72 -16t143 45l18 -166q-123 -61 -243 -61t-176 56q-55 56 -56 181v1284zM510 1434h188l-61 -486h-152z" />
    <glyph glyph-name="Lslash" unicode="&#x141;" horiz-adv-x="1034" 
d="M203 1434h225v-598l414 161v-180l-414 -162v-473h576v-182h-801v569l-180 -67v178l180 70v684z" />
    <glyph glyph-name="lslash" unicode="&#x142;" horiz-adv-x="698" 
d="M406 238q0 -82 86 -82q61 0 151 47l27 -160q-127 -70 -250 -70q-240 0 -240 238v434l-168 -86v168l168 84v684l226 41v-610l169 88v-168l-169 -86v-522z" />
    <glyph glyph-name="Nacute" unicode="&#x143;" horiz-adv-x="1558" 
d="M877 1882h231l-260 -323h-197zM203 1434h215l719 -1053v1053h219v-1434h-213l-721 1053v-1053h-219v1434z" />
    <glyph glyph-name="nacute" unicode="&#x144;" horiz-adv-x="1271" 
d="M745 1536h232l-260 -324h-197zM182 0v1055q258 61 471 61q457 0 457 -338v-778h-223v725q0 190 -260 190q-68 0 -219 -22v-893h-226z" />
    <glyph glyph-name="Ncommaaccent" unicode="&#x145;" horiz-adv-x="1558" 
d="M203 1434h215l719 -1053v1053h219v-1434h-213l-721 1053v-1053h-219v1434zM659 -84h238l-149 -346h-191z" />
    <glyph glyph-name="ncommaaccent" unicode="&#x146;" horiz-adv-x="1271" 
d="M182 0v1055q258 61 471 61q457 0 457 -338v-778h-223v725q0 190 -260 190q-68 0 -219 -22v-893h-226zM541 -84h237l-149 -346h-191z" />
    <glyph glyph-name="Ncaron" unicode="&#x147;" horiz-adv-x="1558" 
d="M649 1882l129 -192l123 192h191l-211 -323h-205l-211 323h184zM203 1434h215l719 -1053v1053h219v-1434h-213l-721 1053v-1053h-219v1434z" />
    <glyph glyph-name="ncaron" unicode="&#x148;" horiz-adv-x="1271" 
d="M504 1536l129 -193l123 193h190l-211 -324h-205l-211 324h185zM182 0v1055q258 61 471 61q457 0 457 -338v-778h-223v725q0 190 -260 190q-68 0 -219 -22v-893h-226z" />
    <glyph glyph-name="Eng" unicode="&#x14a;" horiz-adv-x="1558" 
d="M203 1434h215l719 -1045v1045h219v-1618q0 -129 -76 -203t-196 -74t-224 55l41 175q74 -41 137 -41q98 0 99 114v176l-715 1037v-1055h-219v1434z" />
    <glyph glyph-name="eng" unicode="&#x14b;" horiz-adv-x="1271" 
d="M182 0v1055q258 61 471 61q457 0 457 -338v-1014q0 -114 -73 -168t-191 -54t-234 48l13 154q113 -39 172 -39q90 0 90 94v926q0 193 -260 193q-53 0 -219 -25v-893h-226z" />
    <glyph glyph-name="Omacron" unicode="&#x14c;" horiz-adv-x="1400" 
d="M991 1642h-588v156h588v-156zM698 1270q-136 0 -206 -44t-102 -161t-32 -393t75 -392t265 -116t264 114q73 114 72 435q0 237 -30 353t-100 160q-69 44 -206 44zM672 1460q198 0 300 -30t174 -113q72 -84 98 -226t26 -378q0 -416 -124 -578t-444 -162t-445 163
q-126 163 -126 577q0 307 54 467t172 220q117 60 315 60z" />
    <glyph glyph-name="omacron" unicode="&#x14d;" horiz-adv-x="1171" 
d="M877 1296h-588v156h588v-156zM586 946q-72 0 -113 -11t-78 -51t-51 -123t-14 -237t30 -242q30 -89 81 -114t145 -25t144 25q110 55 110 348t-64 366q-34 40 -76 52t-114 12zM591 1116q130 0 213 -22q84 -22 148 -84q120 -113 119 -460q0 -347 -124 -466q-65 -61 -149 -86
t-211 -25q-126 0 -209 22q-194 51 -247 255q-31 115 -31 291t30 290q54 209 246 261q85 24 215 24z" />
    <glyph glyph-name="Obreve" unicode="&#x14e;" horiz-adv-x="1400" 
d="M698 1589q-135 0 -214 69t-91 195h158q20 -121 147 -121t148 121h158q-12 -127 -92 -195t-214 -69zM698 1270q-136 0 -206 -44t-102 -161t-32 -393t75 -392t265 -116t264 114q73 114 72 435q0 237 -30 353t-100 160q-69 44 -206 44zM672 1460q198 0 300 -30t174 -113
q72 -84 98 -226t26 -378q0 -416 -124 -578t-444 -162t-445 163q-126 163 -126 577q0 307 54 467t172 220q117 60 315 60z" />
    <glyph glyph-name="obreve" unicode="&#x14f;" horiz-adv-x="1171" 
d="M584 1243q-135 0 -214 69t-91 195h157q20 -121 148 -121t147 121h158q-12 -127 -91 -195t-214 -69zM586 946q-72 0 -113 -11t-78 -51t-51 -123t-14 -237t30 -242q30 -89 81 -114t145 -25t144 25q110 55 110 348t-64 366q-34 40 -76 52t-114 12zM591 1116q130 0 213 -22
q84 -22 148 -84q120 -113 119 -460q0 -347 -124 -466q-65 -61 -149 -86t-211 -25q-126 0 -209 22q-194 51 -247 255q-31 115 -31 291t30 290q54 209 246 261q85 24 215 24z" />
    <glyph glyph-name="Ohungarumlaut" unicode="&#x150;" horiz-adv-x="1400" 
d="M590 1882h213l-170 -323h-154zM938 1882h223l-231 -323h-162zM698 1270q-137 0 -208 -44q-72 -44 -102 -161t-30 -394t74 -392t265 -115t265 114q73 114 72 435q0 237 -30 353t-100 160q-69 44 -206 44zM672 1460q198 0 300 -30t174 -113q72 -84 98 -226t26 -378
q0 -416 -124 -578t-444 -162t-445 163q-126 163 -126 577q0 307 54 467t172 220q117 60 315 60z" />
    <glyph glyph-name="ohungarumlaut" unicode="&#x151;" horiz-adv-x="1171" 
d="M496 1536h213l-170 -324h-156zM844 1536h223l-231 -324h-162zM586 946q-72 0 -113 -11t-78 -51t-51 -123t-14 -237t30 -242q30 -89 81 -114t145 -25t144 25q110 55 110 348t-64 366q-34 40 -76 52t-114 12zM591 1116q130 0 213 -22q84 -22 148 -84q120 -113 119 -460
q0 -347 -124 -466q-65 -61 -149 -86t-211 -25q-126 0 -209 22q-194 51 -247 255q-31 115 -31 291t30 290q54 209 246 261q85 24 215 24z" />
    <glyph glyph-name="OE" unicode="&#x152;" horiz-adv-x="2062" 
d="M700 1272q-178 0 -272 -128t-94 -428t94 -427t272 -127t269 127q90 127 90 429t-90 428q-91 126 -269 126zM1098 1434h825v-189h-618v-424h591v-178h-591v-455h651v-188h-858v166q-116 -193 -396 -193q-280 1 -439 179t-159 564t161 565t441 179t392 -188v162z" />
    <glyph glyph-name="oe" unicode="&#x153;" horiz-adv-x="1841" 
d="M1520 657q0 145 -52 215t-164 70t-168 -68t-65 -217h449zM586 948q-132 0 -194 -91t-62 -313t61 -312t195 -89q134 0 193 88q61 87 61 311t-60 315t-194 91zM588 1116q141 0 229 -45t135 -143q98 188 359 188q219 0 323 -121t105 -333v-142h-668q2 -205 79 -291
q78 -86 224 -86t309 113l39 -162q-98 -57 -186 -89t-207 -32q-274 0 -377 199q-100 -199 -353 -199q-253 1 -376 137t-123 432t122 435t366 139z" />
    <glyph glyph-name="Racute" unicode="&#x154;" horiz-adv-x="1265" 
d="M694 1882h232l-260 -323h-197zM428 1251v-508q102 -10 178 -10q160 -1 237 59t77 204t-72 200q-72 55 -238 55h-182zM428 0h-225v1434h407q276 0 410 -96t133 -343q0 -311 -252 -401l293 -594h-252l-262 553q-141 -9 -252 4v-557z" />
    <glyph glyph-name="racute" unicode="&#x155;" horiz-adv-x="888" 
d="M604 1536h232l-261 -324h-196zM184 0v1044q180 72 360 72t281 -49l-24 -186q-91 33 -197 33t-194 -25v-889h-226z" />
    <glyph glyph-name="Rcommaaccent" unicode="&#x156;" horiz-adv-x="1265" 
d="M428 1251v-508q102 -10 178 -10q160 -1 237 59t77 204t-72 200q-72 55 -238 55h-182zM428 0h-225v1434h407q276 0 410 -96t133 -343q0 -311 -252 -401l293 -594h-252l-262 553q-141 -9 -252 4v-557zM549 -84h239l-149 -346h-193z" />
    <glyph glyph-name="rcommaaccent" unicode="&#x157;" horiz-adv-x="888" 
d="M184 0v1044q180 72 360 72t281 -49l-24 -186q-91 33 -197 33t-194 -25v-889h-226zM184 -84h240l-150 -346h-192z" />
    <glyph glyph-name="Rcaron" unicode="&#x158;" horiz-adv-x="1265" 
d="M461 1882l129 -192l123 192h190l-211 -323h-205l-211 323h185zM428 1251v-508q102 -10 178 -10q160 -1 237 59t77 204t-72 200q-72 55 -238 55h-182zM428 0h-225v1434h407q276 0 410 -96t133 -343q0 -311 -252 -401l293 -594h-252l-262 553q-141 -9 -252 4v-557z" />
    <glyph glyph-name="rcaron" unicode="&#x159;" horiz-adv-x="888" 
d="M383 1536l129 -193l123 193h190l-211 -324h-204l-211 324h184zM184 0v1044q180 72 360 72t281 -49l-24 -186q-91 33 -197 33t-194 -25v-889h-226z" />
    <glyph glyph-name="Sacute" unicode="&#x15a;" horiz-adv-x="1206" 
d="M686 1882h232l-261 -323h-196zM575 1278q-83 0 -148 -49t-65 -137t75 -154t181 -115t212 -104t180 -143q76 -88 75 -203q0 -195 -134 -297t-357 -103q-150 1 -283 57t-219 150l115 152q74 -80 178 -126t213 -46q110 0 180 48t70 132t-75 145t-180 111t-211 107t-180 151
q-75 94 -75 215q0 191 137 291t342 100t321 -112t122 -293l-213 -27q-20 178 -130 228q-48 22 -131 22z" />
    <glyph glyph-name="sacute" unicode="&#x15b;" horiz-adv-x="1009" 
d="M604 1536h232l-261 -324h-196zM506 948q-80 0 -127 -33t-47 -92t58 -104t142 -83t168 -80t142 -111t59 -154q0 -147 -110 -233q-111 -85 -293 -85q-268 0 -424 156l88 141q139 -127 332 -127q82 0 132 33q50 34 50 98t-88 119t-192 97t-193 124q-88 82 -88 189
q0 143 107 228q108 85 283 85t275 -94t105 -234l-189 -20q-6 84 -58 132t-132 48z" />
    <glyph glyph-name="Scircumflex" unicode="&#x15c;" horiz-adv-x="1206" 
d="M590 1751l-129 -192h-185l211 323h205l211 -323h-190zM575 1278q-83 0 -148 -49t-65 -137t75 -154t181 -115t212 -104t180 -143q76 -88 75 -203q0 -195 -134 -297t-357 -103q-150 1 -283 57t-219 150l115 152q74 -80 178 -126t213 -46q110 0 180 48t70 132t-75 145
t-180 111t-211 107t-180 151q-75 94 -75 215q0 191 137 291t342 100t321 -112t122 -293l-213 -27q-20 178 -130 228q-48 22 -131 22z" />
    <glyph glyph-name="scircumflex" unicode="&#x15d;" horiz-adv-x="1009" 
d="M512 1405l-129 -193h-184l211 324h204l211 -324h-190zM506 948q-80 0 -127 -33t-47 -92t58 -104t142 -83t168 -80t142 -111t59 -154q0 -147 -110 -233q-111 -85 -293 -85q-268 0 -424 156l88 141q139 -127 332 -127q82 0 132 33q50 34 50 98t-88 119t-192 97t-193 124
q-88 82 -88 189q0 143 107 228q108 85 283 85t275 -94t105 -234l-189 -20q-6 84 -58 132t-132 48z" />
    <glyph glyph-name="Scedilla" unicode="&#x15e;" horiz-adv-x="1206" 
d="M575 1278q-83 0 -149 -49t-66 -137t75 -154t181 -115t212 -104t182 -143t75 -203q0 -169 -104 -269t-283 -122q43 -78 43 -165t-66 -146q-67 -58 -173 -58q-170 0 -246 108l98 99q49 -55 113 -56q90 0 90 93q0 47 -39 120q-128 11 -240 65t-186 138l115 152
q74 -80 178 -126t213 -46q110 0 180 48t70 132t-75 145t-180 111t-211 107t-180 151q-75 94 -75 215q0 191 137 291t342 100t321 -112t122 -293l-213 -27q-20 178 -130 228q-48 22 -131 22z" />
    <glyph glyph-name="Scedilla" unicode="&#xf6c1;" horiz-adv-x="1206" 
d="M575 1278q-83 0 -149 -49t-66 -137t75 -154t181 -115t212 -104t182 -143t75 -203q0 -169 -104 -269t-283 -122q43 -78 43 -165t-66 -146q-67 -58 -173 -58q-170 0 -246 108l98 99q49 -55 113 -56q90 0 90 93q0 47 -39 120q-128 11 -240 65t-186 138l115 152
q74 -80 178 -126t213 -46q110 0 180 48t70 132t-75 145t-180 111t-211 107t-180 151q-75 94 -75 215q0 191 137 291t342 100t321 -112t122 -293l-213 -27q-20 178 -130 228q-48 22 -131 22z" />
    <glyph glyph-name="scedilla" unicode="&#x15f;" horiz-adv-x="1009" 
d="M506 948q-80 0 -127 -33t-47 -92t58 -104t142 -83t168 -80t142 -111t59 -154q0 -125 -80 -204t-217 -103q45 -70 45 -162t-66 -151q-67 -58 -173 -58q-170 0 -246 108l98 99q47 -55 113 -56q90 0 90 93q0 49 -41 120q-223 23 -350 152l88 141q139 -127 332 -127
q82 0 132 33q50 34 50 98t-88 119t-192 97t-193 124q-88 82 -88 189q0 143 107 228q108 85 283 85t275 -94t105 -234l-189 -20q-6 84 -58 132t-132 48z" />
    <glyph glyph-name="scedilla" unicode="&#xf6c2;" horiz-adv-x="1009" 
d="M506 948q-80 0 -127 -33t-47 -92t58 -104t142 -83t168 -80t142 -111t59 -154q0 -125 -80 -204t-217 -103q45 -70 45 -162t-66 -151q-67 -58 -173 -58q-170 0 -246 108l98 99q47 -55 113 -56q90 0 90 93q0 49 -41 120q-223 23 -350 152l88 141q139 -127 332 -127
q82 0 132 33q50 34 50 98t-88 119t-192 97t-193 124q-88 82 -88 189q0 143 107 228q108 85 283 85t275 -94t105 -234l-189 -20q-6 84 -58 132t-132 48z" />
    <glyph glyph-name="Scaron" unicode="&#x160;" horiz-adv-x="1206" 
d="M473 1882l129 -192l123 192h190l-210 -323h-205l-211 323h184zM575 1278q-83 0 -148 -49t-65 -137t75 -154t181 -115t212 -104t180 -143q76 -88 75 -203q0 -195 -134 -297t-357 -103q-150 1 -283 57t-219 150l115 152q74 -80 178 -126t213 -46q110 0 180 48t70 132
t-75 145t-180 111t-211 107t-180 151q-75 94 -75 215q0 191 137 291t342 100t321 -112t122 -293l-213 -27q-20 178 -130 228q-48 22 -131 22z" />
    <glyph glyph-name="scaron" unicode="&#x161;" horiz-adv-x="1009" 
d="M377 1536l129 -193l123 193h190l-211 -324h-205l-210 324h184zM506 948q-80 0 -127 -33t-47 -92t58 -104t142 -83t168 -80t142 -111t59 -154q0 -147 -110 -233q-111 -85 -293 -85q-268 0 -424 156l88 141q139 -127 332 -127q82 0 132 33q50 34 50 98t-88 119t-192 97
t-193 124q-88 82 -88 189q0 143 107 228q108 85 283 85t275 -94t105 -234l-189 -20q-6 84 -58 132t-132 48z" />
    <glyph glyph-name="Tcommaaccent" unicode="&#x162;" horiz-adv-x="1220" 
d="M55 1434h1110v-195h-442v-1239h-225v1239h-443v195zM494 -84h237l-149 -346h-193z" />
    <glyph glyph-name="Tcommaaccent" unicode="&#x21a;" horiz-adv-x="1220" 
d="M55 1434h1110v-195h-442v-1239h-225v1239h-443v195zM494 -84h237l-149 -346h-193z" />
    <glyph glyph-name="tcommaaccent" unicode="&#x163;" horiz-adv-x="813" 
d="M215 1370h219v-283h301l-28 -167h-273v-641q0 -117 107 -117q94 0 211 67l51 -153q-169 -102 -307 -102q-284 -1 -285 247v699h-164v167h168v283zM365 -84h239l-149 -346h-193z" />
    <glyph glyph-name="tcommaaccent" unicode="&#x21b;" horiz-adv-x="813" 
d="M215 1370h219v-283h301l-28 -167h-273v-641q0 -117 107 -117q94 0 211 67l51 -153q-169 -102 -307 -102q-284 -1 -285 247v699h-164v167h168v283zM365 -84h239l-149 -346h-193z" />
    <glyph glyph-name="Tcaron" unicode="&#x164;" horiz-adv-x="1220" 
d="M479 1882l129 -192l123 192h191l-211 -323h-205l-211 323h184zM55 1434h1110v-195h-442v-1239h-225v1239h-443v195z" />
    <glyph glyph-name="tcaron" unicode="&#x165;" horiz-adv-x="813" 
d="M215 1370h219v-283h301l-28 -167h-273v-641q0 -117 107 -117q94 0 211 67l51 -153q-169 -102 -307 -102q-284 -1 -285 247v699h-164v167h168v283zM545 1649h190l-63 -486h-150z" />
    <glyph glyph-name="Tbar" unicode="&#x166;" horiz-adv-x="1220" 
d="M55 1434h1108v-195h-440v-440h338v-174h-338v-625h-225v625h-340v174h340v440h-443v195z" />
    <glyph glyph-name="tbar" unicode="&#x167;" horiz-adv-x="813" 
d="M625 557h-191v-281q0 -53 28 -85t77 -31q96 0 213 67l51 -153q-163 -98 -311 -98t-216 68q-68 69 -67 228v285h-139v125h139v240h-162v165h168v285h219v-285h301l-28 -165h-273v-240h191v-125z" />
    <glyph glyph-name="Utilde" unicode="&#x168;" horiz-adv-x="1429" 
d="M575 1831q51 0 135 -34t113 -34q68 0 90 76l136 -45q-57 -184 -218 -184q-41 0 -121 36t-112 35q-57 1 -84 -79l-135 45q51 184 196 184zM184 1434h226v-953q0 -167 63 -243t245 -76t243 75t61 244v953h223v-957q0 -260 -118 -382q-117 -122 -411 -122t-413 126t-119 378
v957z" />
    <glyph glyph-name="utilde" unicode="&#x169;" horiz-adv-x="1177" 
d="M696 1417q68 0 90 76l136 -45q-57 -184 -217 -184q-41 0 -122 36t-112 35q-57 0 -84 -80l-135 45q51 184 197 185q51 0 134 -34t113 -34zM1020 334q0 -178 -125 -270t-308 -91q-183 -1 -308 91t-125 270v753h225v-743q0 -205 208 -205t208 205v743h225v-753z" />
    <glyph glyph-name="Umacron" unicode="&#x16a;" horiz-adv-x="1429" 
d="M1008 1642h-588v156h588v-156zM184 1434h226v-953q0 -167 63 -243t245 -76t243 75t61 244v953h223v-957q0 -260 -118 -382q-117 -122 -411 -122t-413 126t-119 378v957z" />
    <glyph glyph-name="umacron" unicode="&#x16b;" horiz-adv-x="1177" 
d="M881 1296h-588v156h588v-156zM1020 334q0 -178 -125 -270t-308 -91q-183 -1 -308 91t-125 270v753h225v-743q0 -205 208 -205t208 205v743h225v-753z" />
    <glyph glyph-name="Ubreve" unicode="&#x16c;" horiz-adv-x="1429" 
d="M713 1589q-135 0 -214 69t-91 195h157q19 -121 147 -121t148 121h158q-12 -127 -91 -195t-214 -69zM184 1434h226v-953q0 -167 63 -243t245 -76t243 75t61 244v953h223v-957q0 -260 -118 -382q-117 -122 -411 -122t-413 126t-119 378v957z" />
    <glyph glyph-name="ubreve" unicode="&#x16d;" horiz-adv-x="1177" 
d="M586 1243q-135 0 -214 69t-91 195h157q20 -121 148 -121t147 121h158q-12 -127 -91 -195t-214 -69zM1020 334q0 -178 -125 -270t-308 -91q-183 -1 -308 91t-125 270v753h225v-743q0 -205 208 -205t208 205v743h225v-753z" />
    <glyph glyph-name="Uring" unicode="&#x16e;" horiz-adv-x="1429" 
d="M712 1796q-83 0 -83 -75t83 -75t83 76q0 74 -83 74zM494 1720q0 78 61 129t155 51t158 -50q64 -52 64 -129t-62 -128t-158 -51q-95 0 -157 50q-61 50 -61 128zM184 1434h226v-953q0 -167 63 -243t245 -76t243 75t61 244v953h223v-957q0 -260 -118 -382
q-117 -122 -411 -122t-413 126t-119 378v957z" />
    <glyph glyph-name="uring" unicode="&#x16f;" horiz-adv-x="1177" 
d="M587 1450q-83 0 -83 -75t83 -75t83 75t-83 75zM369 1374q0 78 61 129q62 51 156 51t157 -51t63 -128t-62 -128t-157 -51t-157 50q-61 50 -61 128zM1020 334q0 -178 -125 -270t-308 -91q-183 -1 -308 91t-125 270v753h225v-743q0 -205 208 -205t208 205v743h225v-753z" />
    <glyph glyph-name="Uhungarumlaut" unicode="&#x170;" horiz-adv-x="1429" 
d="M588 1882h213l-170 -323h-154zM936 1882h223l-231 -323h-162zM184 1434h224v-953q0 -167 63 -243t245 -76t246 75q62 75 62 244v953h221v-957q0 -260 -118 -382q-117 -122 -411 -122t-413 126t-119 378v957z" />
    <glyph glyph-name="uhungarumlaut" unicode="&#x171;" horiz-adv-x="1177" 
d="M778 1536h215l-192 -324h-154zM487 1536h222l-209 -324h-162zM1020 334q0 -178 -125 -270t-308 -91q-183 -1 -308 91t-125 270v753h225v-743q0 -205 208 -205t208 205v743h225v-753z" />
    <glyph glyph-name="Uogonek" unicode="&#x172;" horiz-adv-x="1429" 
d="M184 1434h224v-953q0 -167 63 -243t245 -76t246 75q62 75 62 244v953h221v-957q0 -231 -93 -353t-316 -144q-119 -84 -119 -161t63 -77q47 0 80 33l66 -111q-72 -72 -176 -72t-161 46q-58 46 -59 139q0 51 31 107t74 93q-250 17 -350 141t-101 359v957z" />
    <glyph glyph-name="uogonek" unicode="&#x173;" horiz-adv-x="1177" 
d="M1022 1087v-751q0 -154 -95 -244t-243 -110q-123 -84 -123 -172q0 -68 64 -68q47 0 82 33l63 -111q-72 -72 -175 -72t-161 46t-57 139q0 55 33 113t77 94q-147 20 -239 109t-92 243v751h223v-741q0 -203 209 -203t209 203v741h225z" />
    <glyph glyph-name="Wcircumflex" unicode="&#x174;" horiz-adv-x="1986" 
d="M993 1751l-129 -192h-184l211 323h205l211 -323h-191zM870 1434h250l322 -1162l272 1162h240l-365 -1434h-274l-322 1139l-321 -1139h-273l-364 1434h241l271 -1162z" />
    <glyph glyph-name="wcircumflex" unicode="&#x175;" horiz-adv-x="1697" 
d="M848 1405l-129 -193h-184l210 324h205l211 -324h-190zM735 1087h248l254 -821l221 821h225l-331 -1087h-238l-262 836l-268 -836h-232l-340 1087h238l227 -821z" />
    <glyph glyph-name="Ycircumflex" unicode="&#x176;" horiz-adv-x="1222" 
d="M610 1751l-129 -192h-184l211 323h205l211 -323h-191zM725 0h-225v565l-475 869h249l340 -641l344 641h242l-475 -869v-565z" />
    <glyph glyph-name="ycircumflex" unicode="&#x177;" horiz-adv-x="1189" 
d="M590 1405l-129 -193h-185l211 324h205l211 -324h-190zM1022 1087v-1181q0 -188 -125 -276t-323 -89q-198 0 -416 62l26 184q203 -68 357 -68q256 0 256 183v145q-168 -67 -316 -67q-149 0 -237 82t-88 255v770h223v-753q0 -164 176 -164q119 0 242 59v858h225z" />
    <glyph glyph-name="Ydieresis" unicode="&#x178;" horiz-adv-x="1222" 
d="M700 1823h189v-201h-189v201zM332 1823h188v-201h-188v201zM725 0h-225v565l-475 869h249l340 -641l344 641h242l-475 -869v-565z" />
    <glyph glyph-name="Zacute" unicode="&#x179;" horiz-adv-x="1243" 
d="M739 1882h232l-260 -323h-197zM115 1434h1046v-134l-782 -1112h764v-188h-1067v129l784 1116h-745v189z" />
    <glyph glyph-name="zacute" unicode="&#x17a;" horiz-adv-x="1052" 
d="M618 1536h232l-260 -324h-197zM96 1087h871v-129l-600 -788h608v-170h-893v125l604 793h-590v169z" />
    <glyph glyph-name="Zdotaccent" unicode="&#x17b;" horiz-adv-x="1243" 
d="M522 1823h195v-203h-195v203zM115 1434h1046v-134l-782 -1112h764v-188h-1067v129l784 1116h-745v189z" />
    <glyph glyph-name="zdotaccent" unicode="&#x17c;" horiz-adv-x="1052" 
d="M438 1477h195v-203h-195v203zM96 1087h871v-129l-600 -788h608v-170h-893v125l604 793h-590v169z" />
    <glyph glyph-name="Zcaron" unicode="&#x17d;" horiz-adv-x="1243" 
d="M492 1882l129 -192l122 192h191l-211 -323h-205l-211 323h185zM115 1434h1046v-134l-782 -1112h764v-188h-1067v129l784 1116h-745v189z" />
    <glyph glyph-name="zcaron" unicode="&#x17e;" horiz-adv-x="1052" 
d="M397 1536l129 -193l123 193h191l-211 -324h-205l-211 324h184zM96 1087h871v-129l-600 -788h608v-170h-893v125l604 793h-590v169z" />
    <glyph glyph-name="longs" unicode="&#x17f;" horiz-adv-x="700" 
d="M436 0h-225v920h-170v167h170v179q0 126 79 192t216 66t258 -45l-23 -170q-6 3 -59 23t-126 20q-72 0 -96 -24t-24 -81v-1247z" />
    <glyph glyph-name="florin" unicode="&#x192;" 
d="M446 782h517v-159h-517v-623h-219v623h-196v159h196v189q0 489 461 489q225 0 336 -110t123 -287l-217 -29q-16 100 -60 168t-194 69t-196 -102q-32 -71 -34 -194v-193z" />
    <glyph glyph-name="Aringacute" unicode="&#x1fa;" horiz-adv-x="1214" 
d="M733 2277h232l-260 -323h-197zM605 1796q-83 0 -83 -75t83 -75t83 76q0 74 -83 74zM387 1720q-1 78 61 129t156 51t158 -50q64 -52 63 -129q0 -77 -62 -128q-61 -51 -157 -51t-158 50t-61 128zM594 1212l-221 -675h442zM987 0l-119 360h-551l-116 -360h-213l489 1434h262
l488 -1434h-240z" />
    <glyph glyph-name="aringacute" unicode="&#x1fb;" horiz-adv-x="1155" 
d="M711 1929h231l-260 -323h-197zM574 1300q82 0 83 75q0 75 -83 75t-82 -76q0 -74 82 -74zM356 1374q0 78 62 129t155 51t157 -51t64 -128t-62 -128t-158 -51t-156 50q-62 50 -62 128zM733 774q0 86 -41 122t-169 36t-341 -64v183q207 65 407 65q201 0 285 -68t84 -221
v-632l158 30l25 -151l-301 -76l-64 37l-12 45q-188 -106 -334 -106t-237 74q-92 75 -93 212q0 200 194 290q163 76 439 112v112zM733 238v284q-213 -25 -313 -79t-101 -158q0 -66 43 -102t115 -36q111 1 256 91z" />
    <glyph glyph-name="AEacute" unicode="&#x1fc;" horiz-adv-x="1994" 
d="M1438 1882h231l-260 -323h-197zM928 537v661l-408 -661h408zM1772 1434v-189h-619v-424h592v-178h-592v-455h649v-188h-874v360h-502l-227 -360h-232l885 1434h920z" />
    <glyph glyph-name="aeacute" unicode="&#x1fd;" horiz-adv-x="1714" 
d="M975 1536h231l-260 -324h-196zM1393 657q0 283 -215 283q-114 0 -170 -66t-64 -217h449zM475 147q158 0 279 152q-20 82 -25 201h-24q-170 0 -278 -58t-108 -157q0 -66 43 -102t113 -36zM1610 520h-668q2 -205 80 -291t222 -86t312 113l37 -162q-201 -121 -391 -121
q-272 0 -387 185q-164 -184 -391 -185q-139 0 -231 73t-93 214q0 100 54 176t148 118q179 81 431 83v151q0 78 -51 118t-135 40q-83 0 -143 -49t-62 -133l-199 18q4 156 125 245t295 89q213 0 301 -125q106 125 322 125t320 -121q103 -121 104 -333v-142z" />
    <glyph glyph-name="Oslashacute" unicode="&#x1fe;" horiz-adv-x="1400" 
d="M708 164q180 0 253 114t73 395q0 282 -37 390l-544 -813q75 -86 255 -86zM720 1270q-158 0 -230 -44t-102 -161t-30 -350t41 -344l549 819q-70 80 -228 80zM718 1460q242 0 357 -82l78 115l100 -55l-92 -138q109 -158 109 -580t-124 -585q-124 -162 -446 -162
q-246 0 -370 97l-88 -133l-92 63l98 150q-117 164 -117 563q0 307 54 467t172 220q119 60 361 60zM827 1882h232l-260 -323h-197z" />
    <glyph glyph-name="oslashacute" unicode="&#x1ff;" horiz-adv-x="1171" 
d="M586 946q-72 0 -113 -11t-78 -51t-51 -123t-14 -229t22 -206l430 544q-49 76 -196 76zM840 522q0 154 -21 228l-428 -539q51 -68 195 -68q94 0 144 25t80 113q30 87 30 241zM588 1116q227 0 332 -80l88 107l90 -56l-107 -131q80 -127 80 -440t-124 -432q-65 -61 -149 -86
t-212 -25q-225 0 -330 78l-90 -112l-84 57l104 131q-86 127 -86 416q0 346 125 465q66 60 151 84t212 24zM715 1536h231l-260 -324h-197z" />
    <glyph glyph-name="Scommaaccent" unicode="&#x218;" horiz-adv-x="1206" 
d="M575 1278q-83 0 -148 -49t-65 -137t75 -154t181 -115t212 -104t180 -143q76 -88 75 -203q0 -195 -134 -297t-357 -103q-150 1 -283 57t-219 150l115 152q74 -80 178 -126t213 -46q110 0 180 48t70 132t-75 145t-180 111t-211 107t-180 151q-75 94 -75 215q0 191 137 291
t342 100t321 -112t122 -293l-213 -27q-20 178 -130 228q-48 22 -131 22zM487 -84h240l-149 -346h-193z" />
    <glyph glyph-name="scommaaccent" unicode="&#x219;" horiz-adv-x="1009" 
d="M506 948q-80 0 -127 -33t-47 -92t58 -104t142 -83t168 -80t142 -111t59 -154q0 -147 -110 -233q-111 -85 -293 -85q-268 0 -424 156l88 141q139 -127 332 -127q82 0 132 33q50 34 50 98t-88 119t-192 97t-193 124q-88 82 -88 189q0 143 107 228q108 85 283 85t275 -94
t105 -234l-189 -20q-6 84 -58 132t-132 48zM393 -84h240l-150 -346h-192z" />
    <glyph glyph-name="circumflex" unicode="&#x2c6;" horiz-adv-x="1126" 
d="M563 1405l-129 -193h-184l211 324h205l211 -324h-191z" />
    <glyph glyph-name="caron" unicode="&#x2c7;" horiz-adv-x="1126" 
d="M434 1536l129 -193l123 193h191l-211 -324h-205l-211 324h184z" />
    <glyph glyph-name="breve" unicode="&#x2d8;" horiz-adv-x="1126" 
d="M563 1243q-135 0 -214 69t-91 195h158q20 -121 147 -121t148 121h157q-12 -127 -91 -195t-214 -69z" />
    <glyph glyph-name="dotaccent" unicode="&#x2d9;" horiz-adv-x="1126" 
d="M465 1477h194v-203h-194v203z" />
    <glyph glyph-name="ring" unicode="&#x2da;" horiz-adv-x="1126" 
d="M562 1450q-83 0 -83 -75t83 -75t83 75t-83 75zM344 1374q0 78 62 129t155 51t157 -51t64 -128t-62 -128t-158 -51t-156 50q-62 50 -62 128z" />
    <glyph glyph-name="ogonek" unicode="&#x2db;" horiz-adv-x="1126" 
d="M551 -168q0 -66 76 -65q51 0 94 45l98 -99q-72 -100 -231 -100q-102 0 -163 50q-60 50 -60 136q-1 129 116 201h203q-133 -80 -133 -168z" />
    <glyph glyph-name="tilde" unicode="&#x2dc;" horiz-adv-x="1126" 
d="M680 1417q68 0 90 76l135 -45q-57 -184 -217 -184q-41 0 -122 36t-111 35q-57 0 -84 -80l-135 45q51 184 196 185q51 0 134 -34t114 -34z" />
    <glyph glyph-name="hungarumlaut" unicode="&#x2dd;" horiz-adv-x="1126" 
d="M403 1536h218l-195 -324h-154zM694 1536h221l-206 -324h-164z" />
    <glyph glyph-name="Delta" unicode="&#x394;" horiz-adv-x="1200" 
d="M596 1184l-326 -1000h650zM-12 0l483 1434h258l483 -1434h-1224z" />
    <glyph glyph-name="Delta" unicode="&#x2206;" horiz-adv-x="1200" 
d="M596 1184l-326 -1000h650zM-12 0l483 1434h258l483 -1434h-1224z" />
    <glyph glyph-name="Omega" unicode="&#x3a9;" horiz-adv-x="1411" 
d="M1307 184v-184h-531v164q135 84 208 208t73 353q0 303 -88 425t-263 122q-176 0 -264 -123t-88 -424q0 -229 73 -353t208 -208v-164h-531v184h250q-236 190 -235 551q0 719 586 725q588 -4 587 -725q0 -360 -235 -551h250z" />
    <glyph glyph-name="Omega" unicode="&#x2126;" horiz-adv-x="1411" 
d="M1307 184v-184h-531v164q135 84 208 208t73 353q0 303 -88 425t-263 122q-176 0 -264 -123t-88 -424q0 -229 73 -353t208 -208v-164h-531v184h250q-236 190 -235 551q0 719 586 725q588 -4 587 -725q0 -360 -235 -551h250z" />
    <glyph glyph-name="pi" unicode="&#x3c0;" horiz-adv-x="1378" 
d="M45 905v182h1286v-182h-207v-905h-223v905h-424v-905h-221v905h-211z" />
    <glyph glyph-name="uni0400" unicode="&#x400;" 
d="M203 1434h844v-189h-621v-424h594v-178h-594v-455h651v-188h-874v1434zM305 1882h232l223 -323h-195z" />
    <glyph glyph-name="afii10023" unicode="&#x401;" 
d="M344 1823h188v-201h-188v201zM694 1823h189v-201h-189v201zM203 1434h844v-189h-621v-424h594v-178h-594v-455h651v-188h-874v1434z" />
    <glyph glyph-name="afii10051" unicode="&#x402;" horiz-adv-x="1507" 
d="M717 0h-225v1245h-433v189h1090v-189h-432v-368q135 33 278 32q225 0 318 -109q92 -110 92 -349v-103q0 -210 -67 -326t-218 -237l-123 119q92 90 136 179q43 89 43 253v106q0 152 -46 218t-178 67q-133 0 -235 -31v-696z" />
    <glyph glyph-name="afii10052" unicode="&#x403;" horiz-adv-x="1058" 
d="M203 0v1434h786v-189h-565v-1245h-221zM641 1882h231l-260 -323h-196z" />
    <glyph glyph-name="afii10053" unicode="&#x404;" horiz-adv-x="1169" 
d="M858 815v-182h-491q10 -271 91 -371t251 -100t321 76l31 -195q-147 -70 -361 -70q-324 0 -448 162t-123 578q0 231 31 377q58 274 274 341q98 30 254 29q221 0 334 -114t119 -287l-213 -29q-19 101 -50 151q-58 93 -214 93t-222 -92t-75 -367h491z" />
    <glyph glyph-name="afii10054" unicode="&#x405;" horiz-adv-x="1206" 
d="M575 1280q-83 0 -149 -50t-66 -138t75 -154t181 -115t212 -104t182 -143t75 -203q0 -195 -134 -297t-357 -103q-150 1 -283 57t-219 150l115 152q74 -80 178 -126t213 -46q110 0 180 48t70 132t-75 145t-180 111t-211 107t-180 151q-75 94 -75 215q0 191 137 291t342 100
t321 -112t122 -293l-213 -27q-20 178 -130 230q-48 22 -131 22z" />
    <glyph glyph-name="afii10055" unicode="&#x406;" horiz-adv-x="630" 
d="M203 1434h223v-1434h-223v1434z" />
    <glyph glyph-name="afii10056" unicode="&#x407;" horiz-adv-x="630" 
d="M203 1434h223v-1434h-223v1434zM408 1823h188v-201h-188v201zM39 1823h188v-201h-188v201z" />
    <glyph glyph-name="afii10057" unicode="&#x408;" horiz-adv-x="681" 
d="M262 1434h223v-1186q1 -127 -77 -201t-202 -74t-222 56l41 174q74 -41 139 -41q98 0 98 114v1158z" />
    <glyph glyph-name="afii10058" unicode="&#x409;" horiz-adv-x="1941" 
d="M1325 750h-168v-570h172q129 0 205 72t76 216t-77 213t-208 69zM43 0v170h78q75 0 105 58t32 190l16 1016h883v-506h184q496 0 496 -457q0 -227 -132 -349t-368 -122h-401v1245h-461l-18 -842q-4 -215 -77 -309t-222 -94h-115z" />
    <glyph glyph-name="afii10059" unicode="&#x40a;" horiz-adv-x="2037" 
d="M1436 651h-168v-471h172q128 0 198 56t70 188q0 131 -68 179t-204 48zM1047 1434h221v-600h178q248 0 369 -94t120 -316q0 -424 -495 -424h-393v651h-621v-651h-223v1434h223v-600h621v600z" />
    <glyph glyph-name="afii10060" unicode="&#x40b;" horiz-adv-x="1523" 
d="M705 0h-213v1245h-433v189h1078v-189h-432v-432q205 61 339 61t227 -69q93 -70 93 -232v-573h-225v502q0 184 -195 184q-77 0 -239 -47v-639z" />
    <glyph glyph-name="afii10061" unicode="&#x40c;" horiz-adv-x="1353" 
d="M203 0v1434h221v-617h86l403 617h263q-55 -78 -206 -297t-235 -336q100 -13 169 -67t130 -197l226 -537h-259l-178 449q-39 100 -99 140t-163 40h-137v-629h-221zM719 1882h231l-260 -323h-196z" />
    <glyph glyph-name="uni040D" unicode="&#x40d;" horiz-adv-x="1458" 
d="M203 0v1434h207v-1031l645 1031h198v-1434h-206v1026l-648 -1026h-196zM426 1882h231l224 -323h-195z" />
    <glyph glyph-name="afii10062" unicode="&#x40e;" horiz-adv-x="1277" 
d="M152 0v182q141 0 237 51t141 127l-444 1074h246l350 -861l315 861h220l-328 -869q-117 -309 -299 -437t-438 -128zM649 1589q-135 0 -214 69t-91 195h158q20 -121 147 -121t148 121h157q-12 -127 -91 -195t-214 -69z" />
    <glyph glyph-name="afii10145" unicode="&#x40f;" horiz-adv-x="1435" 
d="M1231 1434v-1434h-420l-23 -315h-145l-22 315h-418v1434h221v-1248h586v1248h221z" />
    <glyph glyph-name="afii10017" unicode="&#x410;" horiz-adv-x="1214" 
d="M594 1214l-221 -677h442zM987 0l-119 362h-551l-116 -362h-213l489 1434h262l488 -1434h-240z" />
    <glyph glyph-name="afii10018" unicode="&#x411;" horiz-adv-x="1208" 
d="M592 750h-168v-570h172q129 0 205 72t76 216t-77 213t-208 69zM203 0v1434h708v-189h-487v-317h184q496 0 496 -457q0 -227 -132 -349t-368 -122h-401z" />
    <glyph glyph-name="afii10019" unicode="&#x412;" horiz-adv-x="1282" 
d="M203 1434h424q247 0 375 -83t128 -282q0 -236 -241 -334q145 -27 216 -109t71 -231q0 -209 -138 -302t-401 -93h-434v1434zM426 1257v-452h209q121 -1 191 67t71 178q0 110 -66 159q-66 48 -206 48h-199zM426 639v-463h211q155 0 227 52t72 174t-69 180t-230 57h-211z
" />
    <glyph glyph-name="afii10020" unicode="&#x413;" horiz-adv-x="1058" 
d="M203 0v1434h786v-189h-565v-1245h-221z" />
    <glyph glyph-name="afii10021" unicode="&#x414;" horiz-adv-x="1406" 
d="M1204 1434v-1248h133l-20 -501h-152l-20 315h-897l-21 -315h-151l-21 501h131q98 160 144 411q45 251 45 648v189h829zM983 1245h-393q0 -705 -178 -1059h571v1059z" />
    <glyph glyph-name="afii10022" unicode="&#x415;" 
d="M203 1434h844v-189h-621v-424h594v-178h-594v-455h651v-188h-874v1434z" />
    <glyph glyph-name="afii10024" unicode="&#x416;" horiz-adv-x="2088" 
d="M1151 0h-221v629h-137q-105 0 -165 -42t-98 -138l-178 -449h-258l209 498q72 170 139 228q68 58 176 75l-440 633h262l410 -617h80v617h221v-617h80l409 617h261l-441 -633q102 -13 174 -73t144 -230l209 -498h-258l-179 449q-39 100 -100 140t-164 40h-135v-629z" />
    <glyph glyph-name="afii10025" unicode="&#x417;" horiz-adv-x="1171" 
d="M522 797q123 -1 197 71t74 178q-1 106 -61 166q-60 62 -185 62t-174 -65t-60 -169l-202 27q4 168 116 281q113 112 331 112t345 -102t127 -295q0 -100 -56 -186t-167 -134q270 -74 270 -356q0 -141 -76 -237q-140 -177 -438 -177q-246 0 -454 166l69 174
q168 -143 367 -143q135 0 214 55t79 168q0 231 -310 232h-155v172h149z" />
    <glyph glyph-name="afii10026" unicode="&#x418;" horiz-adv-x="1458" 
d="M203 0v1434h207v-1031l645 1031h198v-1434h-206v1026l-648 -1026h-196z" />
    <glyph glyph-name="afii10027" unicode="&#x419;" horiz-adv-x="1458" 
d="M203 0v1434h207v-1031l645 1031h198v-1434h-206v1026l-648 -1026h-196zM729 1589q-135 0 -214 69t-91 195h158q20 -121 147 -121t148 121h157q-12 -127 -91 -195t-214 -69z" />
    <glyph glyph-name="afii10028" unicode="&#x41a;" horiz-adv-x="1353" 
d="M203 0v1434h221v-617h86l403 617h263q-55 -78 -206 -297t-235 -336q100 -13 169 -67t130 -197l226 -537h-259l-178 449q-39 100 -99 140t-163 40h-137v-629h-221z" />
    <glyph glyph-name="afii10029" unicode="&#x41b;" horiz-adv-x="1382" 
d="M47 0v168h68q75 0 101 53t30 174l28 1039h883v-1434h-221v1245h-461l-24 -823q-8 -242 -86 -332t-234 -90h-84z" />
    <glyph glyph-name="afii10030" unicode="&#x41c;" horiz-adv-x="1923" 
d="M295 1434h248l418 -1051l413 1051h246l147 -1434h-223l-100 1077l-377 -962h-217l-377 962l-100 -1077h-221z" />
    <glyph glyph-name="afii10031" unicode="&#x41d;" horiz-adv-x="1523" 
d="M203 1434h223v-607h670v607h223v-1434h-223v631h-670v-631h-223v1434z" />
    <glyph glyph-name="afii10032" unicode="&#x41e;" horiz-adv-x="1400" 
d="M698 1270q-137 0 -208 -44q-72 -44 -102 -161t-30 -394t74 -392t265 -115t265 114q73 114 72 435q0 237 -30 353t-100 160q-69 44 -206 44zM672 1460q198 0 300 -30t174 -113q72 -84 98 -226t26 -378q0 -416 -124 -578t-444 -162t-445 163q-126 163 -126 577
q0 307 54 467t172 220q117 60 315 60z" />
    <glyph glyph-name="afii10033" unicode="&#x41f;" horiz-adv-x="1435" 
d="M1231 1434v-1434h-221v1245h-586v-1245h-221v1434h1028z" />
    <glyph glyph-name="afii10034" unicode="&#x420;" horiz-adv-x="1267" 
d="M203 1434h415q295 0 420 -102t125 -356q1 -253 -151 -371t-400 -118q-100 0 -186 17v-504h-223v1434zM426 1251v-567q111 -14 170 -14q342 0 342 286q0 162 -75 229t-245 66h-192z" />
    <glyph glyph-name="afii10035" unicode="&#x421;" horiz-adv-x="1234" 
d="M658 1274q-136 0 -199 -41t-93 -159t-30 -326t19 -317q35 -203 183 -251q65 -20 169 -20q221 0 397 104q18 -129 26 -180q-201 -111 -436 -111q-154 0 -254 29t-181 108q-81 78 -118 228t-37 379t33 375t107 228q74 81 170 111t243 29q225 0 340 -116t121 -306l-203 -26
q-14 122 -68 192q-53 70 -189 70z" />
    <glyph glyph-name="afii10036" unicode="&#x422;" horiz-adv-x="1220" 
d="M55 1434h1110v-195h-442v-1239h-225v1239h-443v195z" />
    <glyph glyph-name="afii10037" unicode="&#x423;" horiz-adv-x="1277" 
d="M152 0v182q141 0 237 51t141 127l-444 1074h246l350 -861l315 861h220l-328 -869q-117 -309 -299 -437t-438 -128z" />
    <glyph glyph-name="afii10038" unicode="&#x424;" horiz-adv-x="1499" 
d="M303 706q0 -184 81 -272t253 -98v743q-170 -10 -252 -99t-82 -274zM1194 709q0 186 -81 273t-255 97v-743q174 10 255 98t81 275zM858 1434v-197q557 -18 557 -528q0 -277 -163 -399t-394 -134v-176h-221v176q-221 8 -382 125q-81 59 -127 163t-46 241q0 268 151 394
q152 126 404 138v197h221z" />
    <glyph glyph-name="afii10039" unicode="&#x425;" horiz-adv-x="1288" 
d="M53 1434h260l340 -537l355 537h237l-467 -701l484 -733h-261l-366 557l-365 -557h-241l479 723z" />
    <glyph glyph-name="afii10040" unicode="&#x426;" horiz-adv-x="1435" 
d="M203 0v1434h221v-1248h586v1248h221v-1248h133l-21 -501h-151l-21 315h-968z" />
    <glyph glyph-name="afii10041" unicode="&#x427;" horiz-adv-x="1304" 
d="M883 1434h217v-1434h-217v514q-154 -61 -330 -61t-296 95t-120 306v580h217v-555q0 -231 250 -232q133 0 279 58v729z" />
    <glyph glyph-name="afii10042" unicode="&#x428;" horiz-adv-x="1814" 
d="M1634 1434v-1434h-1450v1434h219v-1248h396v1248h219v-1248h395v1248h221z" />
    <glyph glyph-name="afii10043" unicode="&#x429;" horiz-adv-x="1814" 
d="M184 0v1434h222v-1246h393v1246h221v-1246h393v1246h221v-1246h133l-20 -460h-152l-20 272h-1391z" />
    <glyph glyph-name="afii10044" unicode="&#x42a;" horiz-adv-x="1179" 
d="M592 750h-168v-570h172q129 0 205 72t76 216t-77 213t-208 69zM604 0h-401v1245h-203v189h424v-506h184q496 0 496 -457q0 -227 -132 -349t-368 -122z" />
    <glyph glyph-name="afii10045" unicode="&#x42b;" horiz-adv-x="1677" 
d="M592 750h-168v-570h172q129 0 205 72t76 216t-77 213t-208 69zM203 1434h221v-506h164q266 0 391 -114t125 -342t-132 -350t-368 -122h-401v1434zM1249 1434h224v-1434h-224v1434z" />
    <glyph glyph-name="afii10046" unicode="&#x42c;" horiz-adv-x="1208" 
d="M592 750h-168v-570h172q129 0 205 72t76 216t-77 213t-208 69zM203 1434h221v-506h164q266 0 391 -114t125 -342t-132 -350t-368 -122h-401v1434z" />
    <glyph glyph-name="afii10047" unicode="&#x42d;" horiz-adv-x="1173" 
d="M498 1460q147 0 243 -30t167 -111q136 -157 135 -590q-1 -432 -125 -594t-447 -162q-213 0 -360 70l30 195q147 -76 318 -76t253 99q81 99 91 372h-490v182h492q-7 263 -77 361t-236 98t-222 -157q-12 -34 -22 -81q-186 23 -193 23q6 165 118 283t325 118z" />
    <glyph glyph-name="afii10048" unicode="&#x42e;" horiz-adv-x="2033" 
d="M1331 1270q-137 0 -208 -44t-101 -161t-31 -394q0 -277 74 -392t265 -115t264 114t73 392t-31 396q-31 116 -99 160q-69 44 -206 44zM1312 1460q190 0 294 -30q102 -30 173 -113q71 -84 97 -226t27 -378q0 -416 -124 -578q-123 -162 -435 -162q-312 1 -440 147t-138 511
h-340v-631h-223v1434h223v-607h340q10 257 68 393t174 188q114 52 304 52z" />
    <glyph glyph-name="afii10049" unicode="&#x42f;" horiz-adv-x="1312" 
d="M877 756v489h-154q-141 0 -208 -49t-66 -190q0 -250 296 -250h132zM211 1020q0 414 502 414h385v-1434h-221v569h-99q-84 0 -130 -40t-97 -134l-197 -395h-239l207 401q59 117 100 166t110 74q-137 19 -229 119t-92 260z" />
    <glyph glyph-name="afii10065" unicode="&#x430;" horiz-adv-x="1155" 
d="M733 774q0 86 -41 123t-171 37t-339 -66v183q201 63 404 63q202 0 286 -68t84 -221v-667l158 35l27 -150l-307 -70l-56 31l-14 76q-188 -106 -334 -106t-237 74q-92 75 -93 212q0 200 194 290q163 76 439 112v112zM733 238v284q-213 -25 -313 -79t-101 -158
q0 -66 43 -102t115 -36q111 1 256 91z" />
    <glyph glyph-name="afii10066" unicode="&#x431;" horiz-adv-x="1169" 
d="M600 1114q121 0 202 -22t144 -83q123 -117 123 -462t-124 -463q-65 -61 -149 -86t-211 -25q-126 0 -209 24q-194 56 -247 269q-31 121 -31 307q0 334 49 530t156 286q68 55 166 87t262 58t221 39v-187q-32 -6 -120 -16t-148 -20t-131 -36q-72 -26 -113 -63
q-90 -84 -104 -256q88 119 264 119zM596 950q-84 0 -125 -12t-78 -53t-51 -124t-14 -237t30 -242q30 -89 81 -114t145 -25t144 25q110 55 110 379q0 325 -109 379q-49 24 -133 24z" />
    <glyph glyph-name="afii10067" unicode="&#x432;" horiz-adv-x="1093" 
d="M578 0h-396v1087h379q389 0 389 -280q0 -88 -49 -154t-121 -88q209 -59 209 -258q1 -155 -111 -231t-300 -76zM408 936v-311h143q84 0 126 45t42 121q0 145 -166 145h-145zM408 475v-323h159q184 0 185 159q0 164 -197 164h-147z" />
    <glyph glyph-name="afii10068" unicode="&#x433;" horiz-adv-x="942" 
d="M188 0v1087h686v-157h-462v-930h-224z" />
    <glyph glyph-name="afii10069" unicode="&#x434;" horiz-adv-x="1273" 
d="M537 930q0 -295 -36 -464t-116 -308h481v772h-329zM352 930v157h738v-929h116l-20 -473h-150l-20 315h-756l-20 -315h-152l-18 473h114q86 125 127 296t41 476z" />
    <glyph glyph-name="afii10070" unicode="&#x435;" horiz-adv-x="1110" 
d="M788 657q0 163 -50 223t-167 60t-175 -56t-68 -227h460zM1006 518h-680q2 -209 84 -289q82 -79 236 -79t333 86l27 -166q-186 -96 -403 -96t-350 109q-153 126 -153 460q0 335 124 454t351 118q228 -1 329 -113t102 -340v-144z" />
    <glyph glyph-name="afii10072" unicode="&#x436;" horiz-adv-x="1857" 
d="M1040 0h-225v461h-147q-80 0 -121 -36t-84 -124l-148 -301h-247l198 383q58 111 114 164t142 61l-389 479h246l369 -466h67v466h225v-466h68l369 466h245l-389 -479q87 -10 143 -62t113 -163l201 -383h-248l-149 301q-47 90 -86 125t-117 35h-150v-461z" />
    <glyph glyph-name="afii10073" unicode="&#x437;" horiz-adv-x="983" 
d="M643 791q0 69 -47 113t-127 44t-122 -43t-52 -139l-186 12q2 150 96 243t266 93t287 -81t114 -228q0 -82 -46 -150t-109 -96q203 -68 203 -264q0 -162 -129 -242t-327 -80t-372 78l37 168q166 -80 315 -80q96 0 176 41q79 41 78 117q0 156 -227 156h-166v147h158
q180 0 180 191z" />
    <glyph glyph-name="afii10074" unicode="&#x438;" horiz-adv-x="1294" 
d="M1104 1087v-1087h-209v743l-512 -743h-195v1087h209v-747l498 747h209z" />
    <glyph glyph-name="afii10075" unicode="&#x439;" horiz-adv-x="1294" 
d="M1104 1087v-1087h-209v743l-512 -743h-195v1087h209v-747l498 747h209zM645 1243q-135 0 -214 69t-91 195h158q20 -121 147 -121t148 121h157q-12 -127 -91 -195t-214 -69z" />
    <glyph glyph-name="afii10076" unicode="&#x43a;" horiz-adv-x="1236" 
d="M418 0h-223v1087h223v-466h67l369 466h246l-389 -479q86 -8 135 -50t93 -124q100 -185 228 -434h-247l-162 330q-35 72 -77 102t-114 29h-149v-461z" />
    <glyph glyph-name="afii10077" unicode="&#x43b;" horiz-adv-x="1198" 
d="M27 0v158h47q74 0 98 36t27 138l18 755h772v-1087h-223v930h-348l-17 -586q-3 -180 -77 -262t-224 -82h-73z" />
    <glyph glyph-name="afii10078" unicode="&#x43c;" horiz-adv-x="1431" 
d="M199 1087h239l283 -729l272 729h242l106 -1087h-211l-67 762l-250 -678h-192l-254 678l-72 -762h-207z" />
    <glyph glyph-name="afii10079" unicode="&#x43d;" horiz-adv-x="1323" 
d="M911 453h-499v-453h-224v1087h224v-444h499v444h224v-1087h-224v453z" />
    <glyph glyph-name="afii10080" unicode="&#x43e;" horiz-adv-x="1171" 
d="M587 944q-73 0 -114 -11t-78 -51t-51 -122t-14 -236t30 -242q30 -89 81 -114t145 -25t144 25q110 55 110 347t-65 366q-35 41 -75 52t-113 11zM591 1114q130 0 213 -22q84 -22 148 -83q120 -115 119 -461q0 -346 -124 -464q-65 -61 -149 -86t-211 -25q-126 0 -209 22
q-194 51 -247 255q-31 115 -31 291t30 289q55 208 246 260q85 24 215 24z" />
    <glyph glyph-name="afii10081" unicode="&#x43f;" horiz-adv-x="1347" 
d="M1159 1087v-1087h-225v930h-522v-930h-224v1087h971z" />
    <glyph glyph-name="afii10082" unicode="&#x440;" horiz-adv-x="1236" 
d="M899 552q0 216 -72 293t-206 77q-74 -1 -213 -17v-723q127 -27 213 -26q133 0 205 90t73 306zM1137 553q0 -580 -484 -580q-92 0 -245 29v-432h-226v1497q282 47 422 47t224 -24t157 -81q152 -119 152 -456z" />
    <glyph glyph-name="afii10083" unicode="&#x441;" horiz-adv-x="1069" 
d="M971 729h-201q-20 211 -205 211q-92 0 -136 -25q-95 -54 -93 -372q0 -255 85 -330q42 -37 82 -49t99 -12q180 0 332 84l24 -166q-180 -96 -389 -97q-261 0 -374 163q-95 137 -95 388q0 252 54 378q53 126 150 169q96 43 284 43t286 -104t97 -281z" />
    <glyph glyph-name="afii10084" unicode="&#x442;" horiz-adv-x="1087" 
d="M1012 1087v-157h-357v-930h-225v930h-356v157h938z" />
    <glyph glyph-name="afii10085" unicode="&#x443;" horiz-adv-x="1189" 
d="M1022 1087v-1187q0 -184 -130 -272t-329 -87q-199 0 -405 62l26 188q190 -63 342 -63t211 42t60 128v143q-174 -68 -320 -68q-147 0 -235 79t-88 249v786h225v-770q0 -154 176 -153q115 0 242 59v864h225z" />
    <glyph glyph-name="afii10086" unicode="&#x444;" horiz-adv-x="1421" 
d="M598 141v801q-74 0 -116 -11t-80 -51q-70 -74 -70 -336t69 -336q37 -40 81 -54t116 -13zM821 1495v-381q133 0 219 -22q199 -52 251 -259q30 -116 30 -296q0 -324 -121 -444t-379 -120v-403h-223v403q-127 0 -214 25q-196 56 -252 259q-32 112 -32 286q0 347 126 465
q67 61 153 84t219 22v381h223zM821 942v-801q72 -1 116 13t82 54q69 73 70 335q1 263 -71 337q-39 40 -81 51t-116 11z" />
    <glyph glyph-name="afii10087" unicode="&#x445;" horiz-adv-x="1081" 
d="M33 1085h246q209 -309 266 -395l270 395h238l-379 -530l381 -555h-252l-277 406q-92 -135 -280 -406h-230l383 545z" />
    <glyph glyph-name="afii10088" unicode="&#x446;" horiz-adv-x="1325" 
d="M1137 158h118l-20 -473h-150l-20 315h-877v1087h224v-929h499v929h226v-929z" />
    <glyph glyph-name="afii10089" unicode="&#x447;" 
d="M350 1087v-438q0 -190 201 -190q119 0 231 63v565h222v-1087h-222v354q-128 -59 -286 -59t-263 85q-104 85 -104 263v444h221z" />
    <glyph glyph-name="afii10090" unicode="&#x448;" horiz-adv-x="1824" 
d="M1636 0h-1448v1087h226v-929h387v929h223v-929h389v929h223v-1087z" />
    <glyph glyph-name="afii10091" unicode="&#x449;" horiz-adv-x="1824" 
d="M188 0v1087h226v-929h387v929h223v-929h389v929h223v-929h119l-18 -473h-158l-20 315h-1371z" />
    <glyph glyph-name="afii10092" unicode="&#x44a;" horiz-adv-x="1126" 
d="M412 535v-377h163q129 0 187 44q57 44 57 148t-58 144t-190 41h-159zM0 930v157h412v-395h176q225 0 343 -78t118 -264t-120 -268t-345 -82h-396v930h-188z" />
    <glyph glyph-name="afii10093" unicode="&#x44b;" horiz-adv-x="1611" 
d="M1200 1087h223v-1087h-223v1087zM410 535v-377h163q129 0 187 44q57 44 57 148t-58 144t-190 41h-159zM410 1087v-395h176q225 0 343 -78t118 -265t-120 -268t-345 -81h-394v1087h222z" />
    <glyph glyph-name="afii10094" unicode="&#x44c;" horiz-adv-x="1120" 
d="M412 535v-377h163q129 0 186 44q56 44 56 148t-57 144t-189 41h-159zM412 1087v-395h176q223 0 341 -78t118 -265t-120 -268t-345 -81h-394v1087h224z" />
    <glyph glyph-name="afii10095" unicode="&#x44d;" horiz-adv-x="993" 
d="M440 946q-100 0 -138 -49t-46 -145l-186 12q2 156 90 253t268 97q242 0 354 -132t111 -446q0 -314 -114 -438t-388 -125q-164 0 -301 52l25 168q139 -49 276 -49t201 62t72 247h-447v145h449q-8 200 -67 274t-159 74z" />
    <glyph glyph-name="afii10096" unicode="&#x44e;" horiz-adv-x="1755" 
d="M1129 944q-73 0 -113 -11t-78 -51q-37 -40 -51 -122q-15 -82 -15 -236t31 -242q31 -89 81 -114t144 -25t145 25q111 55 109 371q0 269 -64 342q-36 41 -76 52t-113 11zM1137 1114q127 0 211 -22t147 -83q119 -117 119 -462t-124 -463q-65 -61 -150 -86t-207 -25
q-121 1 -199 19q-182 43 -244 216q-35 97 -43 247h-235v-455h-224v1087h224v-444h235q8 143 42 237q63 170 243 214q80 20 205 20z" />
    <glyph glyph-name="afii10097" unicode="&#x44f;" horiz-adv-x="1259" 
d="M682 930q-116 0 -176 -39t-60 -133t71 -144t179 -49h158v365h-172zM1077 1087v-1087h-223v408h-131q-78 0 -120 -29t-89 -103l-174 -276h-250l186 301q55 90 86 122t95 52q-98 25 -168 102t-70 191q0 174 126 247t378 72h354z" />
    <glyph glyph-name="uni0450" unicode="&#x450;" horiz-adv-x="1110" 
d="M788 657q0 163 -50 223t-167 60t-175 -56t-68 -227h460zM1006 518h-680q2 -209 84 -289q82 -79 236 -79t333 86l27 -166q-186 -96 -403 -96t-350 109q-153 126 -153 460q0 335 124 454t351 118q228 -1 329 -113t102 -340v-144zM233 1536h232l223 -324h-194z" />
    <glyph glyph-name="afii10071" unicode="&#x451;" horiz-adv-x="1110" 
d="M287 1477h188v-201h-188v201zM637 1477h188v-201h-188v201zM788 657q0 163 -50 223t-167 60t-175 -56t-68 -227h460zM1006 518h-680q2 -209 84 -289q82 -79 236 -79t333 86l27 -166q-186 -96 -403 -96t-350 109q-153 126 -153 460q0 335 124 454t351 118q228 -1 329 -113
t102 -340v-144z" />
    <glyph glyph-name="afii10099" unicode="&#x452;" horiz-adv-x="1275" 
d="M727 1346v-125h-313v-168q226 61 368 61t237 -72t95 -231v-326q0 -271 -76 -405q-41 -74 -80 -120t-108 -112l-148 127q96 91 142 191t47 295v280q0 182 -205 183q-88 0 -272 -45v-879h-226v1221h-137v125h137v149h226v-149h313z" />
    <glyph glyph-name="afii10100" unicode="&#x453;" horiz-adv-x="942" 
d="M188 0v1087h686v-157h-462v-930h-224zM573 1536h232l-260 -324h-197z" />
    <glyph glyph-name="afii10101" unicode="&#x454;" horiz-adv-x="997" 
d="M554 946q-100 0 -158 -74t-66 -274h446v-145h-444q8 -185 70 -247t200 -62t277 49l24 -168q-137 -51 -301 -52q-274 0 -388 124q-114 125 -114 439t112 446t355 132q181 0 269 -98t88 -252l-185 -12q-10 98 -47 146t-138 48z" />
    <glyph glyph-name="afii10102" unicode="&#x455;" horiz-adv-x="1009" 
d="M505 946q-173 0 -173 -129q0 -53 58 -98t142 -83t168 -80t142 -111t59 -154q0 -147 -110 -233q-111 -85 -293 -85q-268 0 -424 156l88 141q139 -127 332 -127q82 0 132 33q50 34 50 98t-88 119t-192 97t-193 124q-88 82 -88 189q0 143 107 227q108 84 283 84t275 -94
t105 -234l-189 -20q-6 84 -58 132t-133 48z" />
    <glyph glyph-name="afii10103" unicode="&#x456;" horiz-adv-x="589" 
d="M182 1454h226v-219h-226v219zM182 1087h226v-1087h-226v1087z" />
    <glyph glyph-name="afii10104" unicode="&#x457;" horiz-adv-x="589" 
d="M25 1477h190v-201h-190v201zM377 1477h188v-201h-188v201zM182 1087h226v-1087h-226v1087z" />
    <glyph glyph-name="afii10105" unicode="&#x458;" horiz-adv-x="591" 
d="M184 1454h226v-219h-226v219zM410 1087v-1323q0 -110 -73 -166t-191 -56t-236 48l14 154q104 -39 156 -39q52 -1 79 19q26 20 25 75v1288h226z" />
    <glyph glyph-name="afii10106" unicode="&#x459;" horiz-adv-x="1699" 
d="M1151 535h-158v-377h162q129 0 185 44t56 148t-56 144q-58 40 -189 41zM29 0v158h47q63 0 94 39t33 135l16 755h774v-395h174q225 0 343 -78t118 -265t-121 -268t-346 -81h-393v930h-346l-16 -602q-4 -176 -79 -252t-225 -76h-73z" />
    <glyph glyph-name="afii10107" unicode="&#x45a;" horiz-adv-x="1828" 
d="M1135 510v-352h163q119 0 173 38q55 38 55 139t-54 138t-178 37h-159zM911 473h-499v-473h-224v1087h224v-425h499v425h224v-419h176q227 0 337 -76t110 -259t-114 -258t-339 -75h-394v473z" />
    <glyph glyph-name="afii10108" unicode="&#x45b;" horiz-adv-x="1269" 
d="M768 1229h-360v-187q28 7 144 39q116 33 208 33q156 0 253 -76t97 -237v-801h-225v731q-1 97 -57 145t-134 48t-179 -26q-100 -26 -107 -30v-868h-226v1229h-143v119h143v147h226v-147h360v-119z" />
    <glyph glyph-name="afii10109" unicode="&#x45c;" horiz-adv-x="1236" 
d="M418 0h-223v1087h223v-466h67l369 466h246l-389 -479q86 -8 135 -50t93 -124q100 -185 228 -434h-247l-162 330q-35 72 -77 102t-114 29h-149v-461zM700 1536h232l-260 -324h-197z" />
    <glyph glyph-name="uni045D" unicode="&#x45d;" horiz-adv-x="1294" 
d="M1104 1087v-1087h-209v743l-512 -743h-195v1087h209v-747l498 747h209zM350 1536h232l223 -324h-195z" />
    <glyph glyph-name="afii10110" unicode="&#x45e;" horiz-adv-x="1189" 
d="M594 1243q-135 0 -214 69t-91 195h157q20 -121 148 -121t147 121h158q-12 -127 -91 -195t-214 -69zM1022 1087v-1187q0 -184 -130 -272t-329 -87q-199 0 -405 62l26 188q190 -63 342 -63t211 42t60 128v143q-174 -68 -320 -68q-147 0 -235 79t-88 249v786h225v-770
q0 -154 176 -153q115 0 242 59v864h225z" />
    <glyph glyph-name="afii10193" unicode="&#x45f;" horiz-adv-x="1325" 
d="M1137 0h-377l-19 -315h-159l-19 315h-375v1087h224v-929h499v929h226v-1087z" />
    <glyph glyph-name="afii10146" unicode="&#x462;" horiz-adv-x="1208" 
d="M608 643h-184v-463h188q127 0 196 52t69 174q0 238 -269 237zM424 942v-121h201q247 0 363 -98t116 -313q0 -410 -483 -410h-418v942h-230v145h230v347h221v-347h295v-145h-295z" />
    <glyph glyph-name="afii10194" unicode="&#x463;" horiz-adv-x="1165" 
d="M457 535v-377h164q129 0 185 44t56 148t-57 144t-189 41h-159zM6 930v157h227v408h224v-408h323v-157h-323v-238h176q225 0 343 -78t118 -265t-121 -268t-346 -81h-394v930h-227z" />
    <glyph glyph-name="afii10147" unicode="&#x472;" horiz-adv-x="1400" 
d="M696 1272q-186 0 -258 -91t-80 -364h674q-8 271 -79 363t-257 92zM697 160q179 0 254 101t81 378h-674q6 -271 83 -375t256 -104zM672 1460q198 0 300 -30t174 -113q72 -84 98 -227t26 -377q0 -414 -124 -577t-444 -163t-445 163q-126 163 -126 577q0 307 54 467t172 220
q117 60 315 60z" />
    <glyph glyph-name="afii10195" unicode="&#x473;" horiz-adv-x="1171" 
d="M586 143q88 1 136 21q108 46 116 307h-506q6 -205 64 -267t190 -61zM586 944q-134 0 -190 -57t-64 -258h506q-8 206 -74 265q-36 32 -74 41t-104 9zM591 1114q130 0 213 -22q84 -22 148 -83q120 -115 119 -461q0 -346 -124 -464q-65 -61 -149 -86t-211 -25
q-126 0 -209 22q-194 51 -247 255q-31 115 -31 291t30 289q55 208 246 260q85 24 215 24z" />
    <glyph glyph-name="afii10148" unicode="&#x474;" horiz-adv-x="1310" 
d="M39 1434h244l383 -1170l385 1170h221l-486 -1434h-251z" />
    <glyph glyph-name="afii10196" unicode="&#x475;" horiz-adv-x="1112" 
d="M14 1087h236q156 -422 317 -866l301 866h226l-414 -1087h-248z" />
    <glyph glyph-name="afii10050" unicode="&#x490;" horiz-adv-x="1058" 
d="M991 1245h-565v-1245h-223v1434h583l41 260h164v-449z" />
    <glyph glyph-name="afii10098" unicode="&#x491;" horiz-adv-x="942" 
d="M412 928v-928h-224v1087h502l19 234h145l20 -393h-462z" />
    <glyph glyph-name="Wgrave" unicode="&#x1e80;" horiz-adv-x="1986" 
d="M635 1882h231l224 -323h-195zM870 1434h250l322 -1162l272 1162h240l-365 -1434h-274l-322 1139l-321 -1139h-273l-364 1434h241l271 -1162z" />
    <glyph glyph-name="wgrave" unicode="&#x1e81;" horiz-adv-x="1697" 
d="M516 1536h232l223 -324h-195zM735 1087h248l254 -821l221 821h225l-331 -1087h-238l-262 836l-268 -836h-232l-340 1087h238l227 -821z" />
    <glyph glyph-name="Wacute" unicode="&#x1e82;" horiz-adv-x="1986" 
d="M1108 1882h231l-260 -323h-196zM870 1434h250l322 -1162l272 1162h240l-365 -1434h-274l-322 1139l-321 -1139h-273l-364 1434h241l271 -1162z" />
    <glyph glyph-name="wacute" unicode="&#x1e83;" horiz-adv-x="1697" 
d="M977 1536h231l-260 -324h-196zM735 1087h248l254 -821l221 821h225l-331 -1087h-238l-262 836l-268 -836h-232l-340 1087h238l227 -821z" />
    <glyph glyph-name="Wdieresis" unicode="&#x1e84;" horiz-adv-x="1986" 
d="M723 1823h188v-201h-188v201zM1075 1823h189v-201h-189v201zM870 1434h248l324 -1164l272 1164h240l-367 -1434h-272l-322 1141l-321 -1141h-273l-364 1434h239l273 -1164z" />
    <glyph glyph-name="wdieresis" unicode="&#x1e85;" horiz-adv-x="1697" 
d="M584 1477h188v-201h-188v201zM934 1477h188v-201h-188v201zM735 1087h248l254 -821l221 821h225l-331 -1087h-238l-262 836l-268 -836h-232l-340 1087h238l227 -821z" />
    <glyph glyph-name="Ygrave" unicode="&#x1ef2;" horiz-adv-x="1222" 
d="M276 1882h232l223 -323h-194zM725 0h-225v565l-475 869h249l340 -641l344 641h242l-475 -869v-565z" />
    <glyph glyph-name="ygrave" unicode="&#x1ef3;" horiz-adv-x="1189" 
d="M281 1536h231l223 -324h-194zM1022 1087v-1181q0 -188 -125 -276t-323 -89q-198 0 -416 62l26 184q203 -68 357 -68q256 0 256 183v145q-168 -67 -316 -67q-149 0 -237 82t-88 255v770h223v-753q0 -164 176 -164q119 0 242 59v858h225z" />
    <glyph glyph-name="endash" unicode="&#x2013;" horiz-adv-x="1259" 
d="M1079 772v-182h-899v182h899z" />
    <glyph glyph-name="emdash" unicode="&#x2014;" horiz-adv-x="2113" 
d="M1933 772v-182h-1753v182h1753z" />
    <glyph glyph-name="quoteleft" unicode="&#x2018;" horiz-adv-x="528" 
d="M315 948h-225l162 486h184z" />
    <glyph glyph-name="quoteright" unicode="&#x2019;" horiz-adv-x="528" 
d="M211 1434h225l-162 -486h-184z" />
    <glyph glyph-name="quotesinglbase" unicode="&#x201a;" horiz-adv-x="528" 
d="M211 131h225l-162 -485h-184z" />
    <glyph glyph-name="quotedblleft" unicode="&#x201c;" horiz-adv-x="884" 
d="M682 948h-231l159 486h185zM307 948h-231l221 486h184z" />
    <glyph glyph-name="quotedblright" unicode="&#x201d;" horiz-adv-x="884" 
d="M205 1434h231l-162 -486h-184zM580 1434h229l-221 -486h-182z" />
    <glyph glyph-name="quotedblbase" unicode="&#x201e;" horiz-adv-x="884" 
d="M205 133h231l-162 -485h-184zM580 133h229l-221 -485h-182z" />
    <glyph glyph-name="dagger" unicode="&#x2020;" horiz-adv-x="958" 
d="M883 1225v-150h-299v-532h-205v532h-303v150h303v209h205v-209h299z" />
    <glyph glyph-name="daggerdbl" unicode="&#x2021;" horiz-adv-x="958" 
d="M584 758v-215h-205v215h-260v149h260v168h-303v150h303v209h205v-209h299v-150h-299v-168h254v-149h-254z" />
    <glyph glyph-name="bullet" unicode="&#x2022;" horiz-adv-x="862" 
d="M430 434q-116 0 -194 72t-78 175t79 176t193 73t195 -73q80 -73 80 -176t-80 -175t-195 -72z" />
    <glyph glyph-name="ellipsis" unicode="&#x2026;" horiz-adv-x="1636" 
d="M1251 223h240v-223h-240v223zM696 223h242v-223h-242v223zM143 223h242v-223h-242v223z" />
    <glyph glyph-name="perthousand" unicode="&#x2030;" horiz-adv-x="2299" 
d="M1219 545q-70 0 -104 -49t-34 -164t34 -164t104 -49q71 0 103 48t32 164t-32 165t-103 49zM1219 688q161 0 235 -85t74 -273q0 -356 -309 -357q-311 -1 -311 357t311 358zM370 891q68 0 102 48t34 163t-34 165t-102 50q-69 0 -104 -49t-35 -164t35 -164t104 -49z
M371 1460q157 0 233 -86t76 -272q0 -356 -309 -357q-311 -1 -311 357t311 358zM1198 1434h193l-1004 -1434h-188zM1929 545q-69 0 -103 -49t-34 -164t34 -164t104 -49t103 48t33 163t-33 165q-34 50 -104 50zM1931 688q158 0 234 -86t76 -266t-79 -271t-231 -92
q-311 -1 -311 357t311 358z" />
    <glyph glyph-name="guilsinglleft" unicode="&#x2039;" horiz-adv-x="831" 
d="M750 137h-238l-428 475l428 475h238l-414 -475z" />
    <glyph glyph-name="guilsinglright" unicode="&#x203a;" horiz-adv-x="831" 
d="M319 137h-237l414 475l-414 475h237l429 -475z" />
    <glyph glyph-name="fraction" unicode="&#x2044;" 
d="M997 1434h197l-999 -1434h-195z" />
    <glyph glyph-name="fraction" unicode="&#x2215;" 
d="M997 1434h197l-999 -1434h-195z" />
    <glyph glyph-name="Euro" unicode="&#x20ac;" 
d="M730 -27q-238 0 -373 121q-136 121 -179 387h-160v133h146q-2 31 -2 86v80h-144v133h154q20 287 150 417t364 130q236 0 352 -110t129 -285l-223 -33q-39 225 -250 225q-141 1 -211 -83t-84 -261h557l-28 -133h-533q-2 -24 -2 -64t4 -102h500l-27 -133h-452
q24 -171 110 -245t260 -74t340 98l41 -174q-201 -113 -439 -113z" />
    <glyph glyph-name="trademark" unicode="&#x2122;" horiz-adv-x="1853" 
d="M754 707l106 727h187l196 -461l197 461h188l105 -727h-174l-66 473l-178 -416h-146l-176 416l-65 -473h-174zM57 1434h643v-140h-237v-587h-172v587h-234v140z" />
    <glyph glyph-name="partialdiff" unicode="&#x2202;" horiz-adv-x="1247" 
d="M598 678q-152 0 -229 -79q-78 -79 -78 -222q0 -97 56 -155t159 -58q276 0 373 428q-129 86 -281 86zM938 993q0 274 -240 275q-205 0 -276 -197l-207 41q117 348 518 348q207 0 322 -119t114 -358q0 -111 -28 -270q-72 -385 -244 -562t-416 -178q-188 1 -305 99t-117 272
q0 254 150 383t371 129q176 0 335 -88q23 131 23 225z" />
    <glyph glyph-name="product" unicode="&#x220f;" horiz-adv-x="1515" 
d="M203 1434h1110v-1434h-226v1235h-659v-1235h-225v1434z" />
    <glyph glyph-name="summation" unicode="&#x2211;" horiz-adv-x="1185" 
d="M94 1434h971v-189h-662l474 -526l-476 -531h695v-188h-1002v141l522 580l-522 571v142z" />
    <glyph glyph-name="minus" unicode="&#x2212;" 
d="M1053 772v-182h-912v182h912z" />
    <glyph glyph-name="radical" unicode="&#x221a;" horiz-adv-x="1366" 
d="M76 905v182h323l285 -862l414 1209h227l-512 -1434h-268l-316 905h-153z" />
    <glyph glyph-name="infinity" unicode="&#x221e;" horiz-adv-x="1476" 
d="M416 961q170 0 321 -152q158 152 324 152q137 0 223 -73t86 -204t-86 -205t-223 -73q-162 -1 -324 151q-156 -152 -321 -151q-137 0 -223 74t-87 204q0 131 86 204t224 73zM1051 565q57 0 94 29t37 89t-37 89t-94 29q-87 0 -220 -117q131 -119 220 -119zM426 801
q-131 0 -131 -118t131 -118q88 0 219 119q-133 117 -219 117z" />
    <glyph glyph-name="integral" unicode="&#x222b;" horiz-adv-x="778" 
d="M463 1186v-1272q0 -188 -109 -280t-297 -93q-100 0 -182 27l33 174q63 -23 133 -23q197 0 197 195v1266q0 188 108 280q109 92 297 92q86 0 182 -26l-34 -168q-63 23 -134 22q-194 1 -194 -194z" />
    <glyph glyph-name="approxequal" unicode="&#x2248;" 
d="M385 997q76 0 221 -40q145 -39 188 -39t69 22t48 76l170 -62q-74 -211 -293 -211q-66 0 -206 40t-190 40t-77 -23q-26 -24 -49 -75l-170 57q74 215 289 215zM377 600q74 0 219 -40t189 -40t70 23t48 75l170 -59q-78 -213 -293 -213q-66 0 -207 40t-191 40t-77 -24
t-47 -76l-172 61q78 213 291 213z" />
    <glyph glyph-name="notequal" unicode="&#x2260;" 
d="M1053 543v-183h-580l-166 -243h-166l162 243h-162v183h281l170 254h-451v182h572l164 244h176l-168 -244h168v-182h-287l-174 -254h461z" />
    <glyph glyph-name="lessequal" unicode="&#x2264;" 
d="M1053 182v-182h-912v182h912zM1053 1100v-187l-709 -215l709 -215v-186l-912 289v223z" />
    <glyph glyph-name="greaterequal" unicode="&#x2265;" 
d="M1053 182v-182h-912v182h912zM141 913v187l912 -291v-223l-912 -289v186l709 215z" />
    <glyph glyph-name="lozenge" unicode="&#x25ca;" 
d="M596 209l313 510l-313 506l-315 -506zM47 719l436 715h228l436 -715l-436 -719h-228z" />
    <glyph glyph-name="CR" horiz-adv-x="548" 
 />
    </font>
</defs>
</svg>
