<?xml version="1.0" standalone="no"?>
<!DOCTYPE svg PUBLIC "-//W3C//DTD SVG 1.1//EN" "http://www.w3.org/Graphics/SVG/1.1/DTD/svg11.dtd" >
<svg xmlns="http://www.w3.org/2000/svg">
<metadata>
Created by FontPrep 20130207 at Wed Jul  2 11:42:43 2014
 By Steaw
Copyright (c) 2008-2011 BNP Paribas
</metadata>
<defs>
<font id="0f5fe063cc3a998b0e4259a6b403bc7e" horiz-adv-x='1024' >
  <font-face 
    font-family="BNPPSlabSerif-Light"
    font-weight="300"
    font-stretch="normal"
    units-per-em="2048"
    panose-1="2 0 0 0 0 0 0 0 0 0"
    ascent="1546"
    descent="-502"
    x-height="1079"
    cap-height="1434"
    bbox="-127 -496 1937 2111"
    underline-thickness="102"
    underline-position="-102"
    unicode-range="U+0020-FB04"
  />
<missing-glyph horiz-adv-x="1064" 
d="M279 1253v-1151h505v1151h-505zM168 1362h727v-1362h-727v1362z" />
    <glyph glyph-name="f_f" unicode="ff" horiz-adv-x="1189" 
d="M639 0v102h143v875h-450v-875h143v-102h-403v102h143v875h-166v102h166v109q0 172 86 257t234 85q88 0 139 -21v-102q-68 20 -155 20q-187 0 -187 -239v-109h450v109q0 172 86 257t234 85q88 0 139 -21v-102q-69 20 -155 20t-136 -56t-51 -183v-109h266v-102h-266v-875
h143v-102h-403z" />
    <glyph glyph-name="f_i" unicode="fi" horiz-adv-x="1103" 
d="M72 0v102h143v875h-166v102h166v109q0 184 110 263q111 79 273 79t303 -53v-107q-162 57 -299 57t-204 -53t-66 -186v-109h567v-977h143v-102h-403v102h143v875h-450v-875h143v-102h-403z" />
    <glyph glyph-name="f_l" unicode="fl" horiz-adv-x="1103" 
d="M639 0v102h143v1301q-88 25 -202 25t-182 -54q-67 -53 -66 -186v-109h266v-102h-266v-875h143v-102h-403v102h143v875h-166v102h166v109q0 184 110 263q109 79 271 79t303 -55v-1373h143v-102h-403z" />
    <glyph glyph-name="f_f_i" unicode="ffi" horiz-adv-x="1671" 
d="M639 0v102h143v875h-450v-875h143v-102h-403v102h143v875h-166v102h166v109q0 172 86 257t234 85q88 0 139 -21v-102q-68 20 -155 20q-187 0 -187 -239v-109h450v109q0 184 110 263t272 79t304 -53v-107q-162 57 -299 57t-203 -53t-67 -186v-109h567v-977h144v-102h-404
v102h144v875h-451v-875h143v-102h-403z" />
    <glyph glyph-name="f_f_l" unicode="ffl" horiz-adv-x="1671" 
d="M72 0v102h143v875h-166v102h166v109q0 172 86 257t234 85q88 0 139 -21v-102q-68 20 -155 20q-187 0 -187 -239v-109h450v109q0 184 110 263t272 79t302 -55v-1373h144v-102h-404v102h144v1301q-88 25 -203 25t-181 -54q-66 -53 -67 -186v-109h266v-102h-266v-875h143
v-102h-403v102h143v875h-450v-875h143v-102h-403z" />
    <glyph glyph-name=".notdef" horiz-adv-x="1064" 
d="M279 1253v-1151h505v1151h-505zM168 1362h727v-1362h-727v1362z" />
    <glyph glyph-name=".null" horiz-adv-x="0" 
 />
    <glyph glyph-name="nonmarkingreturn" horiz-adv-x="681" 
 />
    <glyph glyph-name="space" unicode=" " horiz-adv-x="573" 
 />
    <glyph glyph-name="exclam" unicode="!" horiz-adv-x="589" 
d="M236 1434h118l-2 -1123h-114zM225 147h137v-147h-137v147z" />
    <glyph glyph-name="quotedbl" unicode="&#x22;" horiz-adv-x="856" 
d="M197 1434h116v-486h-116v486zM543 1434h116v-486h-116v486z" />
    <glyph glyph-name="numbersign" unicode="#" horiz-adv-x="1284" 
d="M526 975l-86 -483h326l86 483h-326zM125 975l18 104h287l62 355h114l-61 -355h325l62 355h115l-62 -355h285l-19 -104h-284l-86 -483h284l-18 -105h-285l-67 -387h-115l68 387h-326l-68 -387h-114l67 387h-287l19 105h287l86 483h-287z" />
    <glyph glyph-name="dollar" unicode="$" 
d="M928 942h-117q-23 268 -281 268q-112 0 -188 -57t-76 -172q0 -80 51 -135t128 -81q77 -25 167 -57t167 -64t128 -100t51 -163q0 -166 -98 -249t-258 -97v-215h-108v215q-213 18 -355 160v239h111v-188q124 -102 276 -102q314 -1 314 223q0 86 -72 140t-173 85
q-101 30 -203 66t-173 114q-72 78 -72 199q-1 168 99 252t248 98v215h108v-217q90 -8 158 -49q112 -68 152 -216q16 -57 16 -112z" />
    <glyph glyph-name="percent" unicode="%" horiz-adv-x="1353" 
d="M1015 76q77 0 111 53t35 189q-1 136 -35 192t-111 55q-77 0 -113 -54q-36 -55 -36 -191t36 -190t113 -54zM1020 664q131 0 188 -80t58 -269q0 -340 -251 -340t-251 344q0 180 62 263q63 82 194 82zM339 1360q-77 0 -113 -54t-36 -190t36 -191t113 -55t112 54t35 189
q0 136 -35 192q-35 55 -112 55zM88 1114q0 180 62 262t194 82q131 0 188 -80t58 -268q0 -340 -251 -340t-251 344zM1073 1434h119l-911 -1434h-117z" />
    <glyph glyph-name="ampersand" unicode="&#x26;" horiz-adv-x="1368" 
d="M348 1126q0 -62 16 -98t22 -52q7 -15 31 -45q25 -30 31 -39t38 -45t38 -44q168 73 238 151t70 184t-67 158q-67 54 -166 54t-175 -50t-76 -174zM236 354q0 -122 99 -196t251 -74q213 0 327 178l-426 410q-125 -57 -188 -126q-63 -70 -63 -192zM1116 633q0 -193 -65 -346
l297 -287h-160l-193 184q-143 -209 -394 -209t-369 111t-117 287q0 131 74 220q75 89 219 159q-186 197 -186 354q0 156 97 254t273 98t269 -91t93 -232t-91 -239t-259 -173l357 -352q39 111 38 262v112h283v-112h-166z" />
    <glyph glyph-name="quotesingle" unicode="'" horiz-adv-x="512" 
d="M197 1434h116v-486h-116v486z" />
    <glyph glyph-name="parenleft" unicode="(" horiz-adv-x="737" 
d="M174 530q0 555 385 977h135q-156 -175 -280 -405q-125 -230 -125 -569t124 -571t281 -408h-135q-385 421 -385 976z" />
    <glyph glyph-name="parenright" unicode=")" horiz-adv-x="737" 
d="M563 530q0 -555 -385 -976h-135q157 176 270 387q136 253 136 592t-136 588q-114 211 -270 386h135q385 -422 385 -977z" />
    <glyph glyph-name="asterisk" unicode="*" horiz-adv-x="1130" 
d="M659 1057l297 -162l-53 -90l-295 184l6 -309h-102l8 309l-295 -184l-53 90l293 162l-293 162l53 92l295 -187l-8 310h102l-6 -310l295 187l53 -92z" />
    <glyph glyph-name="plus" unicode="+" 
d="M506 1079h112v-342h343v-112h-343v-342h-112v342h-340v112h340v342z" />
    <glyph glyph-name="comma" unicode="," horiz-adv-x="512" 
d="M207 147h137l-194 -417h-107z" />
    <glyph glyph-name="hyphen" unicode="-" horiz-adv-x="919" 
d="M705 737v-112h-490v112h490z" />
    <glyph glyph-name="hyphen" unicode="&#xad;" horiz-adv-x="919" 
d="M705 737v-112h-490v112h490z" />
    <glyph glyph-name="period" unicode="." horiz-adv-x="512" 
d="M186 147h138v-147h-138v147z" />
    <glyph glyph-name="slash" unicode="/" horiz-adv-x="741" 
d="M571 1434h119l-522 -1434h-117z" />
    <glyph glyph-name="zero" unicode="0" 
d="M899 718q0 342 -83 486t-252 144t-253 -152t-84 -486t83 -478q83 -146 253 -146t253 145t83 487zM569 1458q217 0 332 -176t115 -563q0 -743 -461 -744q-446 0 -446 738q0 377 121 561q122 184 339 184z" />
    <glyph glyph-name="one" unicode="1" 
d="M190 0v115h355v1196l-352 -191v125l352 189h119v-1319h317v-115h-791z" />
    <glyph glyph-name="two" unicode="2" 
d="M532 1458q199 0 307 -105q107 -105 107 -319t-188 -430l-436 -491h546v209h113v-322h-825v84l501 580q170 198 170 366t-73 243q-74 75 -215 75q-254 -1 -297 -269h-115q8 130 99 249q46 58 126 94t180 36z" />
    <glyph glyph-name="three" unicode="3" 
d="M397 666v112h138q133 0 217 85t84 210t-73 200t-219 75t-217 -78t-89 -191h-115q9 143 113 261t302 118t309 -102q112 -102 111 -287q0 -111 -55 -200t-164 -134q266 -70 267 -360q0 -191 -120 -295t-321 -104t-387 141v243h111v-186q117 -88 270 -88t240 73
q86 73 86 210q0 297 -355 297h-133z" />
    <glyph glyph-name="four" unicode="4" 
d="M719 496v782l-502 -782h502zM555 0v115h164v266h-645v98l614 955h150v-938h188v-115h-188v-266h163v-115h-446z" />
    <glyph glyph-name="five" unicode="5" 
d="M217 1434h748v-320h-113v203h-520v-473q84 18 192 18q236 0 352 -123t116 -319t-112 -321q-112 -124 -318 -124t-369 134v251h110v-196q109 -78 261 -78t229 88t77 240t-84 243q-84 92 -262 93q-127 0 -237 -31l-70 45v670z" />
    <glyph glyph-name="six" unicode="6" 
d="M586 1348q-332 0 -334 -617q174 107 358 107t288 -110q106 -110 106 -314t-118 -321q-118 -118 -306 -118q-446 -1 -446 741t458 742q193 0 287 -112t102 -267h-117q-38 193 -148 244q-54 25 -130 25zM578 86q146 0 229 88q82 88 82 240t-71 232q-71 79 -200 79
q-196 0 -364 -115q12 -276 95 -400t229 -124z" />
    <glyph glyph-name="seven" unicode="7" 
d="M129 1114v320h860v-97l-624 -1337h-129l618 1319h-612v-205h-113z" />
    <glyph glyph-name="eight" unicode="8" 
d="M563 778q133 0 214 84t81 201q0 287 -295 287t-295 -287q0 -117 81 -201t214 -84zM768 733q254 -65 254 -369q0 -166 -124 -277q-124 -112 -335 -112t-335 112t-124 278q0 167 70 253t184 115q-213 96 -213 334q0 183 109 287q110 104 310 104t308 -104t109 -287
q0 -238 -213 -334zM563 666q-338 0 -338 -291q1 -139 97 -214t241 -75t242 75q96 75 96 214q0 291 -338 291z" />
    <glyph glyph-name="nine" unicode="9" 
d="M554 1350q-146 0 -231 -94t-85 -242q0 -149 76 -232q77 -82 206 -82q198 0 352 111q-12 285 -92 412t-226 127zM158 360h110v-190q104 -84 273 -84q324 0 333 602q-170 -100 -350 -100t-291 110t-111 316q0 204 123 324q122 120 310 120q438 0 438 -747q0 -373 -120 -554
q-121 -181 -333 -181t-382 139v245z" />
    <glyph glyph-name="colon" unicode=":" horiz-adv-x="512" 
d="M186 147h138v-147h-138v147zM186 1079h138v-147h-138v147z" />
    <glyph glyph-name="semicolon" unicode=";" horiz-adv-x="512" 
d="M207 147h137l-194 -417h-107zM186 1079h138v-147h-138v147z" />
    <glyph glyph-name="less" unicode="&#x3c;" 
d="M961 1081v-120l-672 -279l672 -279v-120l-795 333v132z" />
    <glyph glyph-name="equal" unicode="=" 
d="M961 944v-113h-795v113h795zM961 508v-113h-795v113h795z" />
    <glyph glyph-name="greater" unicode="&#x3e;" 
d="M166 961v120l795 -333v-132l-795 -333v120l672 279z" />
    <glyph glyph-name="question" unicode="?" horiz-adv-x="964" 
d="M375 147h137v-147h-137v147zM502 311h-117q0 263 75 367q32 44 102 108t101 96q30 32 54 89q25 57 24 127q0 114 -61 182t-178 68q-266 0 -281 -269h-115q0 164 106 272q106 107 286 107t274 -106t94 -236t-54 -223t-138 -165t-111 -107q-61 -79 -61 -310z" />
    <glyph glyph-name="at" unicode="@" horiz-adv-x="1675" 
d="M838 -199q-322 0 -513 202t-192 540q-1 337 191 539t512 202t513 -204q194 -204 193 -517q0 -209 -86 -315t-226 -106t-198 116q-121 -111 -245 -111q-125 -1 -209 93t-84 315q0 310 221 396q53 22 113 22q60 1 121 -15q60 -16 93 -31t93 -48v-494q0 -131 120 -131
q84 0 133 91q48 91 48 218q0 266 -163 439q-163 174 -439 174t-435 -170t-159 -463t160 -462t434 -169t471 115v-117q-201 -109 -467 -109zM832 864q-90 0 -156 -72t-66 -231q0 -157 52 -229t124 -72q70 0 130 37t100 90v428q-94 49 -184 49z" />
    <glyph glyph-name="A" unicode="A" horiz-adv-x="1306" 
d="M653 1296l-237 -755h471zM1286 115v-115h-420v115h154l-98 315h-541l-98 -315h157v-115h-420v115h140l428 1319h143l420 -1319h135z" />
    <glyph glyph-name="B" unicode="B" horiz-adv-x="1150" 
d="M354 1319v-541h226q135 0 215 82q79 82 79 210t-72 188q-73 60 -231 61h-217zM354 666v-551h228q170 0 253 60t83 206q0 145 -77 215t-259 70h-228zM72 1434h499q426 0 426 -365q0 -113 -55 -204t-162 -130q258 -55 258 -352q0 -383 -456 -383h-510v115h164v1204h-164
v115z" />
    <glyph glyph-name="C" unicode="C" horiz-adv-x="1171" 
d="M246 721q0 -343 106 -489t316 -146q152 0 262 72v202h112v-264q-174 -121 -380 -121q-539 0 -539 738q0 397 127 571t389 174q195 0 299 -114t111 -265h-117q-43 268 -299 269q-207 0 -297 -142t-90 -485z" />
    <glyph glyph-name="D" unicode="D" horiz-adv-x="1257" 
d="M354 1319v-1204h209q225 0 337 143q112 142 112 466t-109 460t-340 135h-209zM72 1434h503q281 0 420 -167t140 -532q0 -735 -564 -735h-499v115h164v1204h-164v115z" />
    <glyph glyph-name="E" unicode="E" horiz-adv-x="1140" 
d="M72 0v115h164v1204h-164v115h934v-320h-113v205h-539v-522h582v-113h-582v-569h559v204h113v-319h-954z" />
    <glyph glyph-name="F" unicode="F" horiz-adv-x="1087" 
d="M354 1319v-533h529v-114h-529v-557h164v-115h-446v115h164v1204h-164v115h934v-320h-113v205h-539z" />
    <glyph glyph-name="G" unicode="G" horiz-adv-x="1314" 
d="M246 726q0 -340 105 -490t309 -150t362 131v412h-358v112h477v-741h-115v96q-64 -49 -164 -85t-203 -36q-537 0 -536 766q0 373 143 545t418 172q205 0 320 -112q114 -113 120 -267h-114q-49 270 -332 271q-220 0 -326 -142t-106 -482z" />
    <glyph glyph-name="H" unicode="H" horiz-adv-x="1423" 
d="M905 0v115h164v567h-715v-567h164v-115h-446v115h164v1204h-164v115h446v-115h-164v-522h715v522h-164v115h447v-115h-164v-1204h164v-115h-447z" />
    <glyph glyph-name="I" unicode="I" horiz-adv-x="589" 
d="M354 1319v-1204h164v-115h-446v115h164v1204h-164v115h446v-115h-164z" />
    <glyph glyph-name="J" unicode="J" horiz-adv-x="638" 
d="M403 1319v-1129q0 -104 -57 -159q-56 -55 -146 -55t-153 24v115q70 -29 133 -29q104 0 105 119v1114h-164v115h446v-115h-164z" />
    <glyph glyph-name="K" unicode="K" horiz-adv-x="1228" 
d="M1188 1434v-115h-158l-391 -504l399 -700h170v-115h-241l-404 721l-209 -262v-344h164v-115h-446v115h164v1204h-164v115h446v-115h-164v-696l545 696h-145v115h434z" />
    <glyph glyph-name="L" unicode="L" horiz-adv-x="972" 
d="M72 1319v115h446v-115h-164v-1204h449v202h119v-317h-850v115h164v1204h-164z" />
    <glyph glyph-name="M" unicode="M" horiz-adv-x="1779" 
d="M481 115v-115h-446v115h160l112 1204h-147v115h299l430 -1166l432 1166h299v-115h-147l112 -1204h160v-115h-447v115h166l-98 1114l-408 -1114h-137l-407 1114l-99 -1114h166z" />
    <glyph glyph-name="N" unicode="N" horiz-adv-x="1443" 
d="M72 1434h264l768 -1186v1071h-170v115h446v-115h-161v-1319h-97l-772 1198v-1083h164v-115h-442v115h164v1204h-164v115z" />
    <glyph glyph-name="O" unicode="O" horiz-adv-x="1271" 
d="M1026 716q0 338 -98 486q-98 146 -290 146t-292 -148t-100 -483t100 -483t292 -148t290 146t98 484zM641 1458q508 0 508 -741t-520 -742q-236 -1 -371 177t-135 563t137 564t381 179z" />
    <glyph glyph-name="P" unicode="P" horiz-adv-x="1157" 
d="M354 1319v-668q115 -20 201 -20q377 0 377 340q0 184 -83 266t-269 82h-226zM72 1434h508q246 0 360 -112t115 -348t-145 -347t-355 -111q-102 0 -201 21v-422h164v-115h-446v115h164v1204h-164v115z" />
    <glyph glyph-name="Q" unicode="Q" horiz-adv-x="1271" 
d="M1026 716q0 338 -98 486q-98 146 -290 146t-292 -148t-100 -483t100 -483t292 -148t290 146t98 484zM641 1458q508 0 508 -739q0 -618 -365 -723l181 -344h-136l-165 325q-10 -2 -35 -2q-236 -1 -371 177t-135 563t137 564t381 179z" />
    <glyph glyph-name="R" unicode="R" horiz-adv-x="1163" 
d="M354 1319v-614q63 -11 220 -11t239 69t82 247t-78 243q-78 66 -260 66h-203zM1159 115v-115h-256l-244 590q-57 -6 -143 -6t-162 10v-479h164v-115h-446v115h164v1204h-164v115h487q235 0 347 -98t112 -337q0 -303 -242 -381l211 -503h172z" />
    <glyph glyph-name="S" unicode="S" horiz-adv-x="1064" 
d="M504 1348q-96 0 -172 -62q-74 -62 -74 -166q0 -106 71 -181t172 -130t201 -113t171 -146q71 -89 71 -204q0 -188 -110 -279t-306 -91t-381 143v239h113v-184q123 -88 287 -88q281 0 280 246q0 78 -51 144t-127 111q-76 44 -165 97t-165 104q-77 52 -127 132t-51 178
q0 184 115 272t290 88q174 0 270 -112t102 -267h-117q-27 199 -147 247q-54 22 -150 22z" />
    <glyph glyph-name="T" unicode="T" horiz-adv-x="1165" 
d="M643 1319v-1204h164v-115h-447v115h164v1204h-362v-205h-115v320h1071v-320h-114v205h-361z" />
    <glyph glyph-name="U" unicode="U" horiz-adv-x="1372" 
d="M1167 1319v-860q0 -483 -479 -484q-483 0 -483 484v860h-164v115h446v-115h-163v-858q0 -187 84 -281t280 -94t279 92q84 92 84 283v858h-164v115h444v-115h-164z" />
    <glyph glyph-name="V" unicode="V" horiz-adv-x="1327" 
d="M1307 1434v-115h-152l-430 -1319h-129l-428 1319h-148v115h437v-115h-164l369 -1153l372 1153h-164v115h437z" />
    <glyph glyph-name="W" unicode="W" horiz-adv-x="1937" 
d="M1921 1434v-115h-143l-330 -1319h-145l-334 1278l-334 -1278h-146l-329 1319h-144v115h426v-115h-157l278 -1157l330 1272h151l330 -1272l279 1157h-158v115h426z" />
    <glyph glyph-name="X" unicode="X" horiz-adv-x="1282" 
d="M1241 1434v-115h-154l-368 -582l379 -622h141v-115h-440v115h159l-317 518l-328 -518h168v-115h-440v115h141l391 614l-358 590h-154v115h443v-115h-150l291 -488l309 488h-147v115h434z" />
    <glyph glyph-name="Y" unicode="Y" horiz-adv-x="1255" 
d="M1219 1434v-115h-162l-373 -707v-497h164v-115h-447v115h164v497l-375 707h-153v115h438v-115h-149l301 -582l305 582h-154v115h441z" />
    <glyph glyph-name="Z" unicode="Z" horiz-adv-x="1081" 
d="M905 319h113v-319h-938v100l774 1219h-649v-205h-113v320h903v-101l-776 -1218h686v204z" />
    <glyph glyph-name="bracketleft" unicode="[" horiz-adv-x="669" 
d="M236 1507h333v-112h-219v-1729h219v-112h-333v1953z" />
    <glyph glyph-name="backslash" unicode="\" horiz-adv-x="741" 
d="M-20 1434h118l520 -1434h-116z" />
    <glyph glyph-name="bracketright" unicode="]" horiz-adv-x="669" 
d="M100 1507h334v-1953h-334v112h219v1729h-219v112z" />
    <glyph glyph-name="asciicircum" unicode="^" 
d="M997 719h-120l-314 602l-315 -602h-121l375 715h121z" />
    <glyph glyph-name="underscore" unicode="_" horiz-adv-x="1134" 
d="M1042 -25v-112h-950v112h950z" />
    <glyph glyph-name="grave" unicode="`" horiz-adv-x="1064" 
d="M242 1536h133l217 -324h-115z" />
    <glyph glyph-name="a" unicode="a" horiz-adv-x="987" 
d="M676 516h-49q-195 0 -310 -71t-114 -195q0 -80 43 -123t123 -43t163 51t144 129v252zM676 621v186q0 188 -217 188t-228 -202h-108q0 151 100 231q101 80 243 80t234 -75t93 -210v-717h145v-102h-256v141q-145 -166 -324 -166q-122 0 -198 67q-76 68 -76 184
q0 217 176 311q152 82 367 84h49z" />
    <glyph glyph-name="b" unicode="b" horiz-adv-x="1118" 
d="M563 84q299 0 299 456t-250 455q-86 -1 -150 -29t-151 -89v-715q123 -78 252 -78zM51 1405v102h260v-522q86 59 156 89t149 30t137 -26t113 -85q119 -128 119 -432q0 -305 -118 -445t-302 -140t-370 124v1305h-144z" />
    <glyph glyph-name="c" unicode="c" horiz-adv-x="1015" 
d="M539 995q-149 0 -217 -100t-68 -355q0 -256 70 -356t205 -100t245 70v165h103v-225q-59 -49 -149 -84t-185 -35q-203 -1 -306 133t-103 432t102 431t313 133q160 0 246 -87t92 -224h-111q-10 111 -69 157t-168 45z" />
    <glyph glyph-name="d" unicode="d" horiz-adv-x="1159" 
d="M512 995q-258 0 -258 -458q0 -237 66 -345t176 -108q166 0 311 180v639q-170 92 -295 92zM664 1405v102h260v-1405h145v-102h-256v139q-154 -164 -334 -164q-134 0 -232 111q-52 59 -83 175t-31 276q0 432 245 540q60 27 128 27q145 0 301 -90v391h-143z" />
    <glyph glyph-name="e" unicode="e" horiz-adv-x="1032" 
d="M786 657q0 338 -247 338q-131 0 -199 -79t-80 -259h526zM907 553h-653q0 -261 80 -365t230 -104t306 121v-121q-131 -109 -301 -109q-205 1 -321 139t-115 431q0 559 408 559q186 0 276 -119t90 -321v-111z" />
    <glyph glyph-name="f" unicode="f" horiz-adv-x="622" 
d="M72 0v102h143v875h-166v102h166v109q0 172 86 257t234 85q88 0 139 -21v-102q-68 20 -155 20q-187 0 -187 -239v-109h266v-102h-266v-875h143v-102h-403z" />
    <glyph glyph-name="g" unicode="g" horiz-adv-x="1007" 
d="M166 -233q0 -160 299 -160q143 0 263 57t120 150q0 63 -43 103t-96 54t-146 27l-133 18q-116 -41 -190 -104t-74 -145zM481 999q-123 -1 -193 -77t-69 -228q0 -152 70 -230q69 -78 191 -79q122 0 191 78t68 225q0 311 -258 311zM920 1079v-102h-152q86 -109 86 -291
t-102 -293t-271 -110q-76 0 -127 16q-84 -49 -84 -100q0 -57 238 -86q22 -4 36 -5q166 -14 292 -75q127 -61 127 -207q0 -100 -77 -176q-148 -146 -427 -146q-176 0 -289 62t-113 201q0 184 226 280q-121 43 -121 137t100 160q-158 109 -158 348q0 188 104 300t275 112
q82 0 146 -25h291z" />
    <glyph glyph-name="h" unicode="h" horiz-adv-x="1175" 
d="M721 0v102h143v637q0 135 -51 195t-178 61q-127 0 -313 -114v-779h143v-102h-404v102h144v1303h-144v102h261v-524q61 39 95 57q35 18 105 41t142 23q147 0 232 -87t85 -257v-658h143v-102h-403z" />
    <glyph glyph-name="i" unicode="i" horiz-adv-x="536" 
d="M215 1434h117v-195h-117v195zM72 977v102h260v-977h143v-102h-403v102h143v875h-143z" />
    <glyph glyph-name="j" unicode="j" horiz-adv-x="516" 
d="M205 1434h117v-195h-117v195zM61 977v102h261v-1306q0 -99 -60 -159t-150 -60q-88 0 -165 36v113q82 -41 145 -41q113 0 113 121v1194h-144z" />
    <glyph glyph-name="k" unicode="k" horiz-adv-x="1081" 
d="M1040 0h-200l-359 565l-159 -176v-287h143v-102h-404v102h144v1303h-144v102h261v-975l399 445h-135v102h413v-102h-145l-289 -326l344 -549h131v-102z" />
    <glyph glyph-name="l" unicode="l" horiz-adv-x="526" 
d="M61 1405v102h261v-1405h143v-102h-404v102h144v1303h-144z" />
    <glyph glyph-name="m" unicode="m" horiz-adv-x="1763" 
d="M72 977v102h250v-102q176 127 342 127t243 -131q209 131 365 131q297 0 297 -344v-658h143v-102h-403v102h143v637q0 137 -43 197t-171 59q-128 0 -300 -114q12 -53 12 -121v-658h144v-102h-404v102h144v637q0 137 -43 197t-168 59q-125 0 -291 -114v-779h143v-102h-403
v102h143v875h-143z" />
    <glyph glyph-name="n" unicode="n" horiz-adv-x="1185" 
d="M72 977v102h250v-102q68 43 102 62t106 42t144 23q147 0 232 -87t85 -257v-658h144v-102h-404v102h143v637q0 135 -51 195t-178 61q-127 0 -313 -114v-779h143v-102h-403v102h143v875h-143z" />
    <glyph glyph-name="o" unicode="o" horiz-adv-x="1075" 
d="M538 995q-148 0 -216 -100t-68 -355q0 -256 68 -356t216 -100t215 99t67 354t-67 357q-67 101 -215 101zM545 1104q211 0 304 -131t93 -441q0 -557 -403 -557q-201 -1 -303 133t-102 430t99 431q101 135 312 135z" />
    <glyph glyph-name="p" unicode="p" horiz-adv-x="1128" 
d="M573 84q299 0 299 456t-249 455q-87 -1 -151 -29t-150 -89v-703q129 -90 251 -90zM61 977v102h250v-102q170 127 315 127t251 -111q55 -59 87 -175t31 -275q1 -287 -117 -427t-303 -141q-109 0 -253 78v-397h143v-102h-404v102h144v1321h-144z" />
    <glyph glyph-name="q" unicode="q" horiz-adv-x="1142" 
d="M254 540q0 -456 242 -456q159 0 311 180v613q-164 119 -295 118q-258 1 -258 -455zM664 -446v102h143v477q-150 -158 -328 -158q-134 0 -232 111q-52 59 -83 175t-31 276q0 432 245 540q60 27 128 27q147 0 313 -121v96h248v-102h-143v-1321h143v-102h-403z" />
    <glyph glyph-name="r" unicode="r" horiz-adv-x="813" 
d="M72 977v102h250v-127q152 152 282 152q184 0 184 -268h-114q0 160 -88 159q-100 0 -254 -153v-740h143v-102h-403v102h143v875h-143z" />
    <glyph glyph-name="s" unicode="s" horiz-adv-x="925" 
d="M141 313h103v-166q94 -63 223 -63q215 0 215 174q0 115 -193 206q-81 38 -161 81t-137 113q-56 71 -56 163q0 129 91 206t244 77t237 -84t84 -227h-113q0 203 -225 202q-89 0 -145 -46q-56 -45 -56 -113t41 -114t101 -77t132 -69t132 -74q60 -37 102 -96t41 -132
q0 -145 -93 -222t-264 -77t-303 109v229z" />
    <glyph glyph-name="t" unicode="t" horiz-adv-x="686" 
d="M319 213q0 -129 115 -129q78 0 184 57v-112q-100 -53 -197 -53t-157 56t-61 179v766h-148v102h150v191l114 41v-232h283v-102h-283v-764z" />
    <glyph glyph-name="u" unicode="u" horiz-adv-x="1150" 
d="M676 977v102h403v-102h-143v-653q0 -172 -103 -260t-257 -89q-154 0 -258 88q-103 88 -103 261v653h-143v102h403v-102h-143v-649q0 -244 244 -244t243 244v649h-143z" />
    <glyph glyph-name="v" unicode="v" horiz-adv-x="1159" 
d="M743 977v102h396v-102h-123l-371 -977h-125l-368 977h-132v102h400v-102h-146l314 -836l307 836h-152z" />
    <glyph glyph-name="w" unicode="w" horiz-adv-x="1730" 
d="M27 977v102h399v-102h-147l229 -799l285 901h127l284 -901l230 799h-146v102h416v-102h-154l-282 -977h-119l-293 915l-293 -915h-119l-284 977h-133z" />
    <glyph glyph-name="x" unicode="x" horiz-adv-x="1101" 
d="M647 0v102h139l-239 361l-242 -361h133v-102h-370v102h110l301 445l-289 430h-139v102h414v-102h-141l227 -338l225 338h-137v102h412v-102h-146l-287 -426l302 -449h127v-102h-400z" />
    <glyph glyph-name="y" unicode="y" horiz-adv-x="1099" 
d="M702 977v102h388v-102h-123l-375 -948q-119 -306 -200 -376q-99 -89 -224 -87q-80 0 -154 35v112q90 -41 154 -41q109 0 169 83t148 290l-340 932h-131v102h398v-102h-138l277 -770l299 770h-148z" />
    <glyph glyph-name="z" unicode="z" horiz-adv-x="985" 
d="M102 831v248h760v-94l-631 -883h529v172h108v-274h-780v94l631 883h-508v-146h-109z" />
    <glyph glyph-name="braceleft" unicode="{" horiz-adv-x="710" 
d="M72 481v103q86 0 140 47t54 125v514q0 124 68 192t182 68q63 0 131 -21v-108q-67 20 -131 20q-136 0 -135 -151v-508q0 -88 -43 -150t-123 -80q80 -16 123 -78t43 -151v-508q0 -82 36 -117q66 -64 230 -14v-108q-68 -20 -131 -21q-114 0 -182 68t-68 192v514
q0 78 -54 125t-140 47z" />
    <glyph glyph-name="bar" unicode="|" horiz-adv-x="585" 
d="M236 1507h114v-1953h-114v1953z" />
    <glyph glyph-name="braceright" unicode="}" horiz-adv-x="710" 
d="M330 1270q0 151 -136 151q-64 0 -131 -20v108q68 20 132 21q115 0 183 -68t66 -192v-514q0 -78 54 -125t141 -47v-103q-86 0 -140 -47t-55 -125v-514q0 -125 -68 -193t-181 -67q-63 0 -132 21v108q67 -20 131 -20q136 0 136 151v508q0 89 43 151t123 78q-80 16 -123 78
t-43 152v508z" />
    <glyph glyph-name="asciitilde" unicode="~" 
d="M369 778q67 0 207 -43t178 -43t66 18q26 18 35 33q9 16 28 56l96 -47q-27 -76 -84 -122t-129 -46t-212 43t-181 43t-68 -18t-36 -34t-27 -55l-97 45q57 170 224 170z" />
    <glyph glyph-name="uni00A0" unicode="&#xa0;" horiz-adv-x="573" 
 />
    <glyph glyph-name="exclamdown" unicode="&#xa1;" horiz-adv-x="589" 
d="M352 -354h-119l3 1122h114zM360 932h-137v147h137v-147z" />
    <glyph glyph-name="cent" unicode="&#xa2;" 
d="M621 -180h-109v309q-356 61 -356 564t356 552v291h109v-287q153 -8 237 -102t88 -229h-110q-20 225 -254 225q-152 1 -227 -101t-75 -353t86 -354q85 -103 222 -103t243 61v192h113v-241q-147 -115 -323 -121v-303z" />
    <glyph glyph-name="sterling" unicode="&#xa3;" 
d="M634 1458q204 0 298 -102t100 -252h-117q-26 181 -147 224q-53 19 -131 20q-270 0 -270 -312q0 -33 16 -278h479v-107h-471q16 -240 17 -270q0 -172 -125 -266h630v204h113v-319h-930v102q190 96 191 285q0 29 -17 264h-209v107h201l-16 268q0 186 92 309t296 123z" />
    <glyph glyph-name="yen" unicode="&#xa5;" 
d="M0 1319v115h424v-115h-150l297 -535l291 535h-151v115h413v-115h-129l-309 -563h328v-105h-387v-536h164v-115h-447v115h164v536h-385v105h330l-316 563h-137z" />
    <glyph glyph-name="brokenbar" unicode="&#xa6;" horiz-adv-x="585" 
d="M236 332h114v-778h-114v778zM236 1507h114v-774h-114v774z" />
    <glyph glyph-name="section" unicode="&#xa7;" horiz-adv-x="1206" 
d="M944 445q0 129 -180 226q-80 42 -165 82q-223 105 -300 208q-33 -49 -33 -128t78 -151t177 -115q294 -128 386 -243q37 52 37 121zM840 1112q-26 244 -238 244q-116 0 -184 -54t-68 -148t73 -163q73 -68 175 -117t206 -101t176 -132q73 -80 73 -182q0 -143 -95 -234
q10 -37 11 -69q0 -168 -112 -252t-275 -84q-217 0 -383 133v246h102v-197q127 -80 267 -80q292 0 292 219q0 82 -73 149q-73 68 -176 114t-205 98t-176 136q-73 83 -72 189q0 147 92 234q-8 45 -8 69q0 166 102 247t265 81t246 -101t89 -245h-104z" />
    <glyph glyph-name="dieresis" unicode="&#xa8;" horiz-adv-x="1064" 
d="M621 1434h116v-195h-116v195zM328 1434h116v-195h-116v195z" />
    <glyph glyph-name="copyright" unicode="&#xa9;" horiz-adv-x="1675" 
d="M1112 911h-102q-8 160 -162 160q-113 0 -163 -79t-50 -273q0 -195 58 -275t175 -79q80 0 133 26v148h103v-205q-102 -72 -240 -72q-340 0 -340 453q0 239 83 349t245 110q128 0 194 -74t66 -189zM233 717q1 -265 177 -451t427 -186t428 186t177 450t-177 451t-428 187
t-427 -186t-177 -451zM133 717q0 307 206 524t499 217q292 0 498 -217t206 -524t-206 -524t-498 -217t-499 216q-206 218 -206 525z" />
    <glyph glyph-name="ordfeminine" unicode="&#xaa;" horiz-adv-x="757" 
d="M479 1051q-276 0 -276 -158q-1 -45 27 -71t75 -25q98 0 174 98v156zM284 696q-73 0 -130 50t-58 143q0 135 109 195t274 61v92q0 125 -121 125q-129 0 -139 -135h-98q0 115 67 173q68 58 174 58t164 -57q59 -57 60 -156v-450h96v-97h-190l-5 90q-77 -92 -203 -92z" />
    <glyph glyph-name="guillemotleft" unicode="&#xab;" horiz-adv-x="1308" 
d="M692 145h-141l-418 467l418 467h141l-418 -467zM1176 145h-142l-418 467l418 467h142l-418 -467z" />
    <glyph glyph-name="logicalnot" unicode="&#xac;" 
d="M166 737h795v-454h-113v342h-682v112z" />
    <glyph glyph-name="registered" unicode="&#xae;" horiz-adv-x="1097" 
d="M483 1165v-164q29 -4 75 -4q46 1 72 17t26 66t-24 68q-24 17 -89 17h-60zM536 913q-16 0 -53 5v-140h60v-78h-215v78h63v387h-63v80h215q106 0 155 -37q50 -37 50 -137t-95 -137l68 -156h65v-78h-129l-92 215q-13 -2 -29 -2zM164 967q0 -168 112 -288t273 -120t273 120
t112 288q0 167 -113 287t-273 120t-272 -120t-112 -287zM82 967q0 205 136 348t330 143t331 -143t137 -348t-137 -349t-331 -143q-194 -1 -330 143t-136 349z" />
    <glyph glyph-name="macron" unicode="&#xaf;" horiz-adv-x="1064" 
d="M778 1323h-491v102h491v-102z" />
    <glyph glyph-name="macron" unicode="&#x2c9;" horiz-adv-x="1064" 
d="M778 1323h-491v102h491v-102z" />
    <glyph glyph-name="degree" unicode="&#xb0;" horiz-adv-x="696" 
d="M494 1215q0 59 -43 103t-103 44t-104 -44q-43 -44 -43 -103q0 -60 43 -103t103 -43t104 43q43 43 43 103zM104 1215q0 101 71 173t171 70q100 0 172 -72t72 -172t-71 -171t-172 -71t-172 72q-71 70 -71 171z" />
    <glyph glyph-name="plusminus" unicode="&#xb1;" 
d="M961 113v-113h-795v113h795zM506 1079h112v-342h343v-112h-343v-342h-112v342h-340v112h340v342z" />
    <glyph glyph-name="twosuperior" unicode="&#xb2;" horiz-adv-x="696" 
d="M119 664v79l260 304q80 94 80 174q0 141 -125 141q-119 0 -133 -135h-99q2 94 60 163q58 68 170 68q111 0 170 -61t59 -177t-102 -233l-199 -223h320v-100h-461z" />
    <glyph glyph-name="threesuperior" unicode="&#xb3;" horiz-adv-x="696" 
d="M244 1108h92q66 0 100 38t33 93q0 125 -127 125t-143 -133h-97q2 90 62 159q60 68 173 68q112 0 172 -57t60 -171t-98 -161q123 -45 123 -186q0 -101 -70 -159t-188 -58t-215 73v105q106 -86 223 -86q150 0 150 123q0 137 -160 137h-90v90z" />
    <glyph glyph-name="acute" unicode="&#xb4;" horiz-adv-x="1064" 
d="M688 1536h135l-235 -324h-117z" />
    <glyph glyph-name="mu" unicode="&#xb5;" horiz-adv-x="1110" 
d="M655 977v102h260v-755q0 -172 -103 -260t-257 -89q-154 0 -244 99v-418h144v-102h-404v102h144v1321h-144v102h260v-751q0 -244 244 -244t244 244v649h-144z" />
    <glyph glyph-name="mu" unicode="&#x3bc;" horiz-adv-x="1110" 
d="M655 977v102h260v-755q0 -172 -103 -260t-257 -89q-154 0 -244 99v-418h144v-102h-404v102h144v1321h-144v102h260v-751q0 -244 244 -244t244 244v649h-144z" />
    <glyph glyph-name="paragraph" unicode="&#xb6;" horiz-adv-x="1386" 
d="M705 1319h-144q-186 0 -268 -81t-82 -267q0 -340 375 -340q70 0 119 6v682zM825 1319v-1413h222v1413h-222zM541 -207v113h164v616q-45 -6 -119 -6q-209 0 -355 111q-145 111 -145 344q0 463 475 463h766v-115h-164v-1413h164v-113h-786z" />
    <glyph glyph-name="periodcentered" unicode="&#xb7;" horiz-adv-x="512" 
d="M186 756h138v-148h-138v148z" />
    <glyph glyph-name="cedilla" unicode="&#xb8;" horiz-adv-x="1064" 
d="M647 -177q0 -85 -49 -135t-126 -50t-136 36v107q74 -41 120 -41t68 24t21 84q0 62 -45 152h102q45 -92 45 -177z" />
    <glyph glyph-name="onesuperior" unicode="&#xb9;" horiz-adv-x="696" 
d="M135 664v100h178v549l-176 -94v108l199 107h78v-670h164v-100h-443z" />
    <glyph glyph-name="ordmasculine" unicode="&#xba;" horiz-adv-x="757" 
d="M553 1068q0 162 -42 228t-133 66t-134 -66t-43 -228t44 -228t134 -66t132 66t42 228zM379 1458q147 0 214 -92t67 -290q-1 -398 -283 -398q-281 0 -281 390t283 390z" />
    <glyph glyph-name="guillemotright" unicode="&#xbb;" horiz-adv-x="1308" 
d="M274 145h-141l418 467l-418 467h141l418 -467zM758 145h-142l418 467l-418 467h142l418 -467z" />
    <glyph glyph-name="onequarter" unicode="&#xbc;" horiz-adv-x="1474" 
d="M113 664v100h178v549l-176 -94v108l198 107h78v-670h164v-100h-442zM1157 1434h119l-911 -1434h-117zM1184 295v311l-205 -311h205zM848 195v81l328 492h112v-473h98v-100h-98v-195h-104v195h-336z" />
    <glyph glyph-name="onehalf" unicode="&#xbd;" horiz-adv-x="1474" 
d="M113 664v100h178v549l-176 -94v108l198 107h78v-670h164v-100h-442zM926 0v80l260 303q80 94 80 174q0 141 -125 141q-119 0 -133 -135h-99q3 94 61 163t169 69q111 1 170 -61t59 -178t-102 -232l-199 -224h319v-100h-460zM1157 1434h119l-911 -1434h-117z" />
    <glyph glyph-name="threequarters" unicode="&#xbe;" horiz-adv-x="1474" 
d="M223 1108h92q66 0 100 38t34 93q1 125 -127 125t-144 -133h-96q2 90 62 159q60 68 172 68t172 -57t60 -171t-97 -161q123 -45 122 -186q0 -102 -69 -160q-70 -57 -189 -57t-215 73v105q106 -86 224 -86q150 0 149 123q0 137 -160 137h-90v90zM1184 295v311l-205 -311h205
zM848 195v81l328 492h112v-473h98v-100h-98v-195h-104v195h-336zM1157 1434h119l-911 -1434h-117z" />
    <glyph glyph-name="questiondown" unicode="&#xbf;" horiz-adv-x="964" 
d="M549 932h-137v147h137v-147zM422 768h117q0 -263 -75 -367q-32 -43 -102 -107t-101 -96t-55 -89t-24 -127q0 -115 62 -183t178 -67q266 0 280 268h115q0 -164 -106 -272q-105 -108 -285 -107t-274 107t-94 236t54 222t138 165t110 108q62 80 62 309z" />
    <glyph glyph-name="Agrave" unicode="&#xc0;" horiz-adv-x="1306" 
d="M362 1868h134l217 -324h-115zM653 1296l-237 -755h471zM1286 115v-115h-420v115h154l-98 315h-541l-98 -315h157v-115h-420v115h140l428 1319h143l420 -1319h135z" />
    <glyph glyph-name="Aacute" unicode="&#xc1;" horiz-adv-x="1306" 
d="M823 1868h135l-235 -324h-117zM653 1296l-237 -755h471zM1286 115v-115h-420v115h154l-98 315h-541l-98 -315h157v-115h-420v115h140l428 1319h143l420 -1319h135z" />
    <glyph glyph-name="Acircumflex" unicode="&#xc2;" horiz-adv-x="1306" 
d="M657 1769l-133 -225h-104l178 324h119l178 -324h-104zM653 1296l-237 -755h471zM1286 115v-115h-420v115h154l-98 315h-541l-98 -315h157v-115h-420v115h140l428 1319h143l420 -1319h135z" />
    <glyph glyph-name="Atilde" unicode="&#xc3;" horiz-adv-x="1306" 
d="M831 1804h99q0 -86 -44 -138t-118 -52q-39 0 -120 41t-105 41q-63 0 -64 -88h-98q0 86 41 137q40 51 102 51t140 -40t104 -40q63 0 63 88zM653 1296l-237 -755h471zM1286 115v-115h-420v115h154l-98 315h-541l-98 -315h157v-115h-420v115h140l428 1319h143l420 -1319h135
z" />
    <glyph glyph-name="Adieresis" unicode="&#xc4;" horiz-adv-x="1306" 
d="M745 1763h117v-194h-117v194zM453 1763h116v-194h-116v194zM653 1296l-237 -755h471zM1286 115v-115h-420v115h154l-98 315h-541l-98 -315h157v-115h-420v115h140l428 1319h143l420 -1319h135z" />
    <glyph glyph-name="Aring" unicode="&#xc5;" horiz-adv-x="1306" 
d="M657 1786q-37 0 -59 -22t-20 -60q0 -38 22 -58q22 -22 58 -22t59 22t23 58t-24 60q-22 22 -59 22zM483 1704q1 70 51 118t124 48t124 -48q52 -48 52 -118t-52 -117t-125 -47q-74 0 -124 47t-50 117zM653 1296l-237 -755h471zM1286 115v-115h-420v115h154l-98 315h-541
l-98 -315h157v-115h-420v115h140l428 1319h143l420 -1319h135z" />
    <glyph glyph-name="AE" unicode="&#xc6;" horiz-adv-x="1794" 
d="M889 541v749l-440 -749h440zM725 0v115h164v315h-506l-186 -315h155v-115h-434v115h150l780 1319h811v-320h-113v205h-538v-522h581v-113h-581v-569h559v204h112v-319h-954z" />
    <glyph glyph-name="Ccedilla" unicode="&#xc7;" horiz-adv-x="1171" 
d="M246 720q0 -344 106 -490t316 -146q147 0 262 74v202h112v-264q-162 -113 -356 -121q35 -81 35 -159t-49 -128t-126 -50t-136 36v107q74 -41 120 -41q90 0 88 102q0 61 -34 138q-461 49 -461 733q0 397 127 571t389 174q195 0 299 -114t111 -265h-117q-45 270 -299 271
q-207 0 -297 -144t-90 -486z" />
    <glyph glyph-name="Egrave" unicode="&#xc8;" horiz-adv-x="1140" 
d="M313 1868h133l218 -324h-115zM72 0v115h164v1204h-164v115h934v-320h-113v205h-539v-522h582v-113h-582v-569h559v204h113v-319h-954z" />
    <glyph glyph-name="Eacute" unicode="&#xc9;" horiz-adv-x="1140" 
d="M748 1868h135l-236 -324h-117zM72 0v115h164v1204h-164v115h934v-320h-113v205h-539v-522h582v-113h-582v-569h559v204h113v-319h-954z" />
    <glyph glyph-name="Ecircumflex" unicode="&#xca;" horiz-adv-x="1140" 
d="M580 1769l-134 -225h-104l178 324h119l178 -324h-104zM72 0v115h164v1204h-164v115h934v-320h-113v205h-539v-522h582v-113h-582v-569h559v204h113v-319h-954z" />
    <glyph glyph-name="Edieresis" unicode="&#xcb;" horiz-adv-x="1140" 
d="M666 1763h116v-194h-116v194zM373 1763h116v-194h-116v194zM72 0v115h164v1204h-164v115h934v-320h-113v205h-539v-522h582v-113h-582v-569h559v204h113v-319h-954z" />
    <glyph glyph-name="Igrave" unicode="&#xcc;" horiz-adv-x="589" 
d="M4 1868h133l217 -324h-114zM354 1319v-1204h164v-115h-446v115h164v1204h-164v115h446v-115h-164z" />
    <glyph glyph-name="Iacute" unicode="&#xcd;" horiz-adv-x="589" 
d="M453 1868h135l-236 -324h-116zM354 1319v-1204h164v-115h-446v115h164v1204h-164v115h446v-115h-164z" />
    <glyph glyph-name="Icircumflex" unicode="&#xce;" horiz-adv-x="589" 
d="M295 1769l-133 -225h-105l179 324h118l178 -324h-104zM354 1319v-1204h164v-115h-446v115h164v1204h-164v115h446v-115h-164z" />
    <glyph glyph-name="Idieresis" unicode="&#xcf;" horiz-adv-x="589" 
d="M383 1763h117v-194h-117v194zM90 1763h117v-194h-117v194zM354 1319v-1204h164v-115h-446v115h164v1204h-164v115h446v-115h-164z" />
    <glyph glyph-name="Eth" unicode="&#xd0;" horiz-adv-x="1257" 
d="M354 1319v-535h332v-108h-332v-561h209q225 0 337 143q112 142 112 466t-109 460t-340 135h-209zM72 676v108h164v535h-164v115h503q281 0 420 -167t140 -532q0 -735 -564 -735h-499v115h164v561h-164z" />
    <glyph glyph-name="Ntilde" unicode="&#xd1;" horiz-adv-x="1443" 
d="M901 1804h98q0 -86 -44 -138t-117 -52q-39 0 -120 41t-106 41q-63 0 -63 -88h-98q0 86 41 137t102 51t139 -40t105 -40q63 0 63 88zM72 1434h264l768 -1186v1071h-170v115h446v-115h-161v-1319h-97l-772 1198v-1083h164v-115h-442v115h164v1204h-164v115z" />
    <glyph glyph-name="Ograve" unicode="&#xd2;" horiz-adv-x="1271" 
d="M348 1868h133l217 -324h-114zM1026 716q0 338 -98 486q-98 146 -290 146t-292 -148t-100 -483t100 -483t292 -148t290 146t98 484zM641 1458q508 0 508 -741t-520 -742q-236 -1 -371 177t-135 563t137 564t381 179z" />
    <glyph glyph-name="Oacute" unicode="&#xd3;" horiz-adv-x="1271" 
d="M788 1868h136l-236 -324h-117zM1026 716q0 338 -98 486q-98 146 -290 146t-292 -148t-100 -483t100 -483t292 -148t290 146t98 484zM641 1458q508 0 508 -741t-520 -742q-236 -1 -371 177t-135 563t137 564t381 179z" />
    <glyph glyph-name="Ocircumflex" unicode="&#xd4;" horiz-adv-x="1271" 
d="M635 1769l-133 -225h-105l178 324h119l178 -324h-104zM1026 716q0 338 -98 486q-98 146 -290 146t-292 -148t-100 -483t100 -483t292 -148t290 146t98 484zM641 1458q508 0 508 -741t-520 -742q-236 -1 -371 177t-135 563t137 564t381 179z" />
    <glyph glyph-name="Otilde" unicode="&#xd5;" horiz-adv-x="1271" 
d="M809 1804h98q0 -86 -44 -138t-118 -52q-39 0 -119 41t-106 41q-63 0 -63 -88h-99q0 86 41 137t103 51t141 -40q78 -40 102 -40q64 0 64 88zM1026 716q0 338 -98 486q-98 146 -290 146t-292 -148t-100 -483t100 -483t292 -148t290 146t98 484zM641 1458q508 0 508 -741
t-520 -742q-236 -1 -371 177t-135 563t137 564t381 179z" />
    <glyph glyph-name="Odieresis" unicode="&#xd6;" horiz-adv-x="1271" 
d="M723 1763h117v-194h-117v194zM430 1763h117v-194h-117v194zM1026 716q0 338 -98 486q-98 146 -290 146t-292 -148t-100 -483t100 -483t292 -148t290 146t98 484zM641 1458q508 0 508 -741t-520 -742q-236 -1 -371 177t-135 563t137 564t381 179z" />
    <glyph glyph-name="multiply" unicode="&#xd7;" 
d="M170 993l80 80l313 -313l314 313l79 -80l-313 -313l313 -313l-79 -80l-314 313l-313 -313l-80 80l313 313z" />
    <glyph glyph-name="Oslash" unicode="&#xd8;" horiz-adv-x="1271" 
d="M629 1348q-183 0 -283 -148t-100 -485q0 -264 63 -416l594 934q-92 115 -274 115zM642 86q188 0 286 146t98 487q1 268 -65 418l-596 -932q89 -119 277 -119zM1149 719q0 -743 -520 -744q-205 0 -330 127l-96 -153l-84 51l117 184q-113 184 -113 550t137 545t381 179
q207 0 328 -121l96 154l86 -57l-115 -181q113 -186 113 -534z" />
    <glyph glyph-name="Ugrave" unicode="&#xd9;" horiz-adv-x="1372" 
d="M389 1868h133l217 -324h-114zM1167 1319v-860q0 -483 -479 -484q-483 0 -483 484v860h-164v115h446v-115h-163v-858q0 -187 84 -281t280 -94t279 92q84 92 84 283v858h-164v115h444v-115h-164z" />
    <glyph glyph-name="Uacute" unicode="&#xda;" horiz-adv-x="1372" 
d="M840 1868h135l-236 -324h-116zM1167 1319v-860q0 -483 -479 -484q-483 0 -483 484v860h-164v115h446v-115h-163v-858q0 -187 84 -281t280 -94t279 92q84 92 84 283v858h-164v115h444v-115h-164z" />
    <glyph glyph-name="Ucircumflex" unicode="&#xdb;" horiz-adv-x="1372" 
d="M686 1769l-133 -225h-104l178 324h118l179 -324h-105zM1167 1319v-860q0 -483 -479 -484q-483 0 -483 484v860h-164v115h446v-115h-163v-858q0 -187 84 -281t280 -94t279 92q84 92 84 283v858h-164v115h444v-115h-164z" />
    <glyph glyph-name="Udieresis" unicode="&#xdc;" horiz-adv-x="1372" 
d="M774 1763h117v-194h-117v194zM481 1763h117v-194h-117v194zM1167 1319v-860q0 -483 -479 -484q-483 0 -483 484v860h-164v115h446v-115h-163v-858q0 -187 84 -281t280 -94t279 92q84 92 84 283v858h-164v115h444v-115h-164z" />
    <glyph glyph-name="Yacute" unicode="&#xdd;" horiz-adv-x="1255" 
d="M788 1868h136l-236 -324h-117zM1219 1434v-115h-162l-373 -707v-497h164v-115h-447v115h164v497l-375 707h-153v115h438v-115h-149l301 -582l305 582h-154v115h441z" />
    <glyph glyph-name="Thorn" unicode="&#xde;" horiz-adv-x="1105" 
d="M354 1079v-667q115 -20 201 -21q377 0 377 340q0 184 -83 266t-269 82h-226zM354 1319v-125h226q250 0 362 -113t113 -348t-145 -346t-355 -111q-102 0 -201 21v-182h164v-115h-446v115h164v1204h-164v115h446v-115h-164z" />
    <glyph glyph-name="germandbls" unicode="&#xdf;" horiz-adv-x="1148" 
d="M72 0v102h143v1055q0 173 101 273q102 100 272 100t267 -84t97 -236q0 -82 -42 -160t-85 -146q-43 -69 -43 -125t33 -103t80 -84t93 -78q46 -42 79 -106t33 -144q0 -129 -88 -209t-240 -80t-272 95v125q139 -111 288 -111q90 0 142 45q51 45 51 119t-33 128
q-33 52 -79 90t-92 77q-113 96 -111 225q0 80 85 213t85 230t-62 157t-184 59q-123 1 -191 -69t-67 -201v-1157h-260z" />
    <glyph glyph-name="agrave" unicode="&#xe0;" horiz-adv-x="987" 
d="M199 1536h133l217 -324h-115zM676 516h-49q-195 0 -310 -71t-114 -195q0 -80 43 -123t123 -43t163 51t144 129v252zM676 621v186q0 188 -217 188t-228 -202h-108q0 151 100 231q101 80 243 80t234 -75t93 -210v-717h145v-102h-256v141q-145 -166 -324 -166
q-122 0 -198 67q-76 68 -76 184q0 217 176 311q152 82 367 84h49z" />
    <glyph glyph-name="aacute" unicode="&#xe1;" horiz-adv-x="987" 
d="M633 1536h135l-236 -324h-116zM676 516h-49q-195 0 -310 -71t-114 -195q0 -80 43 -123t123 -43t163 51t144 129v252zM676 621v186q0 188 -217 188t-228 -202h-108q0 151 100 231q101 80 243 80t234 -75t93 -210v-717h145v-102h-256v141q-145 -166 -324 -166
q-122 0 -198 67q-76 68 -76 184q0 217 176 311q152 82 367 84h49z" />
    <glyph glyph-name="acircumflex" unicode="&#xe2;" horiz-adv-x="987" 
d="M485 1438l-133 -226h-104l178 324h119l178 -324h-105zM676 516h-49q-195 0 -310 -71t-114 -195q0 -80 43 -123t123 -43t163 51t144 129v252zM676 621v186q0 188 -217 188t-228 -202h-108q0 151 100 231q101 80 243 80t234 -75t93 -210v-717h145v-102h-256v141
q-145 -166 -324 -166q-122 0 -198 67q-76 68 -76 184q0 217 176 311q152 82 367 84h49z" />
    <glyph glyph-name="atilde" unicode="&#xe3;" horiz-adv-x="987" 
d="M659 1475h99q0 -87 -44 -139t-118 -52q-39 0 -120 41t-105 41q-63 0 -64 -88h-98q0 86 41 137q40 51 102 51t140 -40t104 -40q63 1 63 89zM676 516h-49q-195 0 -310 -71t-114 -195q0 -80 43 -123t123 -43t163 51t144 129v252zM676 621v186q0 188 -217 188t-228 -202h-108
q0 151 100 231q101 80 243 80t234 -75t93 -210v-717h145v-102h-256v141q-145 -166 -324 -166q-122 0 -198 67q-76 68 -76 184q0 217 176 311q152 82 367 84h49z" />
    <glyph glyph-name="adieresis" unicode="&#xe4;" horiz-adv-x="987" 
d="M573 1434h117v-195h-117v195zM281 1434h116v-195h-116v195zM676 516h-49q-195 0 -310 -71t-114 -195q0 -80 43 -123t123 -43t163 51t144 129v252zM676 621v186q0 188 -217 188t-228 -202h-108q0 151 100 231q101 80 243 80t234 -75t93 -210v-717h145v-102h-256v141
q-145 -166 -324 -166q-122 0 -198 67q-76 68 -76 184q0 217 176 311q152 82 367 84h49z" />
    <glyph glyph-name="aring" unicode="&#xe5;" horiz-adv-x="987" 
d="M485 1456q-37 0 -59 -22t-20 -59q0 -37 22 -59t58 -22t59 22t23 58t-23 60q-23 22 -60 22zM311 1374q0 70 50 118t124 48t125 -48q52 -48 52 -118t-52 -117t-125 -47q-74 0 -124 47t-50 117zM676 516h-49q-195 0 -310 -71t-114 -195q0 -80 43 -123t123 -43t163 51
t144 129v252zM676 621v186q0 188 -217 188t-228 -202h-108q0 151 100 231q101 80 243 80t234 -75t93 -210v-717h145v-102h-256v141q-145 -166 -324 -166q-122 0 -198 67q-76 68 -76 184q0 217 176 311q152 82 367 84h49z" />
    <glyph glyph-name="ae" unicode="&#xe6;" horiz-adv-x="1566" 
d="M1321 657q0 338 -248 338q-131 0 -199 -79t-79 -259h526zM625 516q-197 0 -310 -72t-112 -194q0 -166 175 -166t320 207q-18 82 -22 225h-51zM1442 553h-649q0 -260 77 -365q78 -104 228 -104t307 121v-121q-131 -109 -301 -109q-258 0 -363 205q-168 -205 -385 -205
q-116 0 -194 70t-78 200t84 218q151 158 463 158h45v186q0 188 -216 188t-229 -202h-108q0 151 99 231t253 80q94 0 172 -39t115 -113q100 152 300 152t290 -119t90 -321v-111z" />
    <glyph glyph-name="ccedilla" unicode="&#xe7;" horiz-adv-x="1015" 
d="M539 995q-149 0 -217 -100t-68 -355q0 -256 70 -356t205 -100t245 70v165h103v-225q-111 -92 -269 -112q35 -78 35 -161t-49 -133t-126 -50t-136 36v107q74 -41 120 -41t68 24t21 80q0 57 -35 133q-184 11 -278 145t-95 425q1 291 103 424t313 133q160 0 246 -87t92 -224
h-111q-10 111 -69 157t-168 45z" />
    <glyph glyph-name="egrave" unicode="&#xe8;" horiz-adv-x="1032" 
d="M250 1536h133l217 -324h-115zM786 657q0 338 -247 338q-131 0 -199 -79t-80 -259h526zM907 553h-653q0 -261 80 -365t230 -104t306 121v-121q-131 -109 -301 -109q-205 1 -321 139t-115 431q0 559 408 559q186 0 276 -119t90 -321v-111z" />
    <glyph glyph-name="eacute" unicode="&#xe9;" horiz-adv-x="1032" 
d="M692 1536h135l-235 -324h-117zM786 657q0 338 -247 338q-131 0 -199 -79t-80 -259h526zM907 553h-653q0 -261 80 -365t230 -104t306 121v-121q-131 -109 -301 -109q-205 1 -321 139t-115 431q0 559 408 559q186 0 276 -119t90 -321v-111z" />
    <glyph glyph-name="ecircumflex" unicode="&#xea;" horiz-adv-x="1032" 
d="M537 1438l-134 -226h-104l178 324h119l178 -324h-104zM786 657q0 338 -247 338q-131 0 -199 -79t-80 -259h526zM907 553h-653q0 -261 80 -365t230 -104t306 121v-121q-131 -109 -301 -109q-205 1 -321 139t-115 431q0 559 408 559q186 0 276 -119t90 -321v-111z" />
    <glyph glyph-name="edieresis" unicode="&#xeb;" horiz-adv-x="1032" 
d="M625 1434h116v-195h-116v195zM332 1434h117v-195h-117v195zM786 657q0 338 -247 338q-131 0 -199 -79t-80 -259h526zM907 553h-653q0 -261 80 -365t230 -104t306 121v-121q-131 -109 -301 -109q-205 1 -321 139t-115 431q0 559 408 559q186 0 276 -119t90 -321v-111z" />
    <glyph glyph-name="igrave" unicode="&#xec;" horiz-adv-x="536" 
d="M-20 1536h133l217 -324h-115zM72 977v102h260v-977h143v-102h-403v102h143v875h-143z" />
    <glyph glyph-name="iacute" unicode="&#xed;" horiz-adv-x="536" 
d="M430 1536h135l-235 -324h-117zM72 977v102h260v-977h143v-102h-403v102h143v875h-143z" />
    <glyph glyph-name="icircumflex" unicode="&#xee;" horiz-adv-x="536" 
d="M272 1438l-133 -226h-104l178 324h119l178 -324h-104zM72 977v102h260v-977h143v-102h-403v102h143v875h-143z" />
    <glyph glyph-name="idieresis" unicode="&#xef;" horiz-adv-x="536" 
d="M360 1434h117v-195h-117v195zM68 1434h116v-195h-116v195zM72 977v102h260v-977h143v-102h-403v102h143v875h-143z" />
    <glyph glyph-name="eth" unicode="&#xf0;" horiz-adv-x="1075" 
d="M538 995q-148 0 -216 -100t-68 -355q0 -256 68 -356t216 -100t215 99t67 354t-67 357q-67 101 -215 101zM539 -25q-201 -1 -303 133t-102 430t99 431q100 135 308 135q111 0 182 -57q-57 131 -127 237l-297 -51v96l236 41q-53 68 -119 137h143q49 -51 96 -116l230 41v-97
l-168 -30q221 -343 223 -775q0 -555 -401 -555z" />
    <glyph glyph-name="ntilde" unicode="&#xf1;" horiz-adv-x="1185" 
d="M784 1475h99q0 -87 -44 -139t-118 -52q-39 0 -120 41t-105 41q-63 0 -64 -88h-98q0 86 41 137t103 51t140 -40t103 -40q63 1 63 89zM72 977v102h250v-102q68 43 102 62t106 42t144 23q147 0 232 -87t85 -257v-658h144v-102h-404v102h143v637q0 135 -51 195t-178 61
q-127 0 -313 -114v-779h143v-102h-403v102h143v875h-143z" />
    <glyph glyph-name="ograve" unicode="&#xf2;" horiz-adv-x="1075" 
d="M231 1536h134l217 -324h-115zM538 995q-148 0 -216 -100t-68 -355q0 -256 68 -356t216 -100t215 99t67 354t-67 357q-67 101 -215 101zM545 1104q211 0 304 -131t93 -441q0 -557 -403 -557q-201 -1 -303 133t-102 430t99 431q101 135 312 135z" />
    <glyph glyph-name="oacute" unicode="&#xf3;" horiz-adv-x="1075" 
d="M692 1536h135l-235 -324h-117zM538 995q-148 0 -216 -100t-68 -355q0 -256 68 -356t216 -100t215 99t67 354t-67 357q-67 101 -215 101zM545 1104q211 0 304 -131t93 -441q0 -557 -403 -557q-201 -1 -303 133t-102 430t99 431q101 135 312 135z" />
    <glyph glyph-name="ocircumflex" unicode="&#xf4;" horiz-adv-x="1075" 
d="M537 1438l-134 -226h-104l178 324h119l178 -324h-104zM538 995q-148 0 -216 -100t-68 -355q0 -256 68 -356t216 -100t215 99t67 354t-67 357q-67 101 -215 101zM545 1104q211 0 304 -131t93 -441q0 -557 -403 -557q-201 -1 -303 133t-102 430t99 431q101 135 312 135z
" />
    <glyph glyph-name="otilde" unicode="&#xf5;" horiz-adv-x="1075" 
d="M711 1475h98q0 -87 -44 -139t-118 -52q-39 0 -120 41t-105 41q-63 0 -64 -88h-98q0 86 41 137t103 51t141 -40q78 -40 102 -40q64 1 64 89zM538 995q-148 0 -216 -100t-68 -355q0 -256 68 -356t216 -100t215 99t67 354t-67 357q-67 101 -215 101zM545 1104
q211 0 304 -131t93 -441q0 -557 -403 -557q-201 -1 -303 133t-102 430t99 431q101 135 312 135z" />
    <glyph glyph-name="odieresis" unicode="&#xf6;" horiz-adv-x="1075" 
d="M625 1434h116v-195h-116v195zM332 1434h117v-195h-117v195zM538 995q-148 0 -216 -100t-68 -355q0 -256 68 -356t216 -100t215 99t67 354t-67 357q-67 101 -215 101zM545 1104q211 0 304 -131t93 -441q0 -557 -403 -557q-201 -1 -303 133t-102 430t99 431
q101 135 312 135z" />
    <glyph glyph-name="divide" unicode="&#xf7;" 
d="M496 428h137v-147h-137v147zM496 1079h137v-147h-137v147zM961 737v-112h-795v112h795z" />
    <glyph glyph-name="oslash" unicode="&#xf8;" horiz-adv-x="1075" 
d="M532 995q-144 0 -210 -100q-68 -100 -68 -356q0 -170 31 -273l454 645q-63 84 -207 84zM540 84q146 0 213 99t66 349q0 177 -31 281l-456 -643q62 -86 208 -86zM133 562q0 542 394 542q194 0 284 -88l84 117l82 -54l-105 -147q70 -133 70 -400q0 -557 -403 -557
q-176 0 -275 99l-90 -127l-78 53l109 156q-72 134 -72 406z" />
    <glyph glyph-name="ugrave" unicode="&#xf9;" horiz-adv-x="1150" 
d="M279 1536h133l217 -324h-115zM676 977v102h403v-102h-143v-653q0 -172 -103 -260t-257 -89q-154 0 -258 88q-103 88 -103 261v653h-143v102h403v-102h-143v-649q0 -244 244 -244t243 244v649h-143z" />
    <glyph glyph-name="uacute" unicode="&#xfa;" horiz-adv-x="1150" 
d="M731 1536h135l-235 -324h-117zM676 977v102h403v-102h-143v-653q0 -172 -103 -260t-257 -89q-154 0 -258 88q-103 88 -103 261v653h-143v102h403v-102h-143v-649q0 -244 244 -244t243 244v649h-143z" />
    <glyph glyph-name="ucircumflex" unicode="&#xfb;" horiz-adv-x="1150" 
d="M575 1438l-133 -226h-104l178 324h119l178 -324h-104zM676 977v102h403v-102h-143v-653q0 -172 -103 -260t-257 -89q-154 0 -258 88q-103 88 -103 261v653h-143v102h403v-102h-143v-649q0 -244 244 -244t243 244v649h-143z" />
    <glyph glyph-name="udieresis" unicode="&#xfc;" horiz-adv-x="1150" 
d="M664 1434h116v-195h-116v195zM371 1434h116v-195h-116v195zM676 977v102h403v-102h-143v-653q0 -172 -103 -260t-257 -89q-154 0 -258 88q-103 88 -103 261v653h-143v102h403v-102h-143v-649q0 -244 244 -244t243 244v649h-143z" />
    <glyph glyph-name="yacute" unicode="&#xfd;" horiz-adv-x="1099" 
d="M707 1536h135l-236 -324h-117zM702 977v102h388v-102h-123l-375 -948q-119 -306 -200 -376q-99 -89 -224 -87q-80 0 -154 35v112q90 -41 154 -41q109 0 169 83t148 290l-340 932h-131v102h398v-102h-138l277 -770l299 770h-148z" />
    <glyph glyph-name="thorn" unicode="&#xfe;" horiz-adv-x="1138" 
d="M584 84q299 0 299 456t-250 455q-87 -1 -151 -29t-150 -89v-703q129 -90 252 -90zM72 1405v102h250v-530q170 127 315 127t257 -119t112 -424t-118 -445t-302 -141q-109 0 -254 78v-397h143v-102h-403v102h143v1749h-143z" />
    <glyph glyph-name="ydieresis" unicode="&#xff;" horiz-adv-x="1099" 
d="M641 1434h117v-195h-117v195zM348 1434h117v-195h-117v195zM702 977v102h388v-102h-123l-375 -948q-119 -306 -200 -376q-99 -89 -224 -87q-80 0 -154 35v112q90 -41 154 -41q109 0 169 83t148 290l-340 932h-131v102h398v-102h-138l277 -770l299 770h-148z" />
    <glyph glyph-name="Amacron" unicode="&#x100;" horiz-adv-x="1306" 
d="M899 1655h-491v102h491v-102zM653 1296l-237 -755h471zM1286 115v-115h-420v115h154l-98 315h-541l-98 -315h157v-115h-420v115h140l428 1319h143l420 -1319h135z" />
    <glyph glyph-name="amacron" unicode="&#x101;" horiz-adv-x="987" 
d="M739 1323h-491v102h491v-102zM676 516h-49q-195 0 -310 -71t-114 -195q0 -80 43 -123t123 -43t163 51t144 129v252zM676 621v186q0 188 -217 188t-228 -202h-108q0 151 100 231q101 80 243 80t234 -75t93 -210v-717h145v-102h-256v141q-145 -166 -324 -166
q-122 0 -198 67q-76 68 -76 184q0 217 176 311q152 82 367 84h49z" />
    <glyph glyph-name="Abreve" unicode="&#x102;" horiz-adv-x="1306" 
d="M653 1591q-102 1 -168 59t-82 169h99q28 -127 152 -127t151 127h98q-16 -111 -82 -169t-168 -59zM653 1296l-237 -755h471zM1286 115v-115h-420v115h154l-98 315h-541l-98 -315h157v-115h-420v115h140l428 1319h143l420 -1319h135z" />
    <glyph glyph-name="abreve" unicode="&#x103;" horiz-adv-x="987" 
d="M494 1262q-102 0 -168 58t-82 169h98q27 -127 152 -127t151 127h98q-15 -111 -81 -169t-168 -58zM676 516h-49q-195 0 -310 -71t-114 -195q0 -80 43 -123t123 -43t163 51t144 129v252zM676 621v186q0 188 -217 188t-228 -202h-108q0 151 100 231q101 80 243 80t234 -75
t93 -210v-717h145v-102h-256v141q-145 -166 -324 -166q-122 0 -198 67q-76 68 -76 184q0 217 176 311q152 82 367 84h49z" />
    <glyph glyph-name="Aogonek" unicode="&#x104;" horiz-adv-x="1306" 
d="M653 1296l-237 -755h471zM866 0v115h154l-98 315h-541l-98 -315h157v-115h-420v115h140l428 1319h143l420 -1319h135v-115q-125 -12 -181 -64t-56 -120q0 -74 77 -74q47 0 107 41v-107q-51 -34 -125 -34t-117 46t-43 117q0 123 109 195h-191z" />
    <glyph glyph-name="aogonek" unicode="&#x105;" horiz-adv-x="987" 
d="M676 516h-49q-195 0 -310 -71t-114 -195q0 -80 43 -123t123 -43t163 51t144 129v252zM682 0v141q-145 -166 -324 -166q-122 0 -198 67q-76 68 -76 184q0 217 176 311q152 82 367 84h49v186q0 188 -217 188t-228 -202h-108q0 151 100 231q101 80 243 80t234 -75t93 -210
v-717h145v-102q-88 -20 -136 -72t-48 -112q0 -74 77 -74q47 0 107 41v-107q-51 -34 -125 -34t-117 46t-43 117q0 123 109 195h-80z" />
    <glyph glyph-name="Cacute" unicode="&#x106;" horiz-adv-x="1171" 
d="M752 1868h135l-236 -324h-116zM246 721q0 -343 106 -489t316 -146q152 0 262 72v202h112v-264q-174 -121 -380 -121q-539 0 -539 738q0 397 127 571t389 174q195 0 299 -114t111 -265h-117q-43 268 -299 269q-207 0 -297 -142t-90 -485z" />
    <glyph glyph-name="cacute" unicode="&#x107;" horiz-adv-x="1015" 
d="M680 1536h135l-235 -324h-117zM539 995q-149 0 -217 -100t-68 -355q0 -256 70 -356t205 -100t245 70v165h103v-225q-59 -49 -149 -84t-185 -35q-203 -1 -306 133t-103 432t102 431t313 133q160 0 246 -87t92 -224h-111q-10 111 -69 157t-168 45z" />
    <glyph glyph-name="Ccircumflex" unicode="&#x108;" horiz-adv-x="1171" 
d="M637 1769l-133 -225h-105l179 324h118l178 -324h-104zM246 721q0 -343 106 -489t316 -146q152 0 262 72v202h112v-264q-174 -121 -380 -121q-539 0 -539 738q0 397 127 571t389 174q195 0 299 -114t111 -265h-117q-43 268 -299 269q-207 0 -297 -142t-90 -485z" />
    <glyph glyph-name="ccircumflex" unicode="&#x109;" horiz-adv-x="1015" 
d="M520 1438l-133 -226h-104l178 324h119l178 -324h-105zM539 995q-149 0 -217 -100t-68 -355q0 -256 70 -356t205 -100t245 70v165h103v-225q-59 -49 -149 -84t-185 -35q-203 -1 -306 133t-103 432t102 431t313 133q160 0 246 -87t92 -224h-111q-10 111 -69 157t-168 45z
" />
    <glyph glyph-name="Cdotaccent" unicode="&#x10a;" horiz-adv-x="1171" 
d="M580 1763h116v-194h-116v194zM246 721q0 -343 106 -489t316 -146q152 0 262 72v202h112v-264q-174 -121 -380 -121q-539 0 -539 738q0 397 127 571t389 174q195 0 299 -114t111 -265h-117q-43 268 -299 269q-207 0 -297 -142t-90 -485z" />
    <glyph glyph-name="cdotaccent" unicode="&#x10b;" horiz-adv-x="1015" 
d="M463 1434h117v-195h-117v195zM539 995q-149 0 -217 -100t-68 -355q0 -256 70 -356t205 -100t245 70v165h103v-225q-59 -49 -149 -84t-185 -35q-203 -1 -306 133t-103 432t102 431t313 133q160 0 246 -87t92 -224h-111q-10 111 -69 157t-168 45z" />
    <glyph glyph-name="Ccaron" unicode="&#x10c;" horiz-adv-x="1171" 
d="M504 1868l133 -226l133 226h104l-178 -324h-118l-179 324h105zM246 721q0 -343 106 -489t316 -146q152 0 262 72v202h112v-264q-174 -121 -380 -121q-539 0 -539 738q0 397 127 571t389 174q195 0 299 -114t111 -265h-117q-43 268 -299 269q-207 0 -297 -142t-90 -485z
" />
    <glyph glyph-name="ccaron" unicode="&#x10d;" horiz-adv-x="1015" 
d="M387 1536l133 -225l133 225h105l-178 -324h-119l-178 324h104zM539 995q-149 0 -217 -100t-68 -355q0 -256 70 -356t205 -100t245 70v165h103v-225q-59 -49 -149 -84t-185 -35q-203 -1 -306 133t-103 432t102 431t313 133q160 0 246 -87t92 -224h-111q-10 111 -69 157
t-168 45z" />
    <glyph glyph-name="Dcaron" unicode="&#x10e;" horiz-adv-x="1257" 
d="M481 1868l133 -226l134 226h104l-178 -324h-119l-178 324h104zM354 1319v-1204h209q225 0 337 143q112 142 112 466t-109 460t-340 135h-209zM72 1434h503q281 0 420 -167t140 -532q0 -735 -564 -735h-499v115h164v1204h-164v115z" />
    <glyph glyph-name="dcaron" unicode="&#x10f;" horiz-adv-x="1204" 
d="M512 995q-258 0 -258 -458q0 -237 66 -345t176 -108q166 0 311 180v639q-170 92 -295 92zM664 1405v102h260v-1405h145v-102h-256v139q-154 -164 -334 -164q-134 0 -232 111q-52 59 -83 175t-31 276q0 432 245 540q60 27 128 27q145 0 301 -90v391h-143zM1145 1434h121
l-127 -486h-99z" />
    <glyph glyph-name="Dcroat" unicode="&#x110;" horiz-adv-x="1257" 
d="M354 1319v-535h332v-108h-332v-561h209q225 0 337 143q112 142 112 466t-109 460t-340 135h-209zM72 676v108h164v535h-164v115h503q281 0 420 -167t140 -532q0 -735 -564 -735h-499v115h164v561h-164z" />
    <glyph glyph-name="dcroat" unicode="&#x111;" horiz-adv-x="1159" 
d="M512 995q-258 0 -258 -458q0 -237 66 -345t176 -108q166 0 311 180v639q-170 92 -295 92zM664 1405v102h260v-215h145v-96h-145v-1094h145v-102h-256v139q-154 -164 -334 -164q-134 0 -232 111q-52 59 -83 175t-31 276q0 432 245 540q60 27 128 27q145 0 301 -90v182
h-307v96h307v113h-143z" />
    <glyph glyph-name="Emacron" unicode="&#x112;" horiz-adv-x="1140" 
d="M823 1655h-491v102h491v-102zM72 0v115h164v1204h-164v115h934v-320h-113v205h-539v-522h582v-113h-582v-569h559v204h113v-319h-954z" />
    <glyph glyph-name="emacron" unicode="&#x113;" horiz-adv-x="1032" 
d="M762 1323h-492v102h492v-102zM786 657q0 338 -247 338q-131 0 -199 -79t-80 -259h526zM907 553h-653q0 -261 80 -365t230 -104t306 121v-121q-131 -109 -301 -109q-205 1 -321 139t-115 431q0 559 408 559q186 0 276 -119t90 -321v-111z" />
    <glyph glyph-name="Ebreve" unicode="&#x114;" horiz-adv-x="1140" 
d="M578 1591q-102 1 -168 59t-82 169h98q27 -127 152 -127t151 127h98q-15 -111 -81 -169t-168 -59zM72 0v115h164v1204h-164v115h934v-320h-113v205h-539v-522h582v-113h-582v-569h559v204h113v-319h-954z" />
    <glyph glyph-name="ebreve" unicode="&#x115;" horiz-adv-x="1032" 
d="M516 1262q-102 0 -168 58t-82 169h99q27 -127 151 -127t152 127h98q-16 -111 -82 -169t-168 -58zM786 657q0 338 -247 338q-131 0 -199 -79t-80 -259h526zM907 553h-653q0 -261 80 -365t230 -104t306 121v-121q-131 -109 -301 -109q-205 1 -321 139t-115 431
q0 559 408 559q186 0 276 -119t90 -321v-111z" />
    <glyph glyph-name="Edotaccent" unicode="&#x116;" horiz-adv-x="1140" 
d="M520 1763h117v-194h-117v194zM72 0v115h164v1204h-164v115h934v-320h-113v205h-539v-522h582v-113h-582v-569h559v204h113v-319h-954z" />
    <glyph glyph-name="edotaccent" unicode="&#x117;" horiz-adv-x="1032" 
d="M459 1434h116v-195h-116v195zM786 657q0 338 -247 338q-131 0 -199 -79t-80 -259h526zM907 553h-653q0 -261 80 -365t230 -104t306 121v-121q-131 -109 -301 -109q-205 1 -321 139t-115 431q0 559 408 559q186 0 276 -119t90 -321v-111z" />
    <glyph glyph-name="Eogonek" unicode="&#x118;" horiz-adv-x="1140" 
d="M72 0v115h164v1204h-164v115h934v-320h-113v205h-539v-522h582v-113h-582v-569h559v204h113v-319q-184 -47 -184 -184q0 -74 78 -74q47 0 106 41v-107q-51 -34 -125 -34t-117 46t-43 117q0 123 109 195h-778z" />
    <glyph glyph-name="eogonek" unicode="&#x119;" horiz-adv-x="1032" 
d="M786 657q0 338 -247 338q-131 0 -199 -79t-80 -259h526zM907 553h-653q0 -261 80 -365t230 -104t306 121v-121q-76 -61 -161 -86q-119 -88 -119 -182q0 -74 78 -74q47 0 106 41v-107q-51 -34 -125 -34t-117 46t-43 132t76 155q-432 5 -432 567t408 562q186 0 276 -119
t90 -321v-111z" />
    <glyph glyph-name="Ecaron" unicode="&#x11a;" horiz-adv-x="1140" 
d="M444 1868l134 -226l133 226h104l-178 -324h-119l-178 324h104zM72 0v115h164v1204h-164v115h934v-320h-113v205h-539v-522h582v-113h-582v-569h559v204h113v-319h-954z" />
    <glyph glyph-name="ecaron" unicode="&#x11b;" horiz-adv-x="1032" 
d="M383 1536l133 -225l133 225h105l-179 -324h-118l-178 324h104zM786 657q0 338 -247 338q-131 0 -199 -79t-80 -259h526zM907 553h-653q0 -261 80 -365t230 -104t306 121v-121q-131 -109 -301 -109q-205 1 -321 139t-115 431q0 559 408 559q186 0 276 -119t90 -321v-111z
" />
    <glyph glyph-name="Gcircumflex" unicode="&#x11c;" horiz-adv-x="1314" 
d="M662 1769l-134 -225h-104l178 324h119l178 -324h-104zM246 726q0 -340 105 -490t309 -150t362 131v412h-358v112h477v-741h-115v96q-64 -49 -164 -85t-203 -36q-537 0 -536 766q0 373 143 545t418 172q205 0 320 -112q114 -113 120 -267h-114q-49 270 -332 271
q-220 0 -326 -142t-106 -482z" />
    <glyph glyph-name="gcircumflex" unicode="&#x11d;" horiz-adv-x="1007" 
d="M483 1438l-133 -226h-104l178 324h119l178 -324h-105zM166 -233q0 -160 299 -160q143 0 263 57t120 150q0 63 -43 103t-96 54t-146 27l-133 18q-116 -41 -190 -104t-74 -145zM481 999q-123 -1 -193 -77t-69 -228q0 -152 70 -230q69 -78 191 -79q122 0 191 78t68 225
q0 311 -258 311zM920 1079v-102h-152q86 -109 86 -291t-102 -293t-271 -110q-76 0 -127 16q-84 -49 -84 -100q0 -57 238 -86q22 -4 36 -5q166 -14 292 -75q127 -61 127 -207q0 -100 -77 -176q-148 -146 -427 -146q-176 0 -289 62t-113 201q0 184 226 280q-121 43 -121 137
t100 160q-158 109 -158 348q0 188 104 300t275 112q82 0 146 -25h291z" />
    <glyph glyph-name="Gbreve" unicode="&#x11e;" horiz-adv-x="1314" 
d="M662 1589q-102 1 -168 59t-82 169h98q27 -127 152 -127t151 127h98q-15 -111 -81 -169t-168 -59zM246 726q0 -340 105 -490t309 -150t362 131v412h-358v112h477v-741h-115v96q-64 -49 -164 -85t-203 -36q-537 0 -536 766q0 373 143 545t418 172q205 0 320 -112
q114 -113 120 -267h-114q-49 270 -332 271q-220 0 -326 -142t-106 -482z" />
    <glyph glyph-name="gbreve" unicode="&#x11f;" horiz-adv-x="1007" 
d="M504 1262q-102 0 -168 58t-82 169h98q27 -127 152 -127t151 127h99q-16 -111 -82 -169t-168 -58zM166 -233q0 -160 299 -160q143 0 263 57t120 150q0 63 -43 103t-96 54t-146 27l-133 18q-116 -41 -190 -104t-74 -145zM481 999q-123 -1 -193 -77t-69 -228q0 -152 70 -230
q69 -78 191 -79q122 0 191 78t68 225q0 311 -258 311zM920 1079v-102h-152q86 -109 86 -291t-102 -293t-271 -110q-76 0 -127 16q-84 -49 -84 -100q0 -57 238 -86q22 -4 36 -5q166 -14 292 -75q127 -61 127 -207q0 -100 -77 -176q-148 -146 -427 -146q-176 0 -289 62
t-113 201q0 184 226 280q-121 43 -121 137t100 160q-158 109 -158 348q0 188 104 300t275 112q82 0 146 -25h291z" />
    <glyph glyph-name="Gdotaccent" unicode="&#x120;" horiz-adv-x="1314" 
d="M604 1765h117v-194h-117v194zM246 726q0 -340 105 -490t309 -150t362 131v412h-358v112h477v-741h-115v96q-64 -49 -164 -85t-203 -36q-537 0 -536 766q0 373 143 545t418 172q205 0 320 -112q114 -113 120 -267h-114q-49 270 -332 271q-220 0 -326 -142t-106 -482z" />
    <glyph glyph-name="gdotaccent" unicode="&#x121;" horiz-adv-x="1007" 
d="M426 1434h117v-195h-117v195zM166 -233q0 -160 299 -160q143 0 263 57t120 150q0 63 -43 103t-96 54t-146 27l-133 18q-116 -41 -190 -104t-74 -145zM481 999q-123 -1 -193 -77t-69 -228q0 -152 70 -230q69 -78 191 -79q122 0 191 78t68 225q0 311 -258 311zM920 1079
v-102h-152q86 -109 86 -291t-102 -293t-271 -110q-76 0 -127 16q-84 -49 -84 -100q0 -57 238 -86q22 -4 36 -5q166 -14 292 -75q127 -61 127 -207q0 -100 -77 -176q-148 -146 -427 -146q-176 0 -289 62t-113 201q0 184 226 280q-121 43 -121 137t100 160q-158 109 -158 348
q0 188 104 300t275 112q82 0 146 -25h291z" />
    <glyph glyph-name="Gcommaaccent" unicode="&#x122;" horiz-adv-x="1314" 
d="M606 -82h135l-235 -324h-117zM246 726q0 -340 105 -490t309 -150t362 131v412h-358v112h477v-741h-115v96q-64 -49 -164 -85t-203 -36q-537 0 -536 766q0 373 143 545t418 172q205 0 320 -112q114 -113 120 -267h-114q-49 270 -332 271q-220 0 -326 -142t-106 -482z" />
    <glyph glyph-name="gcommaaccent" unicode="&#x123;" horiz-adv-x="1007" 
d="M166 -233q0 -160 299 -160q143 0 263 57t120 150q0 63 -43 103t-96 54t-146 27l-133 18q-116 -41 -190 -104t-74 -145zM481 999q-123 -1 -193 -77t-69 -228q0 -152 70 -230q69 -78 191 -79q122 0 191 78t68 225q0 311 -258 311zM920 1079v-102h-152q86 -109 86 -291
t-102 -293t-271 -110q-76 0 -127 16q-84 -49 -84 -100q0 -57 238 -86q22 -4 36 -5q166 -14 292 -75q127 -61 127 -207q0 -100 -77 -176q-148 -146 -427 -146q-176 0 -289 62t-113 201q0 184 226 280q-121 43 -121 137t100 160q-158 109 -158 348q0 188 104 300t275 112
q82 0 146 -25h291zM551 1212h-135l235 324h117z" />
    <glyph glyph-name="Hcircumflex" unicode="&#x124;" horiz-adv-x="1423" 
d="M711 1769l-133 -225h-105l178 324h119l178 -324h-104zM905 0v115h164v567h-715v-567h164v-115h-446v115h164v1204h-164v115h446v-115h-164v-522h715v522h-164v115h447v-115h-164v-1204h164v-115h-447z" />
    <glyph glyph-name="hcircumflex" unicode="&#x125;" horiz-adv-x="1175" 
d="M260 1849l-133 -225h-104l178 324h118l179 -324h-105zM721 0v102h143v637q0 135 -51 195t-178 61q-127 0 -313 -114v-779h143v-102h-404v102h144v1303h-144v102h261v-524q61 39 95 57q35 18 105 41t142 23q147 0 232 -87t85 -257v-658h143v-102h-403z" />
    <glyph glyph-name="Hbar" unicode="&#x126;" horiz-adv-x="1423" 
d="M354 797h715v219h-715v-219zM905 0v115h164v567h-715v-567h164v-115h-446v115h164v901h-164v106h164v197h-164v115h446v-115h-164v-197h715v197h-164v115h447v-115h-164v-197h164v-106h-164v-901h164v-115h-447z" />
    <glyph glyph-name="hbar" unicode="&#x127;" horiz-adv-x="1175" 
d="M61 1196v96h144v113h-144v102h261v-215h389v-96h-389v-213q61 39 95 57q35 18 105 41t142 23q147 0 232 -87t85 -257v-658h143v-102h-403v102h143v637q0 135 -51 195t-178 61q-127 0 -313 -114v-779h143v-102h-404v102h144v1094h-144z" />
    <glyph glyph-name="Itilde" unicode="&#x128;" horiz-adv-x="589" 
d="M471 1808h98q0 -86 -44 -138t-117 -52q-39 0 -120 41t-106 41q-63 0 -63 -88h-99q0 86 41 137t103 51t139 -40q78 -40 105 -40q63 0 63 88zM354 1319v-1204h164v-115h-446v115h164v1204h-164v115h446v-115h-164z" />
    <glyph glyph-name="itilde" unicode="&#x129;" horiz-adv-x="536" 
d="M444 1475h99q0 -87 -44 -139t-118 -52q-39 0 -120 41t-105 41q-63 0 -64 -88h-98q0 86 41 137t103 51t141 -40q78 -40 102 -40q63 1 63 89zM72 977v102h260v-977h143v-102h-403v102h143v875h-143z" />
    <glyph glyph-name="imacron" unicode="&#x12b;" horiz-adv-x="536" 
d="M514 1323h-491v102h491v-102zM72 977v102h260v-977h143v-102h-403v102h143v875h-143z" />
    <glyph glyph-name="Ibreve" unicode="&#x12c;" horiz-adv-x="589" 
d="M295 1591q-102 1 -168 59t-82 169h98q27 -127 152 -127t151 127h99q-16 -111 -82 -169t-168 -59zM354 1319v-1204h164v-115h-446v115h164v1204h-164v115h446v-115h-164z" />
    <glyph glyph-name="Iogonek" unicode="&#x12e;" horiz-adv-x="589" 
d="M72 0v115h164v1204h-164v115h446v-115h-164v-1204h164v-115q-143 0 -210 -56t-66 -128q0 -74 77 -74q47 0 107 41v-107q-51 -34 -125 -34t-117 46t-43 117q0 123 109 195h-178z" />
    <glyph glyph-name="iogonek" unicode="&#x12f;" horiz-adv-x="536" 
d="M215 1434h117v-195h-117v195zM72 0v102h143v875h-143v102h260v-977h143v-102q-127 0 -190 -57t-63 -129t77 -72q47 0 107 41v-107q-51 -34 -125 -34t-117 46t-43 117q-1 123 108 195h-157z" />
    <glyph glyph-name="Idotaccent" unicode="&#x130;" horiz-adv-x="589" 
d="M238 1763h116v-194h-116v194zM354 1319v-1204h164v-115h-446v115h164v1204h-164v115h446v-115h-164z" />
    <glyph glyph-name="dotlessi" unicode="&#x131;" horiz-adv-x="536" 
d="M72 977v102h260v-977h143v-102h-403v102h143v875h-143z" />
    <glyph glyph-name="Jcircumflex" unicode="&#x134;" horiz-adv-x="638" 
d="M346 1769l-133 -225h-104l178 324h119l178 -324h-105zM403 1319v-1129q0 -104 -57 -159q-56 -55 -146 -55t-153 24v115q70 -29 133 -29q104 0 105 119v1114h-164v115h446v-115h-164z" />
    <glyph glyph-name="jcircumflex" unicode="&#x135;" horiz-adv-x="516" 
d="M258 1438l-133 -226h-105l179 324h118l179 -324h-105zM61 977v102h261v-1306q0 -99 -60 -159t-150 -60q-88 0 -165 36v113q82 -41 145 -41q113 0 113 121v1194h-144z" />
    <glyph glyph-name="Kcommaaccent" unicode="&#x136;" horiz-adv-x="1228" 
d="M1188 1434v-115h-158l-391 -504l399 -700h170v-115h-241l-404 721l-209 -262v-344h164v-115h-446v115h164v1204h-164v115h446v-115h-164v-696l545 696h-145v115h434z" />
    <glyph glyph-name="kcommaaccent" unicode="&#x137;" horiz-adv-x="1081" 
d="M1040 0h-200l-359 565l-159 -176v-287h143v-102h-404v102h144v1303h-144v102h261v-975l399 445h-135v102h413v-102h-145l-289 -326l344 -549h131v-102z" />
    <glyph glyph-name="Lacute" unicode="&#x139;" horiz-adv-x="972" 
d="M457 1868h135l-236 -324h-116zM72 1319v115h446v-115h-164v-1204h449v202h119v-317h-850v115h164v1204h-164z" />
    <glyph glyph-name="lacute" unicode="&#x13a;" horiz-adv-x="526" 
d="M418 1913h135l-236 -324h-116zM61 1405v102h261v-1405h143v-102h-404v102h144v1303h-144z" />
    <glyph glyph-name="Lcommaaccent" unicode="&#x13b;" horiz-adv-x="972" 
d="M72 1319v115h446v-115h-164v-1204h449v202h119v-317h-850v115h164v1204h-164z" />
    <glyph glyph-name="lcommaaccent" unicode="&#x13c;" horiz-adv-x="526" 
d="M203 -82h135l-236 -324h-116zM61 1405v102h261v-1405h143v-102h-404v102h144v1303h-144z" />
    <glyph glyph-name="Lcaron" unicode="&#x13d;" horiz-adv-x="972" 
d="M164 1868l133 -226l133 226h105l-179 -324h-118l-179 324h105zM72 1319v115h446v-115h-164v-1204h449v202h119v-317h-850v115h164v1204h-164z" />
    <glyph glyph-name="lcaron" unicode="&#x13e;" horiz-adv-x="602" 
d="M61 1405v102h261v-1405h143v-102h-404v102h144v1303h-144zM543 1434h121l-127 -486h-99z" />
    <glyph glyph-name="Lslash" unicode="&#x141;" horiz-adv-x="972" 
d="M72 1319v115h446v-115h-164v-545l412 176v-116l-412 -177v-542h449v202h119v-317h-850v115h164v493l-164 -69v116l164 70v594h-164z" />
    <glyph glyph-name="lslash" unicode="&#x142;" horiz-adv-x="567" 
d="M82 1405v102h260v-630l143 81v-112l-143 -82v-662h143v-102h-403v102h143v596l-143 -82v113l143 82v594h-143z" />
    <glyph glyph-name="Nacute" unicode="&#x143;" horiz-adv-x="1443" 
d="M803 1868h135l-236 -324h-116zM72 1434h264l768 -1186v1071h-170v115h446v-115h-161v-1319h-97l-772 1198v-1083h164v-115h-442v115h164v1204h-164v115z" />
    <glyph glyph-name="nacute" unicode="&#x144;" horiz-adv-x="1185" 
d="M762 1536h135l-235 -324h-117zM72 977v102h250v-102q68 43 102 62t106 42t144 23q147 0 232 -87t85 -257v-658h144v-102h-404v102h143v637q0 135 -51 195t-178 61q-127 0 -313 -114v-779h143v-102h-403v102h143v875h-143z" />
    <glyph glyph-name="Ncommaaccent" unicode="&#x145;" horiz-adv-x="1443" 
d="M698 -82h136l-236 -324h-117zM72 1434h264l768 -1186v1071h-170v115h446v-115h-161v-1319h-97l-772 1198v-1083h164v-115h-442v115h164v1204h-164v115z" />
    <glyph glyph-name="ncommaaccent" unicode="&#x146;" horiz-adv-x="1185" 
d="M565 -82h135l-235 -324h-117zM72 977v102h250v-102q68 43 102 62t106 42t144 23q147 0 232 -87t85 -257v-658h144v-102h-404v102h143v637q0 135 -51 195t-178 61q-127 0 -313 -114v-779h143v-102h-403v102h143v875h-143z" />
    <glyph glyph-name="Ncaron" unicode="&#x147;" horiz-adv-x="1443" 
d="M588 1868l133 -226l133 226h104l-178 -324h-118l-179 324h105zM72 1434h264l768 -1186v1071h-170v115h446v-115h-161v-1319h-97l-772 1198v-1083h164v-115h-442v115h164v1204h-164v115z" />
    <glyph glyph-name="ncaron" unicode="&#x148;" horiz-adv-x="1185" 
d="M475 1536l133 -225l133 225h105l-178 -324h-119l-178 324h104zM72 977v102h250v-102q68 43 102 62t106 42t144 23q147 0 232 -87t85 -257v-658h144v-102h-404v102h143v637q0 135 -51 195t-178 61q-127 0 -313 -114v-779h143v-102h-403v102h143v875h-143z" />
    <glyph glyph-name="Eng" unicode="&#x14a;" horiz-adv-x="1443" 
d="M72 1434h264l768 -1186v1071h-170v115h446v-115h-161v-1464q-1 -103 -59 -159t-146 -56t-154 24v115q70 -29 133 -29q111 0 111 119v160l-754 1169v-1083h164v-115h-442v115h164v1204h-164v115z" />
    <glyph glyph-name="eng" unicode="&#x14b;" horiz-adv-x="1155" 
d="M72 977v102h250v-102q68 43 102 62t106 42t144 23q147 0 232 -87t85 -257v-987q0 -99 -60 -159q-61 -60 -149 -60t-166 36v113q82 -41 146 -41q113 0 112 121v956q0 135 -51 195t-178 61q-127 0 -313 -114v-779h143v-102h-403v102h143v875h-143z" />
    <glyph glyph-name="Omacron" unicode="&#x14c;" horiz-adv-x="1271" 
d="M881 1677h-492v103h492v-103zM1026 716q0 338 -98 486q-98 146 -290 146t-292 -148t-100 -483t100 -483t292 -148t290 146t98 484zM641 1458q508 0 508 -741t-520 -742q-236 -1 -371 177t-135 563t137 564t381 179z" />
    <glyph glyph-name="omacron" unicode="&#x14d;" horiz-adv-x="1075" 
d="M782 1323h-491v102h491v-102zM538 995q-148 0 -216 -100t-68 -355q0 -256 68 -356t216 -100t215 99t67 354t-67 357q-67 101 -215 101zM545 1104q211 0 304 -131t93 -441q0 -557 -403 -557q-201 -1 -303 133t-102 430t99 431q101 135 312 135z" />
    <glyph glyph-name="Obreve" unicode="&#x14e;" horiz-adv-x="1271" 
d="M635 1616q-102 0 -168 58t-82 169h98q27 -127 152 -127t151 127h99q-16 -111 -82 -169t-168 -58zM1026 716q0 338 -98 486q-98 146 -290 146t-292 -148t-100 -483t100 -483t292 -148t290 146t98 484zM641 1458q508 0 508 -741t-520 -742q-236 -1 -371 177t-135 563
t137 564t381 179z" />
    <glyph glyph-name="obreve" unicode="&#x14f;" horiz-adv-x="1075" 
d="M537 1262q-102 0 -168 58t-82 169h98q27 -127 152 -127t151 127h98q-16 -111 -82 -169t-167 -58zM538 995q-148 0 -216 -100t-68 -355q0 -256 68 -356t216 -100t215 99t67 354t-67 357q-67 101 -215 101zM545 1104q211 0 304 -131t93 -441q0 -557 -403 -557
q-201 -1 -303 133t-102 430t99 431q101 135 312 135z" />
    <glyph glyph-name="Ohungarumlaut" unicode="&#x150;" horiz-adv-x="1271" 
d="M858 1868h127l-182 -324h-96zM600 1868h123l-152 -324h-96zM1026 716q0 338 -98 486q-98 146 -290 146t-292 -148t-100 -483t100 -483t292 -148t290 146t98 484zM641 1458q508 0 508 -741t-520 -742q-236 -1 -371 177t-135 563t137 564t381 179z" />
    <glyph glyph-name="ohungarumlaut" unicode="&#x151;" horiz-adv-x="1075" 
d="M760 1536h127l-182 -324h-97zM502 1536h123l-152 -324h-96zM538 995q-148 0 -216 -100t-68 -355q0 -256 68 -356t216 -100t215 99t67 354t-67 357q-67 101 -215 101zM545 1104q211 0 304 -131t93 -441q0 -557 -403 -557q-201 -1 -303 133t-102 430t99 431
q101 135 312 135z" />
    <glyph glyph-name="OE" unicode="&#x152;" horiz-adv-x="1929" 
d="M1026 716q0 338 -98 486q-98 146 -290 146t-292 -148t-100 -483t100 -483t292 -148t290 146t98 484zM123 715q0 743 531 743q257 0 374 -217v193h766v-320h-113v205h-538v-522h581v-113h-581v-569h559v204h113v-319h-787v199q-119 -223 -399 -224q-236 -1 -371 177
t-135 563z" />
    <glyph glyph-name="oe" unicode="&#x153;" horiz-adv-x="1714" 
d="M1468 657q0 338 -247 338q-131 0 -199 -79t-80 -259h526zM538 995q-148 0 -216 -100t-68 -355q0 -256 68 -356t216 -100t215 99t67 354t-67 357q-67 101 -215 101zM1251 -25q-274 0 -370 238q-84 -238 -342 -238q-201 -1 -303 133t-102 430t99 431q100 135 308 135
q137 0 219 -51t121 -168q88 219 342 219q186 0 276 -119t90 -321v-111h-653q0 -257 79 -363t231 -106t306 121v-121q-131 -109 -301 -109z" />
    <glyph glyph-name="Racute" unicode="&#x154;" horiz-adv-x="1163" 
d="M711 1868h135l-236 -324h-116zM354 1319v-614q63 -11 220 -11t239 69t82 247t-78 243q-78 66 -260 66h-203zM1159 115v-115h-256l-244 590q-57 -6 -143 -6t-162 10v-479h164v-115h-446v115h164v1204h-164v115h487q235 0 347 -98t112 -337q0 -303 -242 -381l211 -503h172z
" />
    <glyph glyph-name="racute" unicode="&#x155;" horiz-adv-x="813" 
d="M623 1536h135l-236 -324h-116zM72 977v102h250v-127q152 152 282 152q184 0 184 -268h-114q0 160 -88 159q-100 0 -254 -153v-740h143v-102h-403v102h143v875h-143z" />
    <glyph glyph-name="Rcommaaccent" unicode="&#x156;" horiz-adv-x="1163" 
d="M608 -82h135l-235 -324h-117zM354 1319v-614q63 -11 220 -11t239 69t82 247t-78 243q-78 66 -260 66h-203zM1159 115v-115h-256l-244 590q-57 -6 -143 -6t-162 10v-479h164v-115h-446v115h164v1204h-164v115h487q235 0 347 -98t112 -337q0 -303 -242 -381l211 -503h172z
" />
    <glyph glyph-name="rcommaaccent" unicode="&#x157;" horiz-adv-x="813" 
d="M203 -82h135l-236 -324h-116zM72 977v102h250v-127q152 152 282 152q184 0 184 -268h-114q0 160 -88 159q-100 0 -254 -153v-740h143v-102h-403v102h143v875h-143z" />
    <glyph glyph-name="Rcaron" unicode="&#x158;" horiz-adv-x="1163" 
d="M449 1868l133 -226l133 226h104l-178 -324h-119l-178 324h105zM354 1319v-614q63 -11 220 -11t239 69t82 247t-78 243q-78 66 -260 66h-203zM1159 115v-115h-256l-244 590q-57 -6 -143 -6t-162 10v-479h164v-115h-446v115h164v1204h-164v115h487q235 0 347 -98t112 -337
q0 -303 -242 -381l211 -503h172z" />
    <glyph glyph-name="rcaron" unicode="&#x159;" horiz-adv-x="813" 
d="M326 1536l133 -225l133 225h104l-178 -324h-119l-178 324h105zM72 977v102h250v-127q152 152 282 152q184 0 184 -268h-114q0 160 -88 159q-100 0 -254 -153v-740h143v-102h-403v102h143v875h-143z" />
    <glyph glyph-name="Sacute" unicode="&#x15a;" horiz-adv-x="1064" 
d="M692 1868h135l-235 -324h-117zM504 1348q-96 0 -172 -62q-74 -62 -74 -166q0 -106 71 -181t172 -130t201 -113t171 -146q71 -89 71 -204q0 -188 -110 -279t-306 -91t-381 143v239h113v-184q123 -88 287 -88q281 0 280 246q0 78 -51 144t-127 111q-76 44 -165 97t-165 104
q-77 52 -127 132t-51 178q0 184 115 272t290 88q174 0 270 -112t102 -267h-117q-27 199 -147 247q-54 22 -150 22z" />
    <glyph glyph-name="sacute" unicode="&#x15b;" horiz-adv-x="925" 
d="M604 1536h135l-235 -324h-117zM141 313h103v-166q94 -63 223 -63q215 0 215 174q0 115 -193 206q-81 38 -161 81t-137 113q-56 71 -56 163q0 129 91 206t244 77t237 -84t84 -227h-113q0 203 -225 202q-89 0 -145 -46q-56 -45 -56 -113t41 -114t101 -77t132 -69t132 -74
q60 -37 102 -96t41 -132q0 -145 -93 -222t-264 -77t-303 109v229z" />
    <glyph glyph-name="Scircumflex" unicode="&#x15c;" horiz-adv-x="1064" 
d="M537 1769l-134 -225h-104l178 324h119l178 -324h-104zM504 1348q-96 0 -172 -62q-74 -62 -74 -166q0 -106 71 -181t172 -130t201 -113t171 -146q71 -89 71 -204q0 -188 -110 -279t-306 -91t-381 143v239h113v-184q123 -88 287 -88q281 0 280 246q0 78 -51 144t-127 111
q-76 44 -165 97t-165 104q-77 52 -127 132t-51 178q0 184 115 272t290 88q174 0 270 -112t102 -267h-117q-27 199 -147 247q-54 22 -150 22z" />
    <glyph glyph-name="scircumflex" unicode="&#x15d;" horiz-adv-x="925" 
d="M463 1438l-133 -226h-105l178 324h119l178 -324h-104zM141 313h103v-166q94 -63 223 -63q215 0 215 174q0 115 -193 206q-81 38 -161 81t-137 113q-56 71 -56 163q0 129 91 206t244 77t237 -84t84 -227h-113q0 203 -225 202q-89 0 -145 -46q-56 -45 -56 -113t41 -114
t101 -77t132 -69t132 -74q60 -37 102 -96t41 -132q0 -145 -93 -222t-264 -77t-303 109v229z" />
    <glyph glyph-name="Scedilla" unicode="&#x15e;" horiz-adv-x="1064" 
d="M504 1348q-96 0 -172 -62q-74 -62 -74 -166q0 -106 71 -181t172 -130t201 -113t171 -146q71 -89 71 -204q0 -166 -85 -256t-232 -108q37 -84 37 -164t-50 -130t-126 -50q-77 0 -136 36v107q74 -41 120 -41t68 24t21 78q0 55 -33 133q-207 6 -381 144v239h113v-184
q123 -88 287 -88q281 0 280 246q0 78 -51 144t-127 111q-76 44 -165 97t-165 104q-77 52 -127 132t-51 178q0 184 115 272t290 88q174 0 270 -112t102 -267h-117q-27 199 -147 247q-54 22 -150 22z" />
    <glyph glyph-name="Scedilla" unicode="&#xf6c1;" horiz-adv-x="1064" 
d="M504 1348q-96 0 -172 -62q-74 -62 -74 -166q0 -106 71 -181t172 -130t201 -113t171 -146q71 -89 71 -204q0 -166 -85 -256t-232 -108q37 -84 37 -164t-50 -130t-126 -50q-77 0 -136 36v107q74 -41 120 -41t68 24t21 78q0 55 -33 133q-207 6 -381 144v239h113v-184
q123 -88 287 -88q281 0 280 246q0 78 -51 144t-127 111q-76 44 -165 97t-165 104q-77 52 -127 132t-51 178q0 184 115 272t290 88q174 0 270 -112t102 -267h-117q-27 199 -147 247q-54 22 -150 22z" />
    <glyph glyph-name="scedilla" unicode="&#x15f;" horiz-adv-x="925" 
d="M141 313h103v-166q94 -63 223 -63q215 0 215 174q0 115 -193 206q-81 38 -161 81t-137 113q-56 71 -56 163q0 129 91 206t244 77t237 -84t84 -227h-113q0 203 -225 202q-89 0 -145 -46q-56 -45 -56 -113t41 -114t101 -77t132 -69t132 -74q60 -37 102 -96t41 -132
q0 -126 -69 -200t-185 -92q37 -84 37 -164t-49 -130t-127 -50t-136 36v107q74 -41 120 -41t68 24t21 78q0 55 -32 133q-186 6 -308 109v229z" />
    <glyph glyph-name="scedilla" unicode="&#xf6c2;" horiz-adv-x="925" 
d="M141 313h103v-166q94 -63 223 -63q215 0 215 174q0 115 -193 206q-81 38 -161 81t-137 113q-56 71 -56 163q0 129 91 206t244 77t237 -84t84 -227h-113q0 203 -225 202q-89 0 -145 -46q-56 -45 -56 -113t41 -114t101 -77t132 -69t132 -74q60 -37 102 -96t41 -132
q0 -126 -69 -200t-185 -92q37 -84 37 -164t-49 -130t-127 -50t-136 36v107q74 -41 120 -41t68 24t21 78q0 55 -32 133q-186 6 -308 109v229z" />
    <glyph glyph-name="Scaron" unicode="&#x160;" horiz-adv-x="1064" 
d="M401 1868l134 -226l133 226h104l-178 -324h-119l-178 324h104zM504 1348q-96 0 -172 -62q-74 -62 -74 -166q0 -106 71 -181t172 -130t201 -113t171 -146q71 -89 71 -204q0 -188 -110 -279t-306 -91t-381 143v239h113v-184q123 -88 287 -88q281 0 280 246q0 78 -51 144
t-127 111q-76 44 -165 97t-165 104q-77 52 -127 132t-51 178q0 184 115 272t290 88q174 0 270 -112t102 -267h-117q-27 199 -147 247q-54 22 -150 22z" />
    <glyph glyph-name="scaron" unicode="&#x161;" horiz-adv-x="925" 
d="M340 1536l133 -225l133 225h105l-179 -324h-118l-178 324h104zM141 313h103v-166q94 -63 223 -63q215 0 215 174q0 115 -193 206q-81 38 -161 81t-137 113q-56 71 -56 163q0 129 91 206t244 77t237 -84t84 -227h-113q0 203 -225 202q-89 0 -145 -46q-56 -45 -56 -113
t41 -114t101 -77t132 -69t132 -74q60 -37 102 -96t41 -132q0 -145 -93 -222t-264 -77t-303 109v229z" />
    <glyph glyph-name="Tcommaaccent" unicode="&#x162;" horiz-adv-x="1165" 
d="M512 -82h135l-235 -324h-117zM643 1319v-1204h164v-115h-447v115h164v1204h-362v-205h-115v320h1071v-320h-114v205h-361z" />
    <glyph glyph-name="Tcommaaccent" unicode="&#x21a;" horiz-adv-x="1165" 
d="M512 -82h135l-235 -324h-117zM643 1319v-1204h164v-115h-447v115h164v1204h-362v-205h-115v320h1071v-320h-114v205h-361z" />
    <glyph glyph-name="tcommaaccent" unicode="&#x163;" horiz-adv-x="686" 
d="M395 -82h135l-235 -324h-117zM319 213q0 -129 115 -129q78 0 184 57v-112q-100 -53 -197 -53t-157 56t-61 179v766h-148v102h150v191l114 41v-232h283v-102h-283v-764z" />
    <glyph glyph-name="tcommaaccent" unicode="&#x21b;" horiz-adv-x="686" 
d="M395 -82h135l-235 -324h-117zM319 213q0 -129 115 -129q78 0 184 57v-112q-100 -53 -197 -53t-157 56t-61 179v766h-148v102h150v191l114 41v-232h283v-102h-283v-764z" />
    <glyph glyph-name="Tcaron" unicode="&#x164;" horiz-adv-x="1165" 
d="M449 1868l133 -226l133 226h104l-178 -324h-119l-178 324h105zM643 1319v-1204h164v-115h-447v115h164v1204h-362v-205h-115v320h1071v-320h-114v205h-361z" />
    <glyph glyph-name="tcaron" unicode="&#x165;" horiz-adv-x="686" 
d="M319 213q0 -129 115 -129q78 0 184 57v-112q-100 -53 -197 -53t-157 56t-61 179v766h-148v102h150v191l114 41v-232h283v-102h-283v-764zM516 1546h111l-123 -372h-96z" />
    <glyph glyph-name="Tbar" unicode="&#x166;" horiz-adv-x="1165" 
d="M643 1319v-522h328v-109h-328v-573h164v-115h-447v115h164v573h-327v109h327v522h-362v-205h-115v320h1071v-320h-114v205h-361z" />
    <glyph glyph-name="tbar" unicode="&#x167;" horiz-adv-x="686" 
d="M319 213q0 -129 115 -129q78 0 184 57v-112q-100 -53 -197 -53t-157 56t-61 179v371h-148v100h148v295h-148v102h150v191l114 41v-232h283v-102h-283v-295h261v-100h-261v-369z" />
    <glyph glyph-name="Utilde" unicode="&#x168;" horiz-adv-x="1372" 
d="M862 1808h99q-1 -86 -45 -138t-117 -52q-39 0 -120 41t-106 41q-63 0 -63 -88h-98q0 86 41 137t103 51t140 -40t103 -40q63 0 63 88zM1167 1319v-860q0 -483 -479 -484q-483 0 -483 484v860h-164v115h446v-115h-163v-858q0 -187 84 -281t280 -94t279 92q84 92 84 283v858
h-164v115h444v-115h-164z" />
    <glyph glyph-name="utilde" unicode="&#x169;" horiz-adv-x="1150" 
d="M752 1475h98q0 -87 -44 -139t-118 -52q-39 0 -120 41t-105 41q-63 0 -64 -88h-98q0 86 41 137q42 51 104 51t140 -40t102 -40q64 1 64 89zM676 977v102h403v-102h-143v-653q0 -172 -103 -260t-257 -89q-154 0 -258 88q-103 88 -103 261v653h-143v102h403v-102h-143v-649
q0 -244 244 -244t243 244v649h-143z" />
    <glyph glyph-name="Umacron" unicode="&#x16a;" horiz-adv-x="1372" 
d="M932 1655h-492v102h492v-102zM1167 1319v-860q0 -483 -479 -484q-483 0 -483 484v860h-164v115h446v-115h-163v-858q0 -187 84 -281t280 -94t279 92q84 92 84 283v858h-164v115h444v-115h-164z" />
    <glyph glyph-name="umacron" unicode="&#x16b;" horiz-adv-x="1150" 
d="M821 1323h-491v102h491v-102zM676 977v102h403v-102h-143v-653q0 -172 -103 -260t-257 -89q-154 0 -258 88q-103 88 -103 261v653h-143v102h403v-102h-143v-649q0 -244 244 -244t243 244v649h-143z" />
    <glyph glyph-name="Ubreve" unicode="&#x16c;" horiz-adv-x="1372" 
d="M686 1593q-102 1 -168 59t-82 169h99q27 -127 151 -127t152 127h98q-16 -111 -82 -169t-168 -59zM1167 1319v-860q0 -483 -479 -484q-483 0 -483 484v860h-164v115h446v-115h-163v-858q0 -187 84 -281t280 -94t279 92q84 92 84 283v858h-164v115h444v-115h-164z" />
    <glyph glyph-name="ubreve" unicode="&#x16d;" horiz-adv-x="1150" 
d="M575 1262q-101 0 -167 58t-82 169h98q28 -127 152 -127t151 127h98q-16 -111 -82 -169t-168 -58zM676 977v102h403v-102h-143v-653q0 -172 -103 -260t-257 -89q-154 0 -258 88q-103 88 -103 261v653h-143v102h403v-102h-143v-649q0 -244 244 -244t243 244v649h-143z" />
    <glyph glyph-name="Uring" unicode="&#x16e;" horiz-adv-x="1372" 
d="M684 1786q-36 0 -58 -22t-22 -60t22 -58q22 -22 58 -22t60 22q22 22 22 58t-22 60q-22 22 -60 22zM510 1704q0 70 50 118t124 48t125 -48t51 -118t-51 -117t-125 -47t-124 47t-50 117zM1167 1319v-860q0 -483 -479 -484q-483 0 -483 484v860h-164v115h446v-115h-163v-858
q0 -187 84 -281t280 -94t279 92q84 92 84 283v858h-164v115h444v-115h-164z" />
    <glyph glyph-name="uring" unicode="&#x16f;" horiz-adv-x="1150" 
d="M573 1456q-37 0 -59 -22t-20 -59q0 -37 22 -59t58 -22t59 22t23 58t-23 60q-23 22 -60 22zM399 1374q1 70 51 118t124 48t124 -48q52 -48 52 -118t-52 -117t-125 -47q-74 0 -124 47t-50 117zM676 977v102h403v-102h-143v-653q0 -172 -103 -260t-257 -89q-154 0 -258 88
q-103 88 -103 261v653h-143v102h403v-102h-143v-649q0 -244 244 -244t243 244v649h-143z" />
    <glyph glyph-name="Uhungarumlaut" unicode="&#x170;" horiz-adv-x="1372" 
d="M899 1868h127l-182 -324h-96zM641 1868h123l-152 -324h-96zM1167 1319v-860q0 -483 -479 -484q-483 0 -483 484v860h-164v115h446v-115h-163v-858q0 -187 84 -281t280 -94t279 92q84 92 84 283v858h-164v115h444v-115h-164z" />
    <glyph glyph-name="uhungarumlaut" unicode="&#x171;" horiz-adv-x="1150" 
d="M786 1536h127l-182 -324h-96zM528 1536h123l-151 -324h-97zM676 977v102h403v-102h-143v-653q0 -172 -103 -260t-257 -89q-154 0 -258 88q-103 88 -103 261v653h-143v102h403v-102h-143v-649q0 -244 244 -244t243 244v649h-143z" />
    <glyph glyph-name="Uogonek" unicode="&#x172;" horiz-adv-x="1372" 
d="M1167 1319v-860q0 -440 -399 -479q-96 -76 -96 -157t78 -81q47 0 106 41v-107q-51 -34 -125 -34t-117 46t-43 117q0 104 78 172q-444 18 -444 482v860h-164v115h446v-115h-163v-858q0 -187 84 -281t280 -94t279 92q84 92 84 283v858h-164v115h444v-115h-164z" />
    <glyph glyph-name="uogonek" unicode="&#x173;" horiz-adv-x="1150" 
d="M676 977v102h403v-102h-143v-653q0 -136 -67 -220t-177 -112q-111 -84 -110 -176q0 -74 77 -74q47 0 107 41v-107q-51 -34 -125 -34t-117 46t-43 132t76 155q-147 3 -245 93t-97 256v653h-143v102h403v-102h-143v-649q0 -244 244 -244t243 244v649h-143z" />
    <glyph glyph-name="Wcircumflex" unicode="&#x174;" horiz-adv-x="1937" 
d="M969 1769l-133 -225h-105l178 324h119l178 -324h-104zM1921 1434v-115h-143l-330 -1319h-145l-334 1278l-334 -1278h-146l-329 1319h-144v115h426v-115h-157l278 -1157l330 1272h151l330 -1272l279 1157h-158v115h426z" />
    <glyph glyph-name="wcircumflex" unicode="&#x175;" horiz-adv-x="1730" 
d="M854 1438l-133 -226h-105l179 324h118l179 -324h-105zM27 977v102h399v-102h-147l229 -799l285 901h127l284 -901l230 799h-146v102h416v-102h-154l-282 -977h-119l-293 915l-293 -915h-119l-284 977h-133z" />
    <glyph glyph-name="Ycircumflex" unicode="&#x176;" horiz-adv-x="1255" 
d="M627 1769l-133 -225h-105l178 324h119l178 -324h-104zM1219 1434v-115h-162l-373 -707v-497h164v-115h-447v115h164v497l-375 707h-153v115h438v-115h-149l301 -582l305 582h-154v115h441z" />
    <glyph glyph-name="ycircumflex" unicode="&#x177;" horiz-adv-x="1099" 
d="M553 1438l-133 -226h-105l179 324h118l179 -324h-105zM702 977v102h388v-102h-123l-375 -948q-119 -306 -200 -376q-99 -89 -224 -87q-80 0 -154 35v112q90 -41 154 -41q109 0 169 83t148 290l-340 932h-131v102h398v-102h-138l277 -770l299 770h-148z" />
    <glyph glyph-name="Ydieresis" unicode="&#x178;" horiz-adv-x="1255" 
d="M715 1763h116v-194h-116v194zM422 1763h117v-194h-117v194zM1219 1434v-115h-162l-373 -707v-497h164v-115h-447v115h164v497l-375 707h-153v115h438v-115h-149l301 -582l305 582h-154v115h441z" />
    <glyph glyph-name="Zacute" unicode="&#x179;" horiz-adv-x="1081" 
d="M707 1870h135l-236 -324h-117zM905 319h113v-319h-938v100l774 1219h-649v-205h-113v320h903v-101l-776 -1218h686v204z" />
    <glyph glyph-name="zacute" unicode="&#x17a;" horiz-adv-x="985" 
d="M625 1536h135l-236 -324h-116zM102 831v248h760v-94l-631 -883h529v172h108v-274h-780v94l631 883h-508v-146h-109z" />
    <glyph glyph-name="Zdotaccent" unicode="&#x17b;" horiz-adv-x="1081" 
d="M485 1763h117v-194h-117v194zM905 319h113v-319h-938v100l774 1219h-649v-205h-113v320h903v-101l-776 -1218h686v204z" />
    <glyph glyph-name="zdotaccent" unicode="&#x17c;" horiz-adv-x="985" 
d="M420 1434h117v-195h-117v195zM102 831v248h760v-94l-631 -883h529v172h108v-274h-780v94l631 883h-508v-146h-109z" />
    <glyph glyph-name="Zcaron" unicode="&#x17d;" horiz-adv-x="1081" 
d="M410 1868l133 -226l133 226h104l-178 -324h-119l-178 324h105zM905 319h113v-319h-938v100l774 1219h-649v-205h-113v320h903v-101l-776 -1218h686v204z" />
    <glyph glyph-name="zcaron" unicode="&#x17e;" horiz-adv-x="985" 
d="M344 1536l133 -225l133 225h105l-178 -324h-119l-178 324h104zM102 831v248h760v-94l-631 -883h529v172h108v-274h-780v94l631 883h-508v-146h-109z" />
    <glyph glyph-name="longs" unicode="&#x17f;" horiz-adv-x="622" 
d="M72 0v102h143v875h-166v102h166v109q0 172 86 257t234 85q88 0 139 -21v-102q-68 20 -155 20q-187 0 -187 -239v-1086h143v-102h-403z" />
    <glyph glyph-name="florin" unicode="&#x192;" 
d="M371 971v-213h499v-107h-499v-536h164v-115h-447v115h164v536h-189v107h189v213q0 487 401 487q195 0 289 -102t100 -252h-116q-26 180 -148 224q-53 20 -130 20t-131 -26t-82 -62q-64 -82 -64 -289z" />
    <glyph glyph-name="Aringacute" unicode="&#x1fa;" horiz-adv-x="1306" 
d="M653 1296l-237 -755h471zM1286 115v-115h-420v115h154l-98 315h-541l-98 -315h157v-115h-420v115h140l428 1319h143l420 -1319h135zM666 1788q-37 0 -59 -22q-21 -22 -21 -60t22 -58q22 -22 58 -22q38 0 60 22t22 58t-22 60q-22 22 -60 22zM492 1698q0 64 34 106
q35 43 90 60l175 247h129l-193 -253q51 -16 83 -58t32 -104t-51 -109t-125 -47t-124 47t-50 111z" />
    <glyph glyph-name="aringacute" unicode="&#x1fb;" horiz-adv-x="987" 
d="M676 516h-49q-195 0 -310 -71t-114 -195q0 -80 43 -123t123 -43t163 51t144 129v252zM676 621v186q0 188 -217 188t-228 -202h-108q0 151 100 231q101 80 243 80t234 -75t93 -210v-717h145v-102h-256v141q-145 -166 -324 -166q-122 0 -198 67q-76 68 -76 184
q0 217 176 311q152 82 367 84h49zM485 1456q-37 0 -59 -22t-20 -59q0 -37 22 -59t58 -22t59 22t23 58t-23 60q-23 22 -60 22zM311 1368q0 64 35 106q35 44 90 60l174 248h129l-192 -254q51 -16 83 -58t32 -104t-52 -109t-125 -47q-74 0 -124 47t-50 111z" />
    <glyph glyph-name="AEacute" unicode="&#x1fc;" horiz-adv-x="1794" 
d="M1116 1868h135l-235 -324h-117zM889 541v749l-440 -749h440zM725 0v115h164v315h-506l-186 -315h155v-115h-434v115h150l780 1319h811v-320h-113v205h-538v-522h581v-113h-581v-569h559v204h112v-319h-954z" />
    <glyph glyph-name="aeacute" unicode="&#x1fd;" horiz-adv-x="1566" 
d="M911 1536h136l-236 -324h-117zM1321 657q0 338 -248 338q-131 0 -199 -79t-79 -259h526zM625 516q-197 0 -310 -72t-112 -194q0 -166 175 -166t320 207q-18 82 -22 225h-51zM1442 553h-649q0 -260 77 -365q78 -104 228 -104t307 121v-121q-131 -109 -301 -109
q-258 0 -363 205q-168 -205 -385 -205q-116 0 -194 70t-78 200t84 218q151 158 463 158h45v186q0 188 -216 188t-229 -202h-108q0 151 99 231t253 80q94 0 172 -39t115 -113q100 152 300 152t290 -119t90 -321v-111z" />
    <glyph glyph-name="Oslashacute" unicode="&#x1fe;" horiz-adv-x="1271" 
d="M788 1868h136l-236 -324h-117zM629 1348q-183 0 -283 -148t-100 -485q0 -264 63 -416l594 934q-92 115 -274 115zM642 86q188 0 286 146t98 487q1 268 -65 418l-596 -932q89 -119 277 -119zM1149 719q0 -743 -520 -744q-205 0 -330 127l-96 -153l-84 51l117 184
q-113 184 -113 550t137 545t381 179q207 0 328 -121l96 154l86 -57l-115 -181q113 -186 113 -534z" />
    <glyph glyph-name="oslashacute" unicode="&#x1ff;" horiz-adv-x="1075" 
d="M692 1536h135l-235 -324h-117zM532 995q-144 0 -210 -100q-68 -100 -68 -356q0 -170 31 -273l454 645q-63 84 -207 84zM540 84q146 0 213 99t66 349q0 177 -31 281l-456 -643q62 -86 208 -86zM133 562q0 542 394 542q194 0 284 -88l84 117l82 -54l-105 -147
q70 -133 70 -400q0 -557 -403 -557q-176 0 -275 99l-90 -127l-78 53l109 156q-72 134 -72 406z" />
    <glyph glyph-name="Scommaaccent" unicode="&#x218;" horiz-adv-x="1064" 
d="M545 -82h135l-236 -324h-116zM504 1348q-96 0 -172 -62q-74 -62 -74 -166q0 -106 71 -181t172 -130t201 -113t171 -146q71 -89 71 -204q0 -188 -110 -279t-306 -91t-381 143v239h113v-184q123 -88 287 -88q281 0 280 246q0 78 -51 144t-127 111q-76 44 -165 97t-165 104
q-77 52 -127 132t-51 178q0 184 115 272t290 88q174 0 270 -112t102 -267h-117q-27 199 -147 247q-54 22 -150 22z" />
    <glyph glyph-name="scommaaccent" unicode="&#x219;" horiz-adv-x="925" 
d="M418 -82h135l-236 -324h-116zM141 313h103v-166q94 -63 223 -63q215 0 215 174q0 115 -193 206q-81 38 -161 81t-137 113q-56 71 -56 163q0 129 91 206t244 77t237 -84t84 -227h-113q0 203 -225 202q-89 0 -145 -46q-56 -45 -56 -113t41 -114t101 -77t132 -69t132 -74
q60 -37 102 -96t41 -132q0 -145 -93 -222t-264 -77t-303 109v229z" />
    <glyph glyph-name="circumflex" unicode="&#x2c6;" horiz-adv-x="1064" 
d="M532 1438l-133 -226h-104l178 324h119l178 -324h-104z" />
    <glyph glyph-name="caron" unicode="&#x2c7;" horiz-adv-x="1064" 
d="M399 1536l133 -225l134 225h104l-178 -324h-119l-178 324h104z" />
    <glyph glyph-name="breve" unicode="&#x2d8;" horiz-adv-x="1064" 
d="M532 1262q-102 0 -168 58t-81 169h98q27 -127 151 -127t152 127h98q-16 -111 -82 -169t-168 -58z" />
    <glyph glyph-name="dotaccent" unicode="&#x2d9;" horiz-adv-x="1064" 
d="M473 1434h117v-195h-117v195z" />
    <glyph glyph-name="ring" unicode="&#x2da;" horiz-adv-x="1064" 
d="M530 1456q-36 0 -58 -22t-22 -59t22 -59t58 -22t60 22q22 22 22 58t-22 60q-23 22 -60 22zM356 1374q0 70 50 118t124 48t125 -48t51 -118t-50 -117q-52 -47 -126 -47t-124 47t-50 117z" />
    <glyph glyph-name="ogonek" unicode="&#x2db;" horiz-adv-x="1064" 
d="M477 -184q0 -74 78 -74q47 0 107 41v-107q-51 -34 -125 -34t-117 46t-43 117q-1 123 108 195h117q-125 -90 -125 -184z" />
    <glyph glyph-name="tilde" unicode="&#x2dc;" horiz-adv-x="1064" 
d="M715 1475h98q0 -87 -44 -139t-118 -52q-39 0 -120 41t-105 41q-63 0 -64 -88h-98q0 86 41 137t103 51t139 -40q78 -40 104 -40q64 1 64 89z" />
    <glyph glyph-name="hungarumlaut" unicode="&#x2dd;" horiz-adv-x="1064" 
d="M735 1536h127l-182 -324h-96zM477 1536h123l-151 -324h-97z" />
    <glyph glyph-name="Delta" unicode="&#x394;" horiz-adv-x="1101" 
d="M547 1296l-371 -1185h737zM20 0l465 1434h129l467 -1434h-1061z" />
    <glyph glyph-name="Delta" unicode="&#x2206;" horiz-adv-x="1101" 
d="M547 1296l-371 -1185h737zM20 0l465 1434h129l467 -1434h-1061z" />
    <glyph glyph-name="Omega" unicode="&#x3a9;" horiz-adv-x="1310" 
d="M1167 694q0 -404 -247 -592h241v-102h-438v78q104 66 167 131q62 67 108 195t46 311q0 338 -100 486q-100 149 -288 149t-289 -148q-100 -148 -101 -487q0 -181 46 -311t108 -196t168 -130v-78h-438v102h241q-248 188 -248 611q0 385 136 563t376 182q240 -4 376 -182
t136 -582z" />
    <glyph glyph-name="Omega" unicode="&#x2126;" horiz-adv-x="1310" 
d="M1167 694q0 -404 -247 -592h241v-102h-438v78q104 66 167 131q62 67 108 195t46 311q0 338 -100 486q-100 149 -288 149t-289 -148q-100 -148 -101 -487q0 -181 46 -311t108 -196t168 -130v-78h-438v102h241q-248 188 -248 611q0 385 136 563t376 182q240 -4 376 -182
t136 -582z" />
    <glyph glyph-name="pi" unicode="&#x3c0;" horiz-adv-x="1286" 
d="M68 973v106h1151v-106h-220v-871h144v-102h-404v102h144v871h-480v-871h144v-102h-404v102h144v871h-219z" />
    <glyph glyph-name="uni0400" unicode="&#x400;" horiz-adv-x="1140" 
d="M326 1868h133l217 -324h-115zM72 0v115h164v1204h-164v115h934v-320h-113v205h-539v-522h582v-113h-582v-569h559v204h113v-319h-954z" />
    <glyph glyph-name="uni0401" unicode="&#x401;" horiz-adv-x="1140" 
d="M666 1763h116v-194h-116v194zM373 1763h116v-194h-116v194zM72 0v115h164v1204h-164v115h934v-320h-113v205h-539v-522h582v-113h-582v-569h559v204h113v-319h-954z" />
    <glyph glyph-name="uni0402" unicode="&#x402;" horiz-adv-x="1484" 
d="M47 1434h1071v-320h-114v205h-361v-502q160 86 328 86q434 0 434 -467q0 -224 -103 -330t-270 -106h-26v115h28q252 0 252 315q0 365 -315 365q-190 0 -328 -97v-583h164v-115h-447v115h164v1204h-362v-205h-115v320z" />
    <glyph glyph-name="uni0403" unicode="&#x403;" horiz-adv-x="1032" 
d="M698 1868h136l-236 -324h-117zM354 1319v-1204h164v-115h-446v115h164v1204h-164v115h913v-320h-113v205h-518z" />
    <glyph glyph-name="uni0404" unicode="&#x404;" horiz-adv-x="1171" 
d="M856 797v-113h-610q4 -322 109 -460t313 -138q152 0 262 72v202h112v-264q-174 -121 -380 -121q-539 0 -539 738q0 397 127 571t389 174q195 0 299 -114t111 -265h-117q-43 268 -299 269q-195 0 -286 -126t-101 -425h610z" />
    <glyph glyph-name="uni0405" unicode="&#x405;" horiz-adv-x="1064" 
d="M504 1348q-96 0 -172 -62q-74 -62 -74 -166q0 -106 71 -181t172 -130t201 -113t171 -146q71 -89 71 -204q0 -188 -110 -279t-306 -91t-381 143v239h113v-184q123 -88 287 -88q281 0 280 246q0 78 -51 144t-127 111q-76 44 -165 97t-165 104q-77 52 -127 132t-51 178
q0 184 115 272t290 88q174 0 270 -112t102 -267h-117q-27 199 -147 247q-54 22 -150 22z" />
    <glyph glyph-name="uni0406" unicode="&#x406;" horiz-adv-x="589" 
d="M354 1319v-1204h164v-115h-446v115h164v1204h-164v115h446v-115h-164z" />
    <glyph glyph-name="uni0407" unicode="&#x407;" horiz-adv-x="589" 
d="M391 1769h117v-194h-117v194zM98 1769h117v-194h-117v194zM354 1319v-1204h164v-115h-446v115h164v1204h-164v115h446v-115h-164z" />
    <glyph glyph-name="uni0408" unicode="&#x408;" horiz-adv-x="638" 
d="M403 1319v-1129q0 -104 -57 -159q-56 -55 -146 -55t-153 24v115q70 -29 133 -29q104 0 105 119v1114h-164v115h446v-115h-164z" />
    <glyph glyph-name="uni0409" unicode="&#x409;" horiz-adv-x="1665" 
d="M967 666v-551h227q170 0 253 60t83 206q0 145 -77 215t-259 70h-227zM1130 1434v-115h-163v-541h225q459 0 459 -395q0 -383 -457 -383h-510v115h164v1204h-436l-39 -795q-13 -317 -83 -419q-30 -45 -84 -75t-128 -30h-58v115h52q80 0 117 61q36 61 46 132q10 72 19 210
l35 801h-160v115h1001z" />
    <glyph glyph-name="uni040A" unicode="&#x40a;" horiz-adv-x="1744" 
d="M1044 666v-551h228q170 0 253 60t83 206q0 145 -77 215t-259 70h-228zM1208 1434v-115h-164v-541h226q459 0 459 -395q0 -383 -457 -383h-510v115h164v551h-592v-551h164v-115h-447v115h164v1204h-164v115h447v-115h-164v-539h592v539h-164v115h446z" />
    <glyph glyph-name="uni040B" unicode="&#x40b;" horiz-adv-x="1568" 
d="M1122 0v115h164v303q0 188 -67 282q-68 94 -253 94t-323 -96v-583h164v-115h-447v115h164v1204h-362v-205h-115v320h1071v-320h-114v205h-361v-502q160 86 328 86q236 0 335 -122t99 -361v-305h164v-115h-447z" />
    <glyph glyph-name="uni040C" unicode="&#x40c;" horiz-adv-x="1249" 
d="M750 1866h135l-236 -324h-117zM1153 1434v-115h-160l-389 -526q75 -7 146 -49q28 -15 54 -51t40 -56q14 -19 37 -73t31 -76t30 -87l105 -286h161v-115h-247l-132 367q-33 92 -52 137q-54 127 -128 160q-43 18 -104 18h-191v-567h164v-115h-446v115h164v1204h-164v115h446
v-115h-164v-522h115l465 637h219z" />
    <glyph glyph-name="uni040D" unicode="&#x40d;" horiz-adv-x="1454" 
d="M72 0v115h164v1204h-164v115h442v-115h-164v-1075l768 1190h264v-115h-163v-1204h163v-115h-442v115h164v1085l-772 -1200h-260zM891 1868h135l-235 -324h-117z" />
    <glyph glyph-name="uni040E" unicode="&#x40e;" horiz-adv-x="1310" 
d="M682 1616q-102 0 -168 58t-82 169h98q27 -127 152 -127t152 127h98q-16 -111 -82 -169t-168 -58zM854 1319v115h436v-115h-143l-531 -1092q-61 -125 -150 -176t-220 -51h-113v319h111v-204h20q84 0 143 32q58 33 103 125l84 168l-428 879h-143v115h423v-115h-149
l360 -750l363 750h-166z" />
    <glyph glyph-name="uni040F" unicode="&#x40f;" horiz-adv-x="1390" 
d="M51 0v115h164v1204h-164v115h447v-115h-164v-1204h715v1204h-164v115h452v-115h-170v-1204h172v-115h-591l-9 -315h-98l-8 315h-582z" />
    <glyph glyph-name="uni0410" unicode="&#x410;" horiz-adv-x="1306" 
d="M653 1296l-237 -755h471zM1286 115v-115h-420v115h154l-98 315h-541l-98 -315h157v-115h-420v115h140l428 1319h143l420 -1319h135z" />
    <glyph glyph-name="uni0411" unicode="&#x411;" horiz-adv-x="1153" 
d="M354 666v-551h228q170 0 253 60t83 206q0 145 -77 215t-259 70h-228zM985 1434v-320h-113v205h-518v-541h226q459 0 458 -395q0 -383 -456 -383h-510v115h164v1204h-164v115h913z" />
    <glyph glyph-name="uni0412" unicode="&#x412;" horiz-adv-x="1150" 
d="M354 1319v-541h226q135 0 215 82q79 82 79 210t-72 188q-73 60 -231 61h-217zM354 666v-551h228q170 0 253 60t83 206q0 145 -77 215t-259 70h-228zM72 1434h499q426 0 426 -365q0 -113 -55 -204t-162 -130q258 -55 258 -352q0 -383 -456 -383h-510v115h164v1204h-164
v115z" />
    <glyph glyph-name="uni0413" unicode="&#x413;" horiz-adv-x="1032" 
d="M354 1319v-1204h164v-115h-446v115h164v1204h-164v115h913v-320h-113v205h-518z" />
    <glyph glyph-name="uni0414" unicode="&#x414;" horiz-adv-x="1310" 
d="M418 1319v-256q0 -342 -40 -547t-124 -401h692v1204h-528zM139 1319v115h1090v-115h-164v-1204h164l-6 -430h-99l-6 315h-997l-6 -315h-99l-6 430h123q92 227 131 415t39 533v256h-164z" />
    <glyph glyph-name="uni0415" unicode="&#x415;" horiz-adv-x="1140" 
d="M72 0v115h164v1204h-164v115h934v-320h-113v205h-539v-522h582v-113h-582v-569h559v204h113v-319h-954z" />
    <glyph glyph-name="uni0416" unicode="&#x416;" horiz-adv-x="1908" 
d="M96 1434h219l465 -637h115v522h-164v115h447v-115h-164v-522h114l465 637h219v-115h-159l-389 -526q77 -7 145 -49q27 -15 53 -51t41 -56q31 -45 99 -236l104 -286h162v-115h-248l-131 367q-33 94 -52 137q-56 128 -128 160q-43 18 -107 18h-188v-567h164v-115h-447v115
h164v567h-188q-119 0 -171 -69t-116 -246l-131 -367h-248v115h162l104 286q64 183 88 220q25 36 51 72q27 36 54 51q73 41 145 49l-389 526h-160v115z" />
    <glyph glyph-name="uni0417" unicode="&#x417;" horiz-adv-x="1058" 
d="M397 666v112h138q133 0 217 85t84 210t-73 200t-219 75t-217 -78t-89 -191h-115q9 143 113 261t302 118t309 -102q112 -102 111 -287q0 -111 -55 -200t-164 -134q266 -70 267 -360q0 -191 -120 -295t-321 -104t-387 141v243h111v-186q117 -88 270 -88t240 73
q86 73 86 210q0 297 -355 297h-133z" />
    <glyph glyph-name="uni0418" unicode="&#x418;" horiz-adv-x="1454" 
d="M72 0v115h164v1204h-164v115h442v-115h-164v-1075l768 1190h264v-115h-163v-1204h163v-115h-442v115h164v1085l-772 -1200h-260z" />
    <glyph glyph-name="uni0419" unicode="&#x419;" horiz-adv-x="1454" 
d="M72 0v115h164v1204h-164v115h442v-115h-164v-1075l768 1190h264v-115h-163v-1204h163v-115h-442v115h164v1085l-772 -1200h-260zM729 1616q-102 0 -168 58t-82 169h99q28 -127 152 -127t151 127h98q-16 -111 -82 -169t-168 -58z" />
    <glyph glyph-name="uni041A" unicode="&#x41a;" horiz-adv-x="1249" 
d="M1153 1434v-115h-160l-389 -526q75 -7 146 -49q28 -15 54 -51t40 -56q14 -19 37 -73t31 -76t30 -87l105 -286h161v-115h-247l-132 367q-33 92 -52 137q-54 127 -128 160q-43 18 -104 18h-191v-567h164v-115h-446v115h164v1204h-164v115h446v-115h-164v-522h115l465 637
h219z" />
    <glyph glyph-name="uni041B" unicode="&#x41b;" horiz-adv-x="1316" 
d="M1083 1319v-1204h164v-115h-446v115h164v1204h-553l-39 -799q-13 -312 -83 -415q-30 -45 -84 -75t-128 -30h-58v115h52q80 0 117 61q36 61 46 132q10 72 19 210l35 801h-160v115h1118v-115h-164z" />
    <glyph glyph-name="uni041C" unicode="&#x41c;" horiz-adv-x="1779" 
d="M481 115v-115h-446v115h160l112 1204h-147v115h299l430 -1166l432 1166h299v-115h-147l112 -1204h160v-115h-447v115h166l-98 1114l-408 -1114h-137l-407 1114l-99 -1114h166z" />
    <glyph glyph-name="uni041D" unicode="&#x41d;" horiz-adv-x="1423" 
d="M905 0v115h164v567h-715v-567h164v-115h-446v115h164v1204h-164v115h446v-115h-164v-522h715v522h-164v115h447v-115h-164v-1204h164v-115h-447z" />
    <glyph glyph-name="uni041E" unicode="&#x41e;" horiz-adv-x="1271" 
d="M1026 716q0 338 -98 486q-98 146 -290 146t-292 -148t-100 -483t100 -483t292 -148t290 146t98 484zM641 1458q508 0 508 -741t-520 -742q-236 -1 -371 177t-135 563t137 564t381 179z" />
    <glyph glyph-name="uni041F" unicode="&#x41f;" horiz-adv-x="1423" 
d="M905 0v115h164v1204h-715v-1204h164v-115h-446v115h164v1204h-164v115h1280v-115h-164v-1204h164v-115h-447z" />
    <glyph glyph-name="uni0420" unicode="&#x420;" horiz-adv-x="1157" 
d="M354 1319v-668q115 -20 201 -20q377 0 377 340q0 184 -83 266t-269 82h-226zM72 1434h508q246 0 360 -112t115 -348t-145 -347t-355 -111q-102 0 -201 21v-422h164v-115h-446v115h164v1204h-164v115z" />
    <glyph glyph-name="uni0421" unicode="&#x421;" horiz-adv-x="1171" 
d="M246 721q0 -343 106 -489t316 -146q152 0 262 72v202h112v-264q-174 -121 -380 -121q-539 0 -539 738q0 397 127 571t389 174q195 0 299 -114t111 -265h-117q-43 268 -299 269q-207 0 -297 -142t-90 -485z" />
    <glyph glyph-name="uni0422" unicode="&#x422;" horiz-adv-x="1165" 
d="M643 1319v-1204h164v-115h-447v115h164v1204h-362v-205h-115v320h1071v-320h-114v205h-361z" />
    <glyph glyph-name="uni0423" unicode="&#x423;" horiz-adv-x="1310" 
d="M854 1319v115h436v-115h-143l-531 -1092q-61 -125 -150 -176t-220 -51h-113v319h111v-204h20q84 0 143 32q58 33 103 125l84 168l-428 879h-143v115h423v-115h-149l360 -750l363 750h-166z" />
    <glyph glyph-name="uni0424" unicode="&#x424;" horiz-adv-x="1411" 
d="M1231 713q0 89 -31 157t-76 106q-114 96 -360 103v-733q248 7 360 104q45 38 76 106t31 157zM180 712q0 -90 31 -157t76 -105q116 -97 360 -104v733q-246 -7 -360 -103q-45 -38 -76 -106t-31 -158zM483 1319v115h445v-115h-164v-127q310 -14 461 -154q55 -51 90 -135
t35 -190q0 -107 -35 -191t-90 -135q-147 -137 -461 -154v-118h164v-115h-445v115h164v118q-307 14 -461 154q-55 51 -90 135t-35 190t35 191q35 84 90 135q108 100 293 136q78 14 168 18v127h-164z" />
    <glyph glyph-name="uni0425" unicode="&#x425;" horiz-adv-x="1261" 
d="M1231 1434v-115h-154l-368 -582l378 -622h142v-115h-441v115h160l-317 518l-328 -518h168v-115h-440v115h141l391 614l-358 590h-154v115h443v-115h-150l291 -488l309 488h-147v115h434z" />
    <glyph glyph-name="uni0426" unicode="&#x426;" horiz-adv-x="1433" 
d="M72 0v115h164v1204h-164v115h446v-115h-164v-1204h715v1204h-164v115h447v-115h-164v-1204h164l-6 -430h-99l-6 315h-1169z" />
    <glyph glyph-name="uni0427" unicode="&#x427;" horiz-adv-x="1325" 
d="M1090 1319v-1204h163v-115h-446v115h164v497q-152 -82 -334 -82q-247 0 -355 123t-108 361v305h-164v115h447v-115h-164v-303q0 -186 76 -280q77 -94 269 -95q192 0 333 94v584h-164v115h446v-115h-163z" />
    <glyph glyph-name="uni0428" unicode="&#x428;" horiz-adv-x="2009" 
d="M1065 1319v-1204h590v1204h-164v115h446v-115h-163v-1204h163v-115h-1865v115h164v1204h-164v115h446v-115h-164v-1204h590v1204h-164v115h449v-115h-164z" />
    <glyph glyph-name="uni0429" unicode="&#x429;" horiz-adv-x="2019" 
d="M1065 1319v-1204h590v1204h-164v115h446v-115h-163v-1204h163l-6 -430h-98l-6 315h-1755v115h164v1204h-164v115h446v-115h-164v-1204h590v1204h-164v115h449v-115h-164z" />
    <glyph glyph-name="uni042A" unicode="&#x42a;" horiz-adv-x="1314" 
d="M600 666v-551h227q170 0 253 60t83 206q0 145 -77 215t-259 70h-227zM764 1434v-115h-164v-541h225q459 0 459 -395q0 -383 -457 -383h-510v115h164v1204h-319v-205h-115v320h717z" />
    <glyph glyph-name="uni042B" unicode="&#x42b;" horiz-adv-x="1665" 
d="M354 666v-551h228q170 0 253 60t83 206q0 145 -77 215t-259 70h-228zM518 1434v-115h-164v-541h226q459 0 458 -395q0 -383 -456 -383h-510v115h164v1204h-164v115h446zM1430 1319v-1204h163v-115h-446v115h164v1204h-164v115h446v-115h-163z" />
    <glyph glyph-name="uni042C" unicode="&#x42c;" horiz-adv-x="1069" 
d="M354 666v-551h228q170 0 253 60t83 206q0 145 -77 215t-259 70h-228zM518 1434v-115h-164v-541h226q459 0 458 -395q0 -383 -456 -383h-510v115h164v1204h-164v115h446z" />
    <glyph glyph-name="uni042D" unicode="&#x42d;" horiz-adv-x="1116" 
d="M993 713q0 -737 -538 -738q-207 0 -381 121v264h112v-202q111 -72 263 -72q207 0 312 138t109 460h-610v113h610q-10 299 -101 425t-286 126q-256 -1 -299 -269h-116q6 152 110 266t299 113q262 0 389 -174t127 -571z" />
    <glyph glyph-name="uni042E" unicode="&#x42e;" horiz-adv-x="1832" 
d="M1587 716q0 338 -98 486q-97 146 -289 146t-292 -148t-101 -483q0 -335 100 -483t292 -148t290 146t98 484zM1202 1458q508 0 508 -741t-520 -742q-231 0 -366 170q-134 170 -140 537h-330v-567h164v-115h-446v115h164v1204h-164v115h446v-115h-164v-522h332
q14 341 150 501t366 160z" />
    <glyph glyph-name="uni042F" unicode="&#x42f;" horiz-adv-x="1187" 
d="M834 705v614h-195q-184 0 -265 -65t-81 -255q0 -147 101 -221t247 -73h193zM4 0v115h143l84 245q33 92 51 134q48 110 140 155q-252 92 -252 352q0 229 115 331t352 102h479v-115h-164v-1204h164v-115h-457v115h175v475h-195q-131 0 -188 -53t-109 -211l-109 -326h-229z
" />
    <glyph glyph-name="uni0430" unicode="&#x430;" horiz-adv-x="987" 
d="M676 516h-49q-195 0 -310 -71t-114 -195q0 -80 43 -123t123 -43t163 51t144 129v252zM676 621v186q0 188 -217 188t-228 -202h-108q0 151 100 231q101 80 243 80t234 -75t93 -210v-717h145v-102h-256v141q-145 -166 -324 -166q-122 0 -198 67q-76 68 -76 184
q0 217 176 311q152 82 367 84h49z" />
    <glyph glyph-name="uni0431" unicode="&#x431;" horiz-adv-x="1089" 
d="M550 995q-148 0 -218 -100t-70 -355q0 -256 70 -356t218 -100t215 99t67 354t-67 357q-67 101 -215 101zM553 1104q215 0 308 -131t93 -441q0 -557 -403 -557q-203 -1 -304 141t-101 462t32 496q45 238 189 335q71 48 230 83q50 11 162 34t175 37v-119q-76 -20 -215 -42
t-218 -50t-132 -86q-78 -86 -99 -303q37 69 113 105t170 36z" />
    <glyph glyph-name="uni0432" unicode="&#x432;" horiz-adv-x="1056" 
d="M332 977v-383h252q92 0 149 60t57 148q1 175 -212 175h-246zM332 492v-390h254q121 0 179 44t58 146t-54 150q-54 49 -183 50h-254zM72 977v102h508q164 1 248 -65t83 -220q0 -154 -149 -237q94 -29 137 -90t43 -174q0 -293 -354 -293h-516v102h143v875h-143z" />
    <glyph glyph-name="uni0433" unicode="&#x433;" horiz-adv-x="870" 
d="M729 797v180h-397v-875h143v-102h-403v102h143v875h-143v102h764v-282h-107z" />
    <glyph glyph-name="uni0434" unicode="&#x434;" horiz-adv-x="1116" 
d="M348 977v-164q0 -436 -98 -711h534v875h-436zM1044 1079v-102h-143v-875h135l-6 -417h-96l-6 315h-783l-6 -315h-98l-6 417h96q55 152 79 302t23 413v160h-143v102h954z" />
    <glyph glyph-name="uni0435" unicode="&#x435;" horiz-adv-x="1032" 
d="M786 657q0 338 -247 338q-131 0 -199 -79t-80 -259h526zM907 553h-653q0 -261 80 -365t230 -104t306 121v-121q-131 -109 -301 -109q-205 1 -321 139t-115 431q0 559 408 559q186 0 276 -119t90 -321v-111z" />
    <glyph glyph-name="uni0436" unicode="&#x436;" horiz-adv-x="1574" 
d="M999 508h-151v-406h143v-102h-403v102h143v406h-156q-104 0 -156 -46t-102 -190l-94 -272h-207v102h125l70 203q49 145 113 215t170 82l-297 375h-140v102h201l363 -469h110v367h-143v102h403v-102h-143v-367h106l363 469h201v-102h-142l-295 -375q106 -12 171 -82
t114 -215l68 -203h125v-102h-207l-95 272q-49 144 -101 190t-157 46z" />
    <glyph glyph-name="uni0437" unicode="&#x437;" horiz-adv-x="964" 
d="M299 592h147q254 0 254 213q0 190 -228 190t-261 -202h-113q10 131 104 221t260 90q167 0 264 -79t97 -222q0 -188 -182 -252q84 -23 140 -91t57 -169q0 -143 -96 -229t-283 -87q-186 0 -346 117v230h102v-170q109 -68 246 -68q258 0 258 203t-266 202h-154v103z" />
    <glyph glyph-name="uni0438" unicode="&#x438;" horiz-adv-x="1206" 
d="M72 977v102h403v-102h-143v-787l545 889h258v-102h-144v-875h144v-102h-404v102h143v785l-542 -887h-260v102h143v875h-143z" />
    <glyph glyph-name="uni0439" unicode="&#x439;" horiz-adv-x="1206" 
d="M602 1262q-102 0 -168 58t-82 169h99q27 -127 151 -127t152 127h98q-16 -111 -82 -169t-168 -58zM72 977v102h403v-102h-143v-787l545 889h258v-102h-144v-875h144v-102h-404v102h143v785l-542 -887h-260v102h143v875h-143z" />
    <glyph glyph-name="uni043A" unicode="&#x43a;" horiz-adv-x="1097" 
d="M332 502v-400h143v-102h-403v102h143v875h-143v102h403v-102h-143v-373h151l363 475h201v-102h-140l-297 -381q109 -12 172 -79t113 -212l68 -203h124v-102h-213l-88 272q-45 142 -98 186t-160 44h-196z" />
    <glyph glyph-name="uni043B" unicode="&#x43b;" horiz-adv-x="1124" 
d="M649 0v102h144v875h-445l-24 -488q-12 -280 -49 -349q-50 -100 -118 -125q-44 -15 -104 -15h-33v102h33q97 0 127 105t29 287l22 483h-141v102h963v-102h-144v-875h144v-102h-404z" />
    <glyph glyph-name="uni043C" unicode="&#x43c;" horiz-adv-x="1501" 
d="M420 102v-102h-395v102h143l113 875h-138v102h275l332 -843l333 843h275v-102h-137l112 -875h144v-102h-396v102h144l-107 783l-305 -783h-125l-305 783l-107 -783h144z" />
    <glyph glyph-name="uni043D" unicode="&#x43d;" horiz-adv-x="1206" 
d="M991 977v-875h144v-102h-404v102h143v437h-542v-437h143v-102h-403v102h143v875h-143v102h403v-102h-143v-336h542v336h-143v102h404v-102h-144z" />
    <glyph glyph-name="uni043E" unicode="&#x43e;" horiz-adv-x="1075" 
d="M538 995q-148 0 -216 -100t-68 -355q0 -256 68 -356t216 -100t215 99t67 354t-67 357q-67 101 -215 101zM545 1104q211 0 304 -131t93 -441q0 -557 -403 -557q-201 -1 -303 133t-102 430t99 431q101 135 312 135z" />
    <glyph glyph-name="uni043F" unicode="&#x43f;" horiz-adv-x="1185" 
d="M72 977v102h1042v-102h-143v-875h143v-102h-403v102h143v875h-522v-875h143v-102h-403v102h143v875h-143z" />
    <glyph glyph-name="uni0440" unicode="&#x440;" horiz-adv-x="1128" 
d="M573 84q299 0 299 456t-249 455q-87 -1 -151 -29t-150 -89v-703q129 -90 251 -90zM61 977v102h250v-102q170 127 315 127t251 -111q55 -59 87 -175t31 -275q1 -287 -117 -427t-303 -141q-109 0 -253 78v-397h143v-102h-404v102h144v1321h-144z" />
    <glyph glyph-name="uni0441" unicode="&#x441;" horiz-adv-x="1015" 
d="M539 995q-149 0 -217 -100t-68 -355q0 -256 70 -356t205 -100t245 70v165h103v-225q-59 -49 -149 -84t-185 -35q-203 -1 -306 133t-103 432t102 431t313 133q160 0 246 -87t92 -224h-111q-10 111 -69 157t-168 45z" />
    <glyph glyph-name="uni0442" unicode="&#x442;" horiz-adv-x="1038" 
d="M317 0v102h144v875h-320v-180h-106v282h969v-282h-107v180h-319v-875h143v-102h-404z" />
    <glyph glyph-name="uni0443" unicode="&#x443;" horiz-adv-x="1099" 
d="M702 977v102h388v-102h-123l-375 -948q-29 -74 -43 -110t-42 -95t-48 -89q-65 -97 -119 -125q-85 -44 -171 -44q-85 0 -155 28v220h103v-136q27 -6 53 -6q147 0 227 174l88 199l-340 932h-131v102h398v-102h-138l277 -770l299 770h-148z" />
    <glyph glyph-name="uni0444" unicode="&#x444;" horiz-adv-x="1341" 
d="M227 539q1 -240 95 -344t292 -111v911q-199 -8 -293 -112t-94 -344zM1114 539q0 240 -94 344t-293 112v-911q199 6 293 110t94 345zM471 1393v102h256v-391q252 -12 377 -150t125 -416q0 -280 -127 -415t-375 -148v-319h145v-102h-401v102h143v319q-248 11 -374 147
t-127 416q0 280 125 416t376 150v289h-143z" />
    <glyph glyph-name="uni0445" unicode="&#x445;" horiz-adv-x="1101" 
d="M647 0v102h139l-239 361l-242 -361h133v-102h-370v102h110l301 445l-289 430h-139v102h414v-102h-141l227 -338l225 338h-137v102h412v-102h-146l-287 -426l302 -449h127v-102h-400z" />
    <glyph glyph-name="uni0446" unicode="&#x446;" horiz-adv-x="1206" 
d="M72 977v102h403v-102h-143v-875h532v875h-143v102h403v-102h-143v-875h143l-8 -417h-108l-7 315h-929v102h143v875h-143z" />
    <glyph glyph-name="uni0447" unicode="&#x447;" horiz-adv-x="1155" 
d="M680 977v102h403v-102h-143v-875h143v-102h-403v102h143v387q-61 -39 -99 -58q-120 -60 -255 -60t-220 87t-85 257v262h-144v102h404v-102h-143v-258q0 -129 56 -184t178 -55t308 114v383h-143z" />
    <glyph glyph-name="uni0448" unicode="&#x448;" horiz-adv-x="1660" 
d="M72 977v102h403v-102h-143v-875h440v875h-143v102h403v-102h-143v-875h440v875h-143v102h403v-102h-143v-875h143v-102h-1517v102h143v875h-143z" />
    <glyph glyph-name="uni0449" unicode="&#x449;" horiz-adv-x="1660" 
d="M629 977v102h403v-102h-143v-875h440v875h-141v102h403v-102h-145v-875h145l-6 -417h-110l-7 315h-1396v102h143v875h-143v102h403v-102h-143v-875h440v875h-143z" />
    <glyph glyph-name="uni044A" unicode="&#x44a;" horiz-adv-x="1191" 
d="M537 557v-455h204q264 0 265 238q0 125 -70 171t-203 46h-196zM420 977h-279v-180h-106v282h645v-102h-143v-318h200q387 0 387 -319q0 -164 -100 -252t-283 -88h-465v102h144v875z" />
    <glyph glyph-name="uni044B" unicode="&#x44b;" horiz-adv-x="1531" 
d="M332 557v-455h205q264 0 264 238q0 125 -70 171t-203 46h-196zM215 102v875h-143v102h403v-102h-143v-318h200q387 0 388 -319q0 -164 -100 -252t-283 -88h-465v102h143zM1067 977v102h260v-977h143v-102h-403v102h141v875h-141z" />
    <glyph glyph-name="uni044C" unicode="&#x44c;" horiz-adv-x="987" 
d="M332 557v-455h205q264 0 264 238q0 125 -70 171t-203 46h-196zM215 102v875h-143v102h403v-102h-143v-318h200q387 0 388 -319q0 -164 -100 -252t-283 -88h-465v102h143z" />
    <glyph glyph-name="uni044D" unicode="&#x44d;" horiz-adv-x="978" 
d="M285 504v102h440q-10 217 -79 303t-192 86t-182 -46t-69 -156h-111q6 137 93 224t247 87q209 0 311 -132q103 -132 103 -431t-104 -432t-306 -134q-94 0 -184 35t-150 84v225h103v-165q111 -70 243 -70t203 93q70 93 74 327h-440z" />
    <glyph glyph-name="uni044E" unicode="&#x44e;" horiz-adv-x="1540" 
d="M1002 995q-148 0 -216 -100t-68 -355t68 -356q68 -100 216 -100t216 99q66 99 66 354t-66 357q-68 101 -216 101zM72 977v102h403v-102h-143v-338h268q16 241 116 353t303 112q202 0 295 -131t93 -441q0 -557 -403 -557q-202 -1 -304 133t-102 429h-266v-435h143v-102
h-403v102h143v875h-143z" />
    <glyph glyph-name="uni044F" unicode="&#x44f;" horiz-adv-x="1101" 
d="M770 594v383h-225q-233 0 -234 -184q-1 -87 55 -143t152 -56h252zM31 0v102h108l74 181q31 75 50 113t53 79t75 57q-88 23 -144 86q-57 64 -57 192t98 199t255 70h487v-102h-143v-875h143v-102h-403v102h143v390h-225q-90 0 -135 -67t-84 -167l-103 -258h-192z" />
    <glyph glyph-name="uni0450" unicode="&#x450;" horiz-adv-x="1032" 
d="M248 1536h133l217 -324h-115zM786 657q0 338 -247 338q-131 0 -199 -79t-80 -259h526zM907 553h-653q0 -261 80 -365t230 -104t306 121v-121q-131 -109 -301 -109q-205 1 -321 139t-115 431q0 559 408 559q186 0 276 -119t90 -321v-111z" />
    <glyph glyph-name="uni0451" unicode="&#x451;" horiz-adv-x="1032" 
d="M625 1434h116v-195h-116v195zM332 1434h117v-195h-117v195zM786 657q0 338 -247 338q-131 0 -199 -79t-80 -259h526zM907 553h-653q0 -261 80 -365t230 -104t306 121v-121q-131 -109 -301 -109q-205 1 -321 139t-115 431q0 559 408 559q186 0 276 -119t90 -321v-111z" />
    <glyph glyph-name="uni0452" unicode="&#x452;" horiz-adv-x="1150" 
d="M61 1405v102h261v-215h389v-96h-389v-213q61 39 95 57q35 18 105 41t142 23q147 0 232 -87t85 -257v-379q0 -195 -66 -288t-210 -93h-33v102h33q91 0 125 66t34 217v354q0 133 -52 195t-178 61q-126 0 -312 -114v-779h143v-102h-404v102h144v1094h-144v96h144v113h-144z
" />
    <glyph glyph-name="uni0453" unicode="&#x453;" horiz-adv-x="870" 
d="M618 1536h136l-236 -324h-117zM729 797v180h-397v-875h143v-102h-403v102h143v875h-143v102h764v-282h-107z" />
    <glyph glyph-name="uni0454" unicode="&#x454;" horiz-adv-x="1015" 
d="M524 995q-124 0 -193 -86t-77 -303h440v-102h-440q2 -232 73 -326t204 -94t243 70v165h103v-225q-59 -49 -149 -84t-185 -35q-203 -1 -306 133t-103 432t102 431t313 133q160 0 246 -87t92 -224h-111q-10 111 -69 157t-183 45z" />
    <glyph glyph-name="uni0455" unicode="&#x455;" horiz-adv-x="925" 
d="M141 313h103v-166q94 -63 223 -63q215 0 215 174q0 115 -193 206q-81 38 -161 81t-137 113q-56 71 -56 163q0 129 91 206t244 77t237 -84t84 -227h-113q0 203 -225 202q-89 0 -145 -46q-56 -45 -56 -113t41 -114t101 -77t132 -69t132 -74q60 -37 102 -96t41 -132
q0 -145 -93 -222t-264 -77t-303 109v229z" />
    <glyph glyph-name="uni0456" unicode="&#x456;" horiz-adv-x="536" 
d="M215 1434h117v-195h-117v195zM72 977v102h260v-977h143v-102h-403v102h143v875h-143z" />
    <glyph glyph-name="uni0457" unicode="&#x457;" horiz-adv-x="536" 
d="M315 1434h117v-195h-117v195zM23 1434h116v-195h-116v195zM72 977v102h260v-977h143v-102h-403v102h143v875h-143z" />
    <glyph glyph-name="uni0458" unicode="&#x458;" horiz-adv-x="516" 
d="M205 1434h117v-195h-117v195zM61 977v102h261v-1306q0 -99 -60 -159t-150 -60q-88 0 -165 36v113q82 -41 145 -41q113 0 113 121v1194h-144z" />
    <glyph glyph-name="uni0459" unicode="&#x459;" horiz-adv-x="1536" 
d="M881 557v-455h204q264 0 265 238q0 125 -70 171t-203 46h-196zM621 0v102h143v875h-416l-24 -488q-12 -280 -49 -349q-50 -100 -118 -125q-44 -15 -104 -15h-33v102h33q97 0 127 105t29 287l22 483h-141v102h934v-102h-143v-318h200q387 0 387 -319q0 -164 -100 -252
t-283 -88h-464z" />
    <glyph glyph-name="uni045A" unicode="&#x45a;" horiz-adv-x="1605" 
d="M950 557v-455h205q264 0 264 238q0 125 -69 171q-70 46 -203 46h-197zM690 977v102h404v-102h-144v-318h201q387 0 387 -319q0 -164 -100 -252t-283 -88h-465v102h144v455h-502v-455h143v-102h-403v102h143v875h-143v102h403v-102h-143v-318h502v318h-144z" />
    <glyph glyph-name="uni045B" unicode="&#x45b;" horiz-adv-x="1175" 
d="M864 102v637q0 135 -51 195t-178 61q-127 0 -313 -114v-779h143v-102h-404v102h144v1094h-144v96h144v113h-144v102h261v-215h389v-96h-389v-213q57 37 93 57q37 20 107 42t142 22q147 0 232 -87t85 -257v-658h143v-102h-403v102h143z" />
    <glyph glyph-name="uni045C" unicode="&#x45c;" horiz-adv-x="1097" 
d="M721 1536h135l-235 -324h-117zM332 502v-400h143v-102h-403v102h143v875h-143v102h403v-102h-143v-373h151l363 475h201v-102h-140l-297 -381q109 -12 172 -79t113 -212l68 -203h124v-102h-213l-88 272q-45 142 -98 186t-160 44h-196z" />
    <glyph glyph-name="uni045D" unicode="&#x45d;" horiz-adv-x="1206" 
d="M338 1536h133l217 -324h-115zM72 977v102h403v-102h-143v-787l545 889h258v-102h-144v-875h144v-102h-404v102h143v785l-542 -887h-260v102h143v875h-143z" />
    <glyph glyph-name="uni045E" unicode="&#x45e;" horiz-adv-x="1099" 
d="M702 977v102h388v-102h-123l-375 -948q-29 -74 -43 -110t-42 -95t-48 -89q-65 -97 -119 -125q-85 -44 -171 -44q-85 0 -155 28v220h103v-136q27 -6 53 -6q147 0 227 174l88 199l-340 932h-131v102h398v-102h-138l277 -770l299 770h-148zM553 1262q-102 0 -168 58t-82 169
h98q27 -127 152 -127t152 127h98q-16 -111 -82 -169t-168 -58z" />
    <glyph glyph-name="uni045F" unicode="&#x45f;" horiz-adv-x="1185" 
d="M711 977v102h403v-102h-143v-875h143v-102h-463l-8 -315h-100l-8 315h-463v102h143v875h-143v102h403v-102h-143v-875h522v875h-143z" />
    <glyph glyph-name="uni0462" unicode="&#x462;" horiz-adv-x="1343" 
d="M643 666v-551h227q170 0 253 60t83 206q0 145 -77 215t-259 70h-227zM47 1434h1071v-320h-114v205h-361v-541h225q459 0 459 -395q0 -383 -457 -383h-510v115h164v1204h-362v-205h-115v320z" />
    <glyph glyph-name="uni0463" unicode="&#x463;" horiz-adv-x="1191" 
d="M512 557v-455h205q264 0 264 238q0 125 -70 171t-202 46h-197zM395 977h-258v-180h-106v282h364v326h-143v102h260v-428h365v-282h-107v180h-258v-318h201q387 0 387 -319q0 -164 -100 -252t-283 -88h-465v102h143v875z" />
    <glyph glyph-name="uni0472" unicode="&#x472;" horiz-adv-x="1271" 
d="M637 1348q-179 0 -279 -129t-112 -422h778q-10 293 -108 422t-279 129zM637 86q186 0 285 138q98 138 104 458h-780q4 -317 104 -457q101 -139 287 -139zM641 1458q508 0 508 -741t-520 -742q-236 -1 -371 177t-135 563t137 564t381 179z" />
    <glyph glyph-name="uni0473" unicode="&#x473;" horiz-adv-x="1075" 
d="M537 995q-139 0 -207 -88t-76 -309h563q-9 223 -75 310t-205 87zM538 84q142 0 210 91t71 321h-565q6 -228 74 -320t210 -92zM545 1104q211 0 304 -131t93 -441q0 -557 -403 -557q-201 -1 -303 133t-102 430t99 431q101 135 312 135z" />
    <glyph glyph-name="uni0474" unicode="&#x474;" horiz-adv-x="1327" 
d="M1307 1434v-115h-152l-430 -1319h-129l-428 1319h-148v115h437v-115h-164l369 -1153l409 1268h236z" />
    <glyph glyph-name="uni0475" unicode="&#x475;" horiz-adv-x="1159" 
d="M1139 1079v-102h-123l-371 -977h-125l-368 977h-132v102h400v-102h-146l314 -836l346 938h205z" />
    <glyph glyph-name="uni0490" unicode="&#x490;" horiz-adv-x="1032" 
d="M354 1319v-1204h164v-115h-446v115h164v1204h-164v115h800v204h113v-319h-631z" />
    <glyph glyph-name="uni0491" unicode="&#x491;" horiz-adv-x="880" 
d="M819 1323v-346h-487v-875h143v-102h-403v102h143v875h-143v102h639l10 244h98z" />
    <glyph glyph-name="Wgrave" unicode="&#x1e80;" horiz-adv-x="1937" 
d="M674 1868h133l217 -324h-115zM1921 1434v-115h-143l-330 -1319h-145l-334 1278l-334 -1278h-146l-329 1319h-144v115h426v-115h-157l278 -1157l330 1272h151l330 -1272l279 1157h-158v115h426z" />
    <glyph glyph-name="wgrave" unicode="&#x1e81;" horiz-adv-x="1730" 
d="M563 1536h133l217 -324h-114zM27 977v102h399v-102h-147l229 -799l285 901h127l284 -901l230 799h-146v102h416v-102h-154l-282 -977h-119l-293 915l-293 -915h-119l-284 977h-133z" />
    <glyph glyph-name="Wacute" unicode="&#x1e82;" horiz-adv-x="1937" 
d="M1128 1868h136l-236 -324h-117zM1921 1434v-115h-143l-330 -1319h-145l-334 1278l-334 -1278h-146l-329 1319h-144v115h426v-115h-157l278 -1157l330 1272h151l330 -1272l279 1157h-158v115h426z" />
    <glyph glyph-name="wacute" unicode="&#x1e83;" horiz-adv-x="1730" 
d="M1018 1536h135l-235 -324h-117zM27 977v102h399v-102h-147l229 -799l285 901h127l284 -901l230 799h-146v102h416v-102h-154l-282 -977h-119l-293 915l-293 -915h-119l-284 977h-133z" />
    <glyph glyph-name="Wdieresis" unicode="&#x1e84;" horiz-adv-x="1937" 
d="M1057 1763h117v-194h-117v194zM764 1763h117v-194h-117v194zM1921 1434v-115h-143l-330 -1319h-145l-334 1278l-334 -1278h-146l-329 1319h-144v115h426v-115h-157l278 -1157l330 1272h151l330 -1272l279 1157h-158v115h426z" />
    <glyph glyph-name="wdieresis" unicode="&#x1e85;" horiz-adv-x="1730" 
d="M942 1434h117v-195h-117v195zM649 1434h117v-195h-117v195zM27 977v102h399v-102h-147l229 -799l285 901h127l284 -901l230 799h-146v102h416v-102h-154l-282 -977h-119l-293 915l-293 -915h-119l-284 977h-133z" />
    <glyph glyph-name="Ygrave" unicode="&#x1ef2;" horiz-adv-x="1255" 
d="M336 1868h133l217 -324h-115zM1219 1434v-115h-162l-373 -707v-497h164v-115h-447v115h164v497l-375 707h-153v115h438v-115h-149l301 -582l305 582h-154v115h441z" />
    <glyph glyph-name="ygrave" unicode="&#x1ef3;" horiz-adv-x="1099" 
d="M268 1536h133l217 -324h-114zM702 977v102h388v-102h-123l-375 -948q-119 -306 -200 -376q-99 -89 -224 -87q-80 0 -154 35v112q90 -41 154 -41q109 0 169 83t148 290l-340 932h-131v102h398v-102h-138l277 -770l299 770h-148z" />
    <glyph glyph-name="endash" unicode="&#x2013;" horiz-adv-x="1206" 
d="M991 737v-112h-776v112h776z" />
    <glyph glyph-name="emdash" unicode="&#x2014;" horiz-adv-x="1982" 
d="M1767 737v-112h-1552v112h1552z" />
    <glyph glyph-name="quoteleft" unicode="&#x2018;" horiz-adv-x="512" 
d="M328 1116v-168h-178v160l110 326h102l-100 -318h66z" />
    <glyph glyph-name="quoteright" unicode="&#x2019;" horiz-adv-x="512" 
d="M184 1266v168h178v-160l-110 -326h-102l100 318h-66z" />
    <glyph glyph-name="quotesinglbase" unicode="&#x201a;" horiz-adv-x="512" 
d="M184 0v168h178v-160l-110 -325h-102l100 317h-66z" />
    <glyph glyph-name="quotedblleft" unicode="&#x201c;" horiz-adv-x="856" 
d="M328 1116v-168h-178v160l110 326h102l-100 -318h66zM672 1116v-168h-178v160l110 326h103l-101 -318h66z" />
    <glyph glyph-name="quotedblright" unicode="&#x201d;" horiz-adv-x="856" 
d="M528 1266v168h179v-160l-111 -326h-102l100 318h-66zM184 1266v168h178v-160l-110 -326h-102l100 318h-66z" />
    <glyph glyph-name="quotedblbase" unicode="&#x201e;" horiz-adv-x="856" 
d="M528 0v168h179v-160l-111 -321h-102l100 313h-66zM184 0v168h178v-160l-110 -321h-102l100 313h-66z" />
    <glyph glyph-name="dagger" unicode="&#x2020;" horiz-adv-x="919" 
d="M807 1208v-104h-291v-551h-113v551h-290v104h290v226h113v-226h291z" />
    <glyph glyph-name="daggerdbl" unicode="&#x2021;" horiz-adv-x="919" 
d="M516 797v-244h-113v244h-249v104h249v203h-290v104h290v226h113v-226h291v-104h-291v-203h250v-104h-250z" />
    <glyph glyph-name="bullet" unicode="&#x2022;" horiz-adv-x="821" 
d="M205 680q0 86 59 146q60 60 146 60t146 -60t60 -146t-60 -145t-146 -59t-146 58q-60 60 -59 146z" />
    <glyph glyph-name="ellipsis" unicode="&#x2026;" horiz-adv-x="1441" 
d="M1116 147h137v-147h-137v147zM651 147h137v-147h-137v147zM186 147h138v-147h-138v147z" />
    <glyph glyph-name="perthousand" unicode="&#x2030;" horiz-adv-x="1947" 
d="M1015 76q77 0 111 53t35 189q-1 136 -35 192t-111 55q-77 0 -113 -54q-36 -55 -36 -191t36 -190t113 -54zM1020 664q131 0 188 -80t58 -269q0 -340 -251 -340t-251 344q0 180 62 263q63 82 194 82zM339 1360q-77 0 -113 -54t-36 -190t36 -191t113 -55t112 54t35 189
q0 136 -35 192q-35 55 -112 55zM88 1114q0 180 62 262t194 82q131 0 188 -80t58 -268q0 -340 -251 -340t-251 344zM1073 1434h119l-911 -1434h-117zM1609 76q77 0 111 53t35 189q-1 136 -35 192t-111 55q-77 0 -113 -54q-36 -55 -36 -191t36 -190t113 -54zM1614 664
q131 0 188 -80t58 -269q0 -340 -251 -340t-251 344q0 180 62 263q63 82 194 82z" />
    <glyph glyph-name="guilsinglleft" unicode="&#x2039;" horiz-adv-x="825" 
d="M692 145h-141l-418 467l418 467h141l-418 -467z" />
    <glyph glyph-name="guilsinglright" unicode="&#x203a;" horiz-adv-x="825" 
d="M274 145h-141l418 467l-418 467h141l418 -467z" />
    <glyph glyph-name="fraction" unicode="&#x2044;" horiz-adv-x="1073" 
d="M926 1434h127l-908 -1434h-125z" />
    <glyph glyph-name="fraction" unicode="&#x2215;" horiz-adv-x="1073" 
d="M926 1434h127l-908 -1434h-125z" />
    <glyph glyph-name="Euro" unicode="&#x20ac;" 
d="M45 807v106h152q27 291 140 418q114 127 324 127t304 -102t100 -254h-115q-27 183 -148 226q-54 19 -132 20q-172 0 -253 -98t-100 -337h578l-21 -106h-563v-92q0 -84 2 -121h529l-21 -107h-495q29 -215 123 -308t264 -93q129 0 237 47v250h113v-309q-147 -98 -359 -98
t-339 121q-127 122 -164 390h-156v107h145q-2 37 -2 119v94h-143z" />
    <glyph glyph-name="trademark" unicode="&#x2122;" horiz-adv-x="1779" 
d="M627 1198v133h-154v-526h86v-98h-278v98h88v526h-156v-133h-98v236h610v-236h-98zM842 1331v103h194l211 -508l211 508h189v-103h-80l75 -526h89v-98h-277v98h82l-55 424l-181 -424h-108l-178 424l-56 -424h82v-98h-276v98h88l72 526h-82z" />
    <glyph glyph-name="partialdiff" unicode="&#x2202;" horiz-adv-x="1187" 
d="M539 725q-143 0 -233 -94t-89 -275q0 -122 68 -196t184 -74q155 0 259 124t165 400q-147 115 -354 115zM672 1458q180 0 283 -117t104 -348q0 -127 -27 -280q-129 -737 -563 -738q-160 1 -263 99t-104 264q0 238 125 368t321 130t370 -115q27 166 26 278q0 348 -280 349
q-236 0 -310 -242l-106 24q94 328 424 328z" />
    <glyph glyph-name="product" unicode="&#x220f;" horiz-adv-x="1423" 
d="M1188 1319v-1204h164v-115h-447v115h164v1204h-715v-1204h164v-115h-446v115h164v1204h-185v115h1321v-115h-184z" />
    <glyph glyph-name="summation" unicode="&#x2211;" 
d="M84 0v84l516 637l-516 629v84h915v-320h-112v205h-633l494 -600l-498 -604h637v204h112v-319h-915z" />
    <glyph glyph-name="minus" unicode="&#x2212;" 
d="M961 737v-112h-795v112h795z" />
    <glyph glyph-name="radical" unicode="&#x221a;" horiz-adv-x="1290" 
d="M96 973v106h242l307 -925l436 1280h117l-493 -1434h-125l-328 973h-156z" />
    <glyph glyph-name="infinity" unicode="&#x221e;" horiz-adv-x="1363" 
d="M391 436q-115 0 -187 65t-71 183q0 118 72 184q72 64 186 64q145 0 291 -164q145 164 291 164q115 0 187 -65t71 -183q0 -118 -72 -184q-72 -64 -186 -64q-146 0 -291 164q-145 -164 -291 -164zM1118 684q0 145 -147 145q-53 1 -103 -33t-127 -112q76 -78 126 -112
t104 -33q147 0 147 145zM246 684q0 -145 147 -145q53 -1 103 33t127 112q-78 78 -127 112t-103 33q-147 0 -147 -145z" />
    <glyph glyph-name="integral" unicode="&#x222b;" horiz-adv-x="673" 
d="M332 1188v-1280q0 -172 -85 -257t-235 -85q-80 0 -139 20v103q67 -21 155 -21q186 -1 187 240v1280q0 172 85 257t235 85q78 0 139 -21v-102q-60 20 -152 20q-190 0 -190 -239z" />
    <glyph glyph-name="approxequal" unicode="&#x2248;" 
d="M369 956q67 0 207 -43t178 -43t64 16t36 34q10 16 29 55l96 -45q-27 -76 -84 -122t-129 -46t-212 43t-181 43t-67 -16t-36 -34q-10 -16 -28 -55l-97 43q57 170 224 170zM360 582q74 0 214 -43t188 -43t72 24q25 24 49 80l96 -45q-27 -76 -84 -123t-129 -47t-210 44
q-140 44 -190 44t-75 -24q-24 -25 -49 -82l-97 45q27 76 84 123t131 47z" />
    <glyph glyph-name="notequal" unicode="&#x2260;" 
d="M961 508v-113h-512l-173 -278h-112l170 278h-168v113h237l201 323h-438v113h508l172 279h115l-175 -279h175v-113h-242l-201 -323h443z" />
    <glyph glyph-name="lessequal" unicode="&#x2264;" 
d="M961 113v-113h-795v113h795zM961 1081v-120l-668 -279l668 -279v-120l-795 333v132z" />
    <glyph glyph-name="greaterequal" unicode="&#x2265;" 
d="M961 113v-113h-795v113h795zM166 961v120l795 -333v-132l-795 -333v120l668 279z" />
    <glyph glyph-name="lozenge" unicode="&#x25ca;" 
d="M563 123l350 596l-350 592l-352 -592zM86 719l422 715h108l422 -715l-422 -719h-108z" />
    <glyph glyph-name="CR" horiz-adv-x="471" 
 />
    <glyph glyph-name="Imacron" horiz-adv-x="589" 
d="M541 1655h-492v102h492v-102zM354 1319v-1204h164v-115h-446v115h164v1204h-164v115h446v-115h-164z" />
    <glyph glyph-name="ibreve" horiz-adv-x="536" 
d="M268 1262q-102 0 -168 58t-82 169h99q27 -127 151 -127t152 127h98q-16 -111 -82 -169t-168 -58zM72 977v102h260v-977h143v-102h-403v102h143v875h-143z" />
    </font>
</defs>
</svg>
